<svg width="126" height="91" viewBox="0 0 126 91" fill="none" xmlns="http://www.w3.org/2000/svg">
<path d="M4.14367 60.3925C5.03465 60.5197 5.52806 61.8832 5.15637 62.6356C4.99659 62.9592 4.80625 62.9589 4.50109 63.0761L4.11144 63.1132C3.29469 62.8632 3.37419 61.7374 3.57727 61.0985C3.66172 60.8331 3.94603 60.5795 4.14367 60.3925Z" fill="#292728" fill-opacity="0.85"></path>
<path fill-rule="evenodd" clip-rule="evenodd" d="M26.5792 9.45595C27.5848 8.18171 29.9764 -0.586855 31.5548 0.0311471C32.2142 0.783503 31.9591 4.51358 31.9445 5.69228C31.92 7.67257 31.8177 9.94911 31.5538 11.9208C31.3837 13.1921 30.8943 14.6591 30.7257 15.9726C30.6397 16.5222 30.054 17.7479 29.8595 18.3358C29.1823 20.3832 28.459 22.3698 27.3321 24.2186C25.7199 27.2849 24.1783 30.3745 22.2882 33.2938C21.7687 34.0964 21.4634 35.2968 20.9816 36.1386C19.4559 38.7304 17.9718 41.3387 16.3732 43.8866C16.863 44.2711 18.3491 45.7416 18.5265 45.8144C21.1554 46.893 20.6576 47.2271 21.0509 49.7948C21.1592 50.5012 22.0846 51.6736 22.6564 52.2851C23.5993 53.2933 25.0361 53.896 26.2843 54.4618C27.3876 55.0087 28.4725 55.7063 29.5704 56.2782C32.3282 57.7149 34.8855 59.4755 37.7257 60.7489C38.5228 61.108 39.4237 61.6227 40.2394 61.9159C40.8291 62.1276 42.0689 62.0632 42.7784 62.0868C43.4315 62.5333 43.5824 62.8525 44.3946 63.3563C45.358 63.9537 50.0629 65.4524 50.8585 65.1767L50.9161 65.0341C50.7858 64.5821 49.4028 63.4266 48.8839 62.8456C42.9054 56.1499 40.3986 49.3027 41.0675 40.3358C41.3943 37.0011 41.998 33.7586 44.2784 31.1483C45.2046 30.0886 47.5551 28.8114 48.0509 27.496C48.8881 25.2739 49.3555 21.7098 49.5441 19.3095C49.2807 19.1954 48.8848 19.3172 48.5802 19.3778C48.134 19.3523 46.9317 19.414 46.4386 19.4306C45.5052 19.4619 44.0495 19.4107 43.1837 19.4823C40.3617 19.7159 39.9163 20.0676 37.3009 18.9813C34.5252 18.1626 33.4971 17.8633 31.3263 15.744C31.3411 13.097 33.147 5.72949 34.2989 3.08583C34.7436 2.06708 37.8263 1.45117 39.1085 1.12685C39.5774 1.08781 40.0483 1.04318 40.5167 1.00771C42.7861 0.835968 44.9568 0.247792 47.2452 0.178608C48.5885 0.138009 49.8158 0.22472 51.1486 0.365131C54.2459 0.586236 57.3545 0.385591 60.4532 0.521381C61.3487 0.560624 62.2839 0.781891 63.1808 0.87685L69.3566 1.49404C70.554 1.61922 72.8185 1.45848 73.7511 1.60146C74.6785 1.63529 76.4718 2.14335 77.38 2.32119C79.5449 2.74503 85.5735 2.49995 86.9386 4.32021C89.1075 7.21243 89.4449 11.6681 92.8224 14.0419C93.5252 14.5364 95.1971 16.1007 95.0226 16.9882C94.9298 18.2889 94.0451 19.549 93.0861 20.3749C89.8935 23.1262 84.7996 23.0593 80.8068 22.8759C78.4427 22.7673 75.6 22.7881 73.4591 22.1942C72.9648 23.2516 72.648 24.7835 72.462 25.9462C72.2733 26.881 72.3379 28.0633 71.4923 28.5556C70.5251 28.5242 70.422 27.8724 70.5665 27.0399C70.8485 25.416 71.4015 23.7272 71.7892 22.1181C71.4857 22.0914 71.3061 22.0321 71.0138 21.9579C69.2537 21.511 67.4314 21.5699 65.6564 21.161C65.3749 20.9043 65.325 20.2585 65.6193 19.9784C65.9969 19.6196 66.925 19.7548 67.4152 19.8368C69.1409 20.1255 70.4521 20.5748 72.2316 20.6298C72.7193 19.6435 73.2463 17.1218 74.4015 16.9013C74.7185 16.9474 74.7525 16.9724 75.007 17.1698C75.373 17.8707 74.0629 19.9172 73.7462 20.9784C78.1039 20.9823 82.2775 21.508 86.63 21.0526C88.7326 20.8326 92.8105 19.553 93.1798 17.0927C93.1029 16.6087 90.8537 14.6489 90.3312 14.1933C87.6839 11.8853 87.5737 7.92708 85.3859 5.47451C83.8742 4.40011 80.4234 4.35393 78.6984 4.06728C75.5448 3.5433 72.8135 3.02008 69.6378 3.0458C68.5952 3.05421 67.3314 2.67862 66.3595 2.67177C64.1043 2.65601 62.0442 2.37165 59.8253 2.0497C57.4138 1.89737 54.7418 1.9411 52.3204 1.96865C49.4364 1.88624 47.1078 1.29568 44.1359 1.97841C43.7305 2.07149 42.8831 2.18351 42.5236 2.3163C40.3158 2.7852 36.6594 2.57381 35.2267 4.6122C34.8525 5.14502 34.3306 6.66934 34.1847 7.32314C33.7506 9.26758 33.447 11.2594 33.0079 13.2118C32.9377 13.524 32.8804 14.2265 32.9601 14.5507C33.1281 15.2339 34.0567 15.9068 34.6505 16.2274C36.2106 16.9424 38.2432 17.3414 39.9132 17.87C40.1295 17.9385 40.9541 17.9336 41.2111 17.9198C42.2247 17.8652 43.236 17.6075 44.2433 17.4852C44.5543 17.4479 45.1431 17.6718 45.4239 17.6317C46.8584 17.4252 48.7102 17.3885 50.0958 17.164C50.4228 15.9534 50.1475 14.2289 50.9474 13.661C51.2545 13.578 51.3257 13.5468 51.6446 13.6366C51.8534 13.8402 51.8821 14.277 51.8693 14.5526C51.7018 18.1542 50.415 21.0757 50.4152 24.7724C51.352 24.7595 57.7554 24.9219 58.1114 25.1327C58.3674 25.5481 58.1116 26.0521 57.7638 26.0868C55.4451 26.3165 52.1983 26.3006 49.9366 26.3983C49.8125 26.9258 49.1373 29.5145 49.1661 29.829L49.2364 29.8554C50.9332 30.4888 53.6098 35.0918 54.3263 36.7372C56.4602 41.6372 57.5847 44.535 57.4689 49.911C54.7611 52.4241 54.6298 51.2764 53.0314 48.8407C52.7652 48.4351 51.8862 47.8474 51.5011 47.3632C51.0431 47.699 50.4974 48.0424 50.1827 48.5243C49.2181 50.0015 48.7831 51.6844 49.0919 53.4257C49.7131 56.9282 50.8781 57.7556 53.9269 59.0067C54.3627 58.5245 55.6685 56.8251 56.2355 57.6356C57.1802 58.9866 55.343 60.926 53.8673 60.7519C52.2999 60.6922 50.448 59.4446 49.3693 58.3466C48.2669 57.2243 47.2509 53.6145 47.3859 52.0077C47.6468 48.9018 48.4657 46.3116 51.7452 45.5722C53.6942 46.1472 54.4358 47.4575 55.6368 49.038C55.5261 46.8247 55.5377 44.9066 54.7267 42.7782C53.3519 39.1698 52.2054 35.3763 49.5626 32.4364C49.0819 31.902 47.8781 31.3738 47.2394 30.9511C44.8647 32.4854 43.687 34.7385 43.1105 37.4364C41.6209 44.1741 42.8771 51.228 46.6017 57.037C48.7177 60.2721 52.872 64.6607 56.3009 66.6425C57.3457 67.2463 60.8174 68.2672 62.1095 68.5946C63.5506 68.9398 65.0352 68.9464 66.5021 69.0878C67.2458 69.1594 68.1696 69.5356 68.8888 69.4872C71.4408 69.3151 74.2871 68.4461 76.7872 68.3612C77.9187 65.9617 78.7962 63.8044 79.5294 61.2323C80.0194 59.5135 79.9165 58.0444 80.173 56.4325C80.9322 51.6615 80.5348 48.9751 78.6241 44.8671L78.2218 44.0253C77.2601 45.2013 75.8102 45.4498 74.6739 46.3495C74.3693 46.5924 74.7417 48.1841 74.5782 48.5038C73.0067 51.5731 68.4932 52.5924 65.7804 51.0507C66.1635 51.6351 66.657 52.427 67.1271 52.9169L67.1612 52.9628C68.6176 54.9241 68.2539 56.5199 70.9806 57.3886C72.1888 57.1165 72.8573 57.0447 73.7237 56.1073C74.6939 54.6534 73.8522 53.6137 74.6134 52.8407C75.0645 52.6169 75.6603 52.7422 75.8722 53.2069C76.7595 55.1536 75.1983 57.7974 73.4093 58.6649C72.4009 59.1538 70.5702 59.3474 69.5528 58.9315C66.7766 57.7374 66.6841 54.6147 64.7355 52.6239C63.8364 51.7054 62.1028 50.4718 62.671 49.1376C63.7556 48.0839 67.9853 50.6394 69.9845 49.9061C71.7591 49.255 74.5298 47.1002 71.5968 45.7811C69.7494 47.7901 68.1037 48.3773 65.6964 46.872C65.1547 46.6181 64.7146 46.4507 64.2814 46.0341L64.3468 45.9491C65.0489 45.9196 65.1959 46.0976 65.8859 46.2753C66.0935 46.2429 67.3299 46.2091 67.6144 46.1933C67.9846 45.9823 68.6799 45.4919 68.8732 45.1122L68.7892 44.9706C67.3813 44.8377 67.041 44.3506 66.214 43.2714C65.3576 42.1539 66.5233 40.4905 67.588 40.8114C68.0571 41.1209 68.0238 42.0623 68.1876 42.7128C68.8949 43.3795 70.5364 42.046 71.1886 41.6708C72.3728 40.9897 75.3892 39.959 73.0812 38.5028C70.3551 36.7827 68.4499 32.1495 71.2237 29.6561C71.6588 29.3677 72.1441 28.9185 72.6027 28.702C73.5722 28.2446 74.795 27.3718 75.3966 28.6942C75.384 28.9975 75.3835 29.5284 75.1105 29.6395C73.3659 30.3504 72.5008 30.0174 71.2101 31.8466C71.4627 34.9768 72.0952 34.6863 73.7286 36.913C73.4613 35.4451 72.9816 33.6132 73.8253 32.2792C74.4501 31.2918 75.5482 32.2388 76.0861 32.7392C76.3289 33.7565 76.5096 35.6736 75.9786 36.5888C75.9484 37.0342 75.9192 37.3189 75.9757 37.7685L76.0128 37.8534C76.6204 39.2844 75.3452 41.3998 74.2452 42.3046C73.8258 42.6496 72.6726 42.87 72.4386 43.3212C72.9676 44.1916 73.7954 43.3993 74.4318 43.3944C77.0923 43.3747 77.7221 40.725 79.5304 39.4628C79.5146 39.9233 79.4496 41.4251 79.5245 41.7958C79.9387 43.8412 81.2788 46.101 81.8663 48.1425C82.7991 51.3839 82.191 54.7778 81.7159 58.0077C81.3828 60.2729 81.283 61.7319 80.545 63.9491C81.7162 63.0898 83.0785 62.9149 84.295 61.6786C85.2733 60.6844 86.484 59.7277 87.2355 58.4872C87.5725 57.9152 87.7632 57.2512 88.132 56.7001C88.5328 56.1011 89.5148 55.9348 89.9093 55.3739C92.3972 51.8373 94.4676 47.9325 97.3312 44.6698C99.23 42.5055 100.59 40.1272 102.242 37.7968C102.638 37.1578 102.844 36.3486 103.19 35.6991C104.65 32.9513 107.305 24.2802 111.464 29.2099C113.001 31.0322 110.931 33.1422 110.121 34.7235C109.925 35.1072 109.734 35.5029 109.56 35.8964C112.477 35.8696 116.063 34.8364 118.746 35.1991C119.075 35.9491 119.691 37.4973 120.033 38.1181C120.642 38.373 121.23 38.5846 121.747 38.995L121.804 39.039C122.196 39.3492 122.401 39.6951 122.668 40.1093C122.944 40.7068 123.194 41.2513 123.506 41.831C123.89 41.9582 124.194 42.0372 124.526 42.2763C125.2 43.27 126.25 45.7368 125.033 46.2323C122.282 47.3519 116.617 47.9249 113.87 48.0448C113.022 47.9199 109.628 48.3246 108.588 48.4462C108.344 48.4747 107.867 48.696 107.661 48.8563C106.845 49.4918 105.983 51.4143 105.571 52.3944C103.319 56.589 101.586 60.6548 99.7872 65.0526C99.0167 66.9337 97.985 68.7043 97.3566 70.6591C96.8985 71.9187 97.6125 73.1109 97.1446 74.0438C95.7661 76.7919 94.2962 79.5111 92.8761 82.2421C92.4362 83.0865 91.5407 83.8569 91.2755 84.8104C91.0453 85.9117 91.4233 89.1802 91.6778 90.205H89.9093C89.6552 89.242 89.2537 85.2999 89.5216 84.2206C89.8215 83.3244 91.2446 82.192 91.5861 81.3769C92.6591 78.8127 94.5578 76.0055 95.34 73.4032C94.8856 72.8353 93.8732 71.5624 93.588 70.9813C92.1726 68.1002 89.1971 62.3252 88.4982 59.369C86.4281 61.7865 83.3325 65.2332 79.9562 65.5839C79.6769 65.7841 79.1519 66.9698 78.9679 67.3456C80.2477 66.5955 82.2058 65.5442 83.2833 64.662C83.4619 64.9628 83.5866 65.3212 83.713 65.6503C82.7253 68.2338 81.2611 70.7291 79.5382 72.8954C78.5239 74.1709 73.1981 80.4766 71.4864 78.8759C71.4805 78.8199 71.4733 78.7533 71.465 78.6767C72.335 78.0724 74.4667 77.051 75.1778 76.3446C77.0563 74.4788 78.8234 72.3031 80.2159 70.0692C80.5663 69.507 81.1624 67.9764 81.3976 67.3651C80.4794 68.1189 79.5226 68.6718 78.5382 69.3251C78.1278 69.5975 77.1159 70.6116 76.7071 70.664C76.4051 70.552 76.2583 70.2322 76.0773 69.9481C73.4118 70.8042 71.9597 70.8355 69.2081 71.0331C67.8138 71.286 66.2796 70.7509 64.9903 70.704C62.6661 70.6194 61.3193 70.2358 59.1515 69.5595C56.2315 68.6483 55.2816 68.364 52.9913 66.3612C53.3825 68.0359 55.6362 74.2284 56.5743 75.6405C56.9883 76.2636 57.84 77.4062 58.5958 77.5565C59.3609 76.9234 57.929 74.2848 58.5704 72.9413C58.8579 72.7096 59.3113 72.7001 59.4933 72.9716C60.6533 74.7024 60.0767 77.8071 60.2306 79.7821C61.6521 80.5444 62.7154 81.8413 64.0343 82.7616C64.9297 83.3864 66.2359 83.594 67.2003 84.079C67.5128 84.2361 68.3995 84.9577 68.756 85.202C70.6865 86.5249 71.3963 86.8176 73.5421 87.456C74.797 86.3305 75.5718 84.6443 76.6554 83.37C78.998 80.6151 81.0907 77.7422 83.505 75.0526L83.2882 75.6776C82.7959 77.0484 82.3661 77.8438 81.3185 79.0966C80.7995 79.74 80.3704 80.671 79.8468 81.289C77.6342 83.8999 76.3262 86.9189 74.3487 89.6981C73.5771 89.6843 70.6751 88.4133 69.8761 87.9677C68.5538 87.2309 67.2383 86.1357 65.8214 85.5145C64.9728 85.1425 64.1132 84.7569 63.2999 84.3163C63.096 84.1544 62.8957 84.0135 62.6798 83.869C61.7576 83.2525 60.9703 82.3775 60.0626 81.7519C59.4087 84.7464 58.5935 87.5392 57.0616 90.205H55.6769C56.0062 89.3146 56.6256 88.3899 56.9904 87.3964C57.8422 84.9519 58.9475 82.085 58.587 79.4716C57.8517 78.8211 57.0798 78.2249 56.3478 77.5692C54.4073 75.8312 54.0132 73.0444 52.9728 70.7313C52.4629 69.5975 51.7711 68.2214 51.3917 67.0204C48.2996 66.9913 45.9456 65.9237 43.2823 64.8231L42.1193 64.3524C41.675 65.711 41.5816 66.9133 41.3068 68.3036C41.048 69.6118 40.6939 70.8882 40.3038 72.162C39.5905 74.4911 38.2724 76.4065 37.4298 78.6903C38.7682 79.436 40.0327 80.7985 41.3536 81.6425C42.3923 82.306 43.4691 82.0939 44.5343 82.6015C45.4621 83.0317 46.083 84.0614 46.8956 84.6239C48.402 85.6622 50.6252 85.7343 51.8663 87.1776C52.4836 87.8956 52.4144 89.2721 52.8126 90.205H50.8409C50.3158 87.712 49.8562 88.2146 48.1681 87.0233L47.8136 86.7616C47.7018 87.6978 47.7739 89.2208 47.7921 90.205H46.3321C45.9762 88.6814 46.0464 87.8157 46.0607 86.2597C45.1623 85.4927 44.2324 84.6698 43.2892 83.9657C39.8718 83.753 38.5461 81.7821 35.9288 79.8212C34.9976 79.1233 35.3405 78.437 35.8946 77.6425C35.0467 76.8954 33.879 76.0518 33.1212 75.3065C32.1898 74.3309 31.3491 73.388 30.338 72.4882C29.1771 71.4551 27.8398 70.6643 26.6632 69.6835C23.5286 67.0706 20.286 64.5995 16.9611 62.2352C16.8762 62.1749 16.7163 62.1178 16.5509 62.0702L16.1095 61.9608C14.8696 62.5905 14.5268 62.8732 13.1437 62.8446C12.5275 62.2205 11.9783 61.5409 11.3712 60.913C10.6541 60.1712 9.7977 59.5268 9.01672 58.8446C8.71314 59.7617 8.54145 60.5862 8.55383 61.5565C8.57392 63.1332 9.54651 64.2763 9.83313 65.7987C9.73973 66.1879 9.57953 66.5484 9.42688 66.9179C8.85057 67.3228 8.17711 67.5684 7.4757 67.6317C6.89314 67.69 6.30479 67.6027 5.76477 67.3769C5.03777 67.0792 4.07866 66.2449 3.34094 65.8417C2.25441 65.2479 1.36695 65.0871 0.401484 64.3046C-0.0743251 63.2222 -0.11377 62.6888 0.212031 61.5976C2.45776 59.6257 3.09511 57.1783 4.99719 56.0048C4.45271 55.1807 3.57599 54.8598 3.86535 53.6981C4.52412 51.0542 6.9235 49.4467 7.88488 46.9501C7.47356 46.5492 7.13848 46.2125 6.78527 45.8261L6.42199 45.4188C5.75632 45.9673 5.07059 47.1765 4.17492 46.8319C3.24437 45.695 4.26312 42.7684 5.38391 41.9501C6.76014 40.9452 7.48307 41.0564 9.04406 41.1298C9.57166 40.3873 10.6162 39.5026 11.2638 40.4833C11.3738 40.6501 11.6103 40.8662 11.7579 41.0155C12.0203 40.8963 16.1366 32.9854 16.671 32.0429C19.9818 26.2053 22.8306 20.2604 24.9005 13.8651C25.2907 12.6595 26.1321 10.7352 26.5792 9.45595ZM15.5148 45.5604C15.0638 45.7575 14.8421 46.5117 15.1114 46.9188C16.0299 48.2541 17.1853 49.1928 17.9112 50.6981C18.4848 51.8888 17.2164 54.3412 16.1232 54.8905C15.1465 55.3811 14.5309 54.0361 14.2267 53.2938C13.5377 54.2661 10.4285 57.0973 10.3517 57.7509C10.5861 58.1308 11.1728 58.3784 11.5343 58.6952C12.2359 59.3044 13.0077 61.0158 14.1173 60.7147C16.144 60.1647 16.9953 59.2756 18.7247 61.0194C19.996 62.3012 21.8631 63.4631 23.298 64.6122C24.2144 65.3461 25.0937 66.1627 26.045 66.8847C27.846 68.545 29.3105 69.4904 31.2306 70.9716C32.2763 71.7785 33.4284 73.3614 34.4327 74.2411C35.3828 75.0732 36.1886 75.0184 36.8732 76.2333L37.0118 76.1659L37.13 75.7919C37.511 74.8251 38.4892 73.5323 38.7677 72.5145C39.1887 70.9758 39.5971 69.1419 39.8937 67.5653C40.1032 66.4521 40.1388 65.446 40.4239 64.2958C39.2346 63.4253 37.4938 62.7599 36.1359 62.0116C31.7637 59.6025 27.394 57.0219 22.8976 54.8769C22.4366 54.6568 19.9359 52.0075 19.5284 51.5038C19.3563 50.7026 19.4452 48.7059 18.9855 48.2118C18.3922 47.5743 16.8104 46.8993 16.2237 46.0819C16.0815 45.8837 15.7704 45.6015 15.5148 45.5604ZM109.091 29.579C108.281 29.5374 107.112 31.1792 106.841 31.829C105.527 34.0616 104.993 36.4203 104.032 38.7499C103.881 39.1169 102.669 40.5113 102.35 40.9403C100.568 43.3378 98.6791 45.6604 96.7687 47.955C95.1986 49.9178 93.9959 52.3681 92.6095 54.452C91.7239 55.7816 90.5099 56.6866 89.9132 58.2099C90.1413 60.0007 91.2101 61.8885 91.9152 63.5253C92.5223 64.9366 93.0329 66.2829 93.757 67.6552C94.3506 68.7789 95.0746 69.8511 95.5821 71.0048C96.5567 68.0882 97.9234 65.6052 99.128 62.8368C100.208 60.3543 105.081 48.1362 106.55 47.1278C107.668 46.3611 113.161 46.3996 114.808 46.2313C116.537 46.0557 118.259 45.8155 119.971 45.5106C120.871 45.352 123.278 45.0729 123.42 43.9852C122.619 43.3804 115.759 44.347 114.687 43.6405C114.459 43.139 114.689 42.282 115.385 42.3407C117.433 42.5135 119.459 42.1045 121.45 42.0604C121.091 41.3082 120.782 40.8487 120.311 40.1688C116.639 39.7613 115.215 40.8242 112.16 41.0175C111.733 40.7915 111.629 40.2809 111.815 39.8563C112.208 39.4578 117.181 38.5116 118.056 38.4335C117.86 37.8717 117.704 37.4146 117.552 36.8368C115.139 37.0586 113.016 37.0301 110.584 37.6474C109.603 37.8967 107.852 38.893 107.194 38.1649C106.727 36.7163 109.24 32.8427 109.888 31.4882C110.111 31.0217 109.932 30.6282 109.752 30.1727C109.563 29.9326 109.449 29.7476 109.204 29.6269L109.091 29.579ZM6.37414 56.2733C6.23004 56.6643 6.14516 56.9697 5.90148 57.2704L5.78625 57.3993C6.02106 57.4812 6.16469 57.4742 6.40734 57.4638L6.52551 57.5263C7.67705 58.1996 6.71765 59.6606 5.71691 59.164C5.37667 58.9949 5.36143 58.3956 5.12902 58.0663C4.56033 58.479 1.8508 62.0904 1.8009 62.8368C2.114 63.3901 3.39842 63.6644 3.95031 64.0331C4.73389 64.5567 6.49397 66.0627 7.47082 65.8876C7.51784 65.84 7.57034 65.7859 7.62902 65.7265C7.45329 64.8005 6.95253 63.7985 6.80676 62.8544C6.36374 59.9843 7.08489 59.8103 7.83117 57.6386C7.39379 57.0406 6.94938 56.7207 6.37414 56.2733ZM6.84582 51.5966C6.38573 52.4511 5.93313 53.3096 5.48937 54.1727C6.9154 54.5209 7.71129 55.5294 9.00109 56.0683C9.16383 56.0016 9.32664 55.9347 9.48938 55.8681C10.1345 55.287 10.5756 54.8931 11.0851 54.1825C9.75908 52.9124 8.65472 52.0255 6.84582 51.5966ZM8.98352 47.8974C8.69003 48.4794 8.27839 49.2444 8.05871 49.8368C9.38387 50.5795 11.342 51.7875 12.2736 52.9716C13.8521 51.0991 12.4966 50.4198 10.9874 49.1532C10.4957 48.7407 9.55518 48.2116 8.98352 47.8974ZM7.26769 42.8788C7.03115 43.0991 6.89736 43.1392 6.85852 43.4003L6.92492 43.4579C7.21109 43.7145 8.117 44.94 8.20324 44.9696C9.12819 45.2873 9.43342 45.9908 10.1866 46.5497C10.7856 46.994 11.5694 47.3978 12.1827 47.8436C13.3438 48.7267 15.3744 51.1432 16.0577 52.4364C17.4211 50.6122 11.2003 45.9512 9.84094 45.0038C9.1806 44.5435 8.06825 43.1056 7.26769 42.8788ZM30.4513 4.02822C29.8463 5.39764 29.3283 6.73116 28.7775 8.12001C28.4573 8.80103 27.9135 9.42695 27.6163 10.1132C27.2014 11.0713 27.0024 12.4626 26.5655 13.3739C25.1384 16.3508 24.4751 19.5495 23.0138 22.495C22.6385 23.2517 22.34 24.0831 21.9816 24.8524C20.8277 27.3293 19.4193 29.6779 18.2872 32.1649C18.1346 32.5007 17.1953 33.5628 17.1573 33.7186C16.7098 35.5516 12.1052 43.5068 12.1964 44.7265C12.3583 44.9745 12.3931 44.9981 12.6407 45.163C12.9366 45.2624 13.2761 45.3676 13.5587 45.4901C14.2366 43.9308 15.1159 42.697 16.0587 41.3007C17.8058 38.7135 19.2369 36.0943 20.7179 33.3642C22.3999 30.5131 24.0264 27.6677 25.4083 24.6561C25.8487 23.6964 26.5982 22.7023 27.006 21.744C28.1094 19.1516 29.2237 16.827 29.7023 14.0409C30.0728 11.8843 30.7477 9.9561 30.5353 7.67568C30.5036 7.11375 30.7122 4.26498 30.4513 4.02822Z" fill="#292728" fill-opacity="0.85"></path>
<path d="M83.0402 69.6942L83.2999 69.7401C85.1525 70.9466 78.15 78.0504 76.9386 78.6103C76.6927 78.6893 76.5898 78.7527 76.3497 78.6698L76.3019 78.5175C76.4709 78.0321 76.8843 77.6583 77.2374 77.2851C78.907 75.5205 80.4582 73.514 81.6681 71.4081C82.1203 70.6209 82.3126 70.2401 83.0402 69.6942Z" fill="#292728" fill-opacity="0.85"></path>
<path d="M73.8458 60.4374C73.9806 60.488 74.0446 60.5443 74.2091 60.6757C74.6885 61.731 73.3401 62.7543 72.5245 63.2177C71.6308 63.2296 71.2432 63.2532 70.4171 62.8476C69.9105 62.5266 69.5608 61.7306 70.0177 61.2704C70.7961 61.0712 71.6556 61.8364 72.2482 61.5028C72.585 61.313 73.3329 60.6543 73.6808 60.3856L73.8458 60.4374Z" fill="#292728" fill-opacity="0.85"></path>
<path d="M61.8712 34.0858C63.7485 34.4007 64.6512 38.8827 62.6056 40.0927C62.4858 40.1042 61.9967 40.1488 61.9152 40.1239C60.598 39.7219 60.6407 37.2195 60.798 36.1454C60.9388 35.184 61.1908 34.5826 61.8712 34.0858Z" fill="#292728" fill-opacity="0.85"></path>
<path d="M28.3732 38.7948C28.3772 38.8019 28.3806 38.8087 28.3849 38.8134L28.378 38.9774C28.3726 38.9505 28.3715 38.8868 28.3732 38.7948Z" fill="#292728" fill-opacity="0.85"></path>
<path d="M28.9542 28.5243L29.089 28.5556L28.9523 29.9833C28.8868 30.5086 28.6555 32.4654 28.8439 32.8251C29.3744 32.6659 29.6391 31.8451 30.3859 31.4423C30.4292 31.6461 30.4629 31.6267 30.3741 31.7597C29.9429 32.4057 29.2096 33.0337 28.7823 33.6649C29.2622 33.66 31.2711 33.5963 31.5411 33.7675C30.9145 34.3801 29.9526 33.7345 29.1154 34.1347L29.0099 34.2675C29.287 34.8647 29.5933 35.4925 29.8351 36.0995L30.4357 37.2362C29.5504 37.3713 29.4921 35.5019 28.7726 35.0946L28.5607 35.2304C28.5736 35.7777 28.3855 38.1002 28.3732 38.7948C28.1924 38.4765 28.3 35.818 28.3136 35.3544C28.3044 35.0891 28.3219 34.9383 28.1759 34.7108C27.5975 34.5601 27.0308 35.325 26.1075 35.6669C26.4984 35.265 26.9778 34.8473 27.3946 34.4276L27.3761 34.3134C27.0389 34.1973 26.697 34.0994 26.3995 33.9042L26.4454 33.7548C26.8099 33.5547 27.2683 33.5173 27.6847 33.454C27.3783 32.9655 26.6933 32.2081 26.7023 31.6278C27.2455 31.8648 28.0445 33.1898 28.4015 33.7352C28.3832 33.5295 28.3739 33.3226 28.3722 33.1161C28.3686 32.361 28.5292 31.4671 28.5997 30.7011C28.6564 30.0849 28.5458 28.9366 28.9542 28.5243Z" fill="#292728" fill-opacity="0.85"></path>
<path d="M61.3038 30.1278C61.5737 30.2443 61.9519 30.3608 62.2423 30.4179C63.5344 30.6713 66.3673 32.0637 64.6954 33.6356C63.7631 33.8873 62.7431 32.5627 61.8038 32.1571L61.754 32.1356C59.8918 31.3376 57.7655 34.0824 56.8624 33.3583C57.2828 31.1507 59.1956 30.4041 61.2374 30.0985L61.3038 30.1278Z" fill="#292728" fill-opacity="0.85"></path>
<path d="M16.7286 11.6015C17.2877 13.0121 17.1537 14.2275 17.3605 15.6962C17.4397 16.2584 17.7101 16.8614 17.5655 17.3798L17.6456 17.5136C18.1179 17.5782 19.3764 17.2594 19.8946 17.1454C20.2652 17.0283 20.5446 16.9066 20.9288 16.9589L20.9913 17.0604C20.716 17.2594 20.48 17.2827 20.1476 17.3515C19.07 17.8042 18.2475 17.7678 17.2345 18.0634C17.3164 18.3446 17.3853 18.5953 17.5079 18.8622C17.6256 19.1178 18.2577 19.8563 18.2765 20.0614C17.9343 19.7821 17.7974 19.6218 17.506 19.2851C17.3583 21.1388 17.629 22.3737 17.1788 24.1522C16.7888 22.3128 17.5665 20.6515 16.5909 18.663L16.339 18.5165C16.0857 19.0732 15.8698 19.6293 15.3771 20.0126L15.296 19.9413C15.4207 19.444 15.9425 18.8264 16.2765 18.4325C16.0355 17.8652 14.7309 16.4571 14.2823 15.7724L14.6974 15.9686C15.5945 16.428 16.0216 16.9121 16.6134 17.8329C16.8281 15.6829 16.6957 13.7211 16.7286 11.6015Z" fill="#292728" fill-opacity="0.85"></path>
</svg>