<svg width="29" height="43" viewBox="0 0 29 43" fill="none" xmlns="http://www.w3.org/2000/svg">
<path d="M18.5555 17.8399C18.559 17.9479 18.328 18.2306 18.1523 18.1738L18.1603 18.1623C18.2792 18.0401 18.4118 17.9319 18.5555 17.8399Z" fill="#EFDA6B"></path>
<path d="M18.6275 17.7807L18.5564 17.8337C18.4127 17.9256 18.2801 18.0338 18.1612 18.1561C18.1702 18.0057 18.3016 17.9298 18.4259 17.8149L18.6275 17.7807Z" fill="#EFDA6B"></path>
<path fill-rule="evenodd" clip-rule="evenodd" d="M12.0944 3.75577C12.726 3.80145 13.7185 3.9805 14.3492 4.07134L22.134 5.19286C22.488 5.24445 22.8418 5.29781 23.1946 5.35811C23.3686 5.38316 23.6499 5.41105 23.8159 5.4476C23.7437 5.44826 23.7 5.45298 23.6325 5.44162L23.602 5.43575C23.6 5.43546 23.5979 5.43516 23.5958 5.43485L23.68 5.51021L23.6765 5.53495C23.5868 5.541 23.4155 5.4974 23.3622 5.515C23.522 5.55065 23.6951 5.58192 23.8575 5.59899C23.9569 5.6133 24.0156 5.55855 24.107 5.58436L24.1034 5.6091C24.0572 5.66566 24.067 5.64181 24.0447 5.70814C24.1316 5.89766 24.1899 6.19689 24.2554 6.40231C24.468 7.12835 24.6352 7.86054 24.6586 8.62257C24.6621 8.68631 24.6931 8.91203 24.6886 8.94299C24.7017 9.20413 24.4814 10.7338 24.4022 10.9311L24.3853 10.9603C24.2742 11.1592 24.2475 11.3451 24.1727 11.5556C24.1218 11.6875 24.063 11.8163 23.9967 11.9412C23.3733 13.1986 22.5802 14.3649 21.6392 15.4075C21.4509 15.6143 21.243 15.8688 21.0112 16.0251C20.9314 16.1077 20.85 16.1888 20.7669 16.2681C20.5449 16.489 20.3006 16.6878 20.0626 16.8874C20.004 16.9422 19.948 16.9784 19.9018 17.0349C19.4435 17.5315 18.8812 17.9564 18.3209 18.3245C18.1948 18.4075 18.0011 18.5629 17.8742 18.6079C17.7186 18.9395 16.7825 19.6265 16.4796 19.9243C16.1874 20.192 15.7414 20.6462 15.443 20.8688C15.3902 20.9941 15.3462 21.123 15.3113 21.2544C15.3201 21.4137 15.3004 21.6385 15.3606 21.7926C15.6246 22.5134 16.0742 23.1787 16.491 23.8078L17.4123 25.2049C17.586 25.4512 17.7199 25.7107 17.9043 25.9712C18.1517 26.3229 18.3929 26.6738 18.5986 27.0511C18.6368 27.1159 18.7218 27.243 18.7557 27.3141L18.7617 27.3275L18.7628 27.3365L18.7623 27.3358C18.7751 27.5135 18.8737 27.5232 18.8841 27.6498C18.8849 27.6495 18.8858 27.6493 18.8866 27.649C18.8798 27.5237 18.7836 27.5077 18.7628 27.3365L18.7995 27.3891C19.1811 27.9445 19.6216 28.8428 19.907 29.4587C20.1778 30.053 20.3945 30.6703 20.5546 31.3032C20.629 31.4944 20.677 31.6949 20.6971 31.899L20.6978 32.064C20.6981 32.0639 20.6984 32.0638 20.6987 32.0636L20.7234 32.1321C20.844 32.4755 20.9152 32.8343 20.9349 33.1977C20.9056 33.2251 20.8975 33.2366 20.8638 33.2507C20.8271 33.2499 20.7905 33.2452 20.7548 33.2367L20.7395 33.2328L20.7363 33.2343C20.7367 33.2373 20.7371 33.2403 20.7375 33.2433L20.7449 33.2399L20.8692 33.2578L20.934 33.2039L20.9286 33.241C21.0047 33.5934 20.958 34.4465 20.9089 34.8314C20.8437 35.2835 20.6941 35.8816 20.59 36.3407C20.5834 36.3671 20.5773 36.3942 20.5712 36.4216C20.559 36.4943 20.5422 36.5687 20.5098 36.6385C20.5013 36.6595 20.4917 36.6801 20.481 36.7002C20.2508 37.599 19.9507 38.3349 19.6213 38.8972C20.0246 39.0018 21.0105 39.1899 21.2412 39.172C21.2693 39.1458 21.2851 39.1156 21.2923 39.0828C21.3204 38.9122 21.1225 38.6636 21.1982 38.502L21.2444 38.4897L21.5507 38.4326L21.5444 38.4317C21.5685 38.3087 21.6043 37.9725 21.7029 37.9045C21.8576 37.8004 23.0538 38.1244 23.3156 38.1558L23.3139 38.2272C23.3078 38.3948 23.2863 38.568 23.2512 38.7345C23.3444 38.7479 23.4661 38.7401 23.5433 38.7765C23.584 38.8456 23.5911 38.8846 23.5689 38.9509L23.5582 39.0252L23.5012 39.1561L23.4318 39.3738C23.4691 39.4676 23.5728 39.628 23.5399 39.7244C23.5173 39.7732 23.4779 39.8124 23.4288 39.8348L23.4013 39.8941C23.2459 40.0191 23.064 40.1075 22.8694 40.1525C22.5595 40.1466 22.2476 40.0872 21.942 40.0347L21.8114 40.0128L20.109 39.7676C19.9408 39.7433 19.7726 39.7189 19.6045 39.6942L19.1 39.6199C19.0983 39.6218 19.0966 39.6237 19.0949 39.6256C19.4327 39.6755 19.7704 39.7251 20.1082 39.7737L21.8105 40.019L21.8758 40.0287C22.2029 40.0791 22.5365 40.152 22.8694 40.1525L22.82 40.1694C22.7717 40.1871 22.7282 40.2081 22.7042 40.2425L22.7015 40.2611L22.6136 40.2548L22.6945 40.2664L23.0707 40.3838L23.1834 40.5265C22.8754 40.4189 22.357 40.4075 22.0215 40.3592L21.2635 40.25C21.6798 40.3099 22.0899 40.369 22.5115 40.3918C22.6396 40.4102 22.7787 40.4303 22.9111 40.4285L22.9375 40.4279C22.7982 40.4268 22.6499 40.3991 22.5062 40.3847C22.0926 40.3504 21.6816 40.2975 21.2653 40.2376L18.8222 39.8857C18.8156 39.8911 18.809 39.8965 18.8023 39.9018L22.0206 40.3653C22.3561 40.4137 22.8745 40.4251 23.1825 40.5327L23.1708 40.6574L23.1557 40.6742L23.1549 40.6805L23.1255 40.7521C23.0739 40.807 23.0235 40.863 22.9744 40.92L22.9887 40.9537C22.9867 40.9536 22.9847 40.9534 22.9828 40.9533C23.0249 41.0101 23.0178 41.1035 23.0071 41.1776L22.9929 41.2767C22.9547 41.3217 22.9156 41.373 22.8614 41.3968L22.8552 41.3959C22.7913 41.3994 22.7282 41.3966 22.6785 41.4337C22.6696 41.4956 22.6766 41.5346 22.7183 41.5975C22.7857 41.702 22.8505 41.7809 22.8824 41.9119C22.8609 42.1048 22.835 42.2845 22.7284 42.4524L22.7071 42.4683C22.6816 42.4731 22.6558 42.4757 22.6298 42.4762C22.3946 42.4802 22.0271 42.4778 21.8266 42.3289C21.7583 42.2748 21.6989 42.203 21.6377 42.1436C21.617 42.1008 21.6064 42.0539 21.6067 42.0064C21.6006 41.7842 21.7472 41.6473 21.8893 41.4971L21.8947 41.4599C21.9302 41.4334 21.9471 41.4042 21.9711 41.3697L21.964 41.3308C21.8775 41.2769 21.1041 41.1518 20.2139 41.0213L19.8269 40.9652C18.7836 40.8158 17.6956 40.6717 17.4162 40.6315L17.4139 40.6311C17.4126 40.6309 17.4112 40.6307 17.41 40.6306L14.5916 40.2057C14.4446 40.2067 14.295 40.1914 14.1473 40.17C14.0729 40.1594 13.999 40.1472 13.9261 40.1347L13.7133 40.0981L12.3837 39.9066C11.8644 39.8382 11.3453 39.7682 10.8264 39.6966C10.8012 39.6932 10.7761 39.6896 10.7509 39.6861C10.5626 39.6601 10.3743 39.6339 10.186 39.6074C10.0607 39.5898 9.93538 39.5721 9.81009 39.5543C9.63155 39.5289 9.45299 39.5034 9.27451 39.4777C9.2372 39.4723 9.19985 39.467 9.16253 39.4618C9.13563 39.458 9.10871 39.4542 9.0818 39.4504C8.83201 39.4158 8.58192 39.383 8.33226 39.3474C8.19171 39.3275 8.05125 39.3067 7.91107 39.2842L7.77096 39.2611L3.76092 38.7024C3.10769 38.6147 2.4624 38.5155 1.80914 38.4719L1.43904 38.3996L1.58444 38.6229C1.62998 38.7032 1.66031 38.7911 1.6739 38.8823C1.66228 39.0071 1.65685 39.1328 1.58931 39.2495C1.39131 39.3474 1.2199 39.4365 0.997976 39.4804C0.78497 39.4624 0.668718 39.3887 0.504616 39.2513C0.427795 39.1757 0.373498 39.0803 0.347724 38.9758L0.340644 38.9368C0.317776 38.6554 0.445652 38.56 0.603808 38.3425C0.539042 38.3079 0.456508 38.2644 0.400626 38.2121C0.359684 38.1763 0.326497 38.1325 0.303033 38.0835C0.279569 38.0345 0.266326 37.9812 0.264146 37.9269C0.264214 37.8384 0.331723 37.7217 0.391238 37.6607L0.416114 37.6643L0.417002 37.6582L1.2717 37.8002C1.5912 37.8715 1.9152 37.9119 2.24448 37.9593L3.68589 38.1669C5.06338 38.378 6.44268 38.5767 7.81751 38.762L8.16641 38.8164C8.98067 38.9421 9.79623 39.0589 10.6124 39.171L10.6401 39.1776C10.8439 39.188 11.0523 39.2406 11.2639 39.2711L12.4879 39.4474L12.5587 39.4581C12.7263 39.4842 12.9076 39.5166 13.0745 39.513C13.0291 39.5055 12.9835 39.499 12.9378 39.4933L13.0053 39.465L13.0098 39.4341L12.9415 39.38L13.3022 39.4323C13.6643 39.4857 14.0294 39.543 14.3856 39.6133C14.5835 39.6481 14.7832 39.7148 14.982 39.7435C15.2119 39.7766 15.4507 39.7477 15.6743 39.78L16.2317 39.8729L16.8468 39.9615L17.011 39.9855C17.1763 40.0102 17.3447 40.0379 17.5151 40.0767C17.5808 40.0967 17.662 40.132 17.7308 40.1459C17.724 40.1416 17.7173 40.1372 17.7108 40.1326C17.6452 40.1155 17.5744 40.0886 17.5098 40.0697C17.3211 40.0314 17.1276 39.9924 16.9323 39.9617L16.8485 39.9491C16.6435 39.9196 16.4367 39.9024 16.2264 39.8658C16.04 39.8389 15.8625 39.7944 15.6752 39.7738C15.4516 39.7416 15.2127 39.7704 14.9829 39.7373C14.7841 39.7087 14.5844 39.6419 14.3865 39.6071C13.907 39.5182 13.4255 39.4404 12.9424 39.3738C12.7548 39.3563 12.5657 39.3243 12.3815 39.2894L12.1991 39.2541L9.53148 38.8825C9.17114 38.8306 8.55519 38.7039 8.22676 38.6945C7.51028 38.5546 6.77873 38.5191 6.06291 38.3746L5.99369 38.3603C4.93448 38.2392 3.86379 38.0661 2.80286 37.9133C2.31205 37.8426 1.81854 37.7462 1.32859 37.7136L1.34103 37.7154L1.14839 37.7319C1.1883 37.7629 1.23003 37.7816 1.28414 37.802C0.999776 37.7516 0.714838 37.7042 0.429441 37.6599C0.46225 37.652 0.449863 37.6502 0.480918 37.6547L0.688608 37.6657C0.662136 37.6434 0.629868 37.631 0.596824 37.6205L0.563735 37.6103C0.606573 37.627 0.647048 37.6412 0.67617 37.6639L0.46848 37.6529C0.437427 37.6484 0.449822 37.6502 0.417002 37.6582L0.392126 37.6546L0.441037 37.5794L0.494915 37.5872L0.4552 37.5688C0.354297 37.54 0.251314 37.5189 0.147227 37.5055L0.0549877 37.4416L0.0471151 37.2761C0.0560116 37.2143 0.0975323 37.1887 0.145315 37.1641C0.143395 37.1637 0.141446 37.1633 0.139525 37.163L0.142508 37.1616L0.134165 37.1559C0.139106 37.1569 0.144114 37.1578 0.149055 37.1587L0.410347 37.0439L0.405045 36.9926L0.411294 36.9935C0.633163 37.0381 0.874638 37.035 1.09918 37.061L1.17998 37.0779C1.19654 37.0813 1.21316 37.0844 1.22974 37.0876C1.18812 37.0795 1.14663 37.0709 1.10537 37.0619C1.42494 37.0447 1.85362 37.1507 2.17668 37.1972L5.58204 37.6877L5.55343 37.671L2.18466 37.1857C1.85539 37.1383 1.43115 37.0455 1.10627 37.0556C0.876395 37.0225 0.640242 37.0328 0.405942 36.9864L0.330535 36.9376C0.24562 36.8789 0.173461 36.8036 0.118455 36.7163C0.0634586 36.6291 0.0267113 36.5317 0.0104439 36.43C-0.00370133 36.3521 -0.0124823 36.237 0.0461294 36.1822C0.13853 36.0691 0.316015 36.1579 0.443838 36.151C0.498947 36.0325 0.446718 35.8669 0.419285 35.7492C0.407079 35.6681 0.397661 35.5866 0.391055 35.5049C0.480119 35.5043 0.569192 35.5023 0.658198 35.4991L0.88017 35.4552L0.912283 35.2322C0.962937 35.1447 0.995901 35.0041 1.07936 34.9529L1.1989 34.9752C1.53452 35.0368 2.22365 35.1596 2.3494 35.2496C2.39634 35.3638 2.37849 35.4877 2.38639 35.6089C2.37747 35.6709 2.37391 35.6957 2.41026 35.7515C2.54423 35.834 2.68552 35.69 2.78572 35.8309C2.81309 35.9929 2.69929 36.2104 2.5989 36.335C2.58095 36.3548 2.56134 36.3732 2.54029 36.3898L2.55 36.4544C2.83838 36.654 4.21412 36.7889 4.63307 36.8303L4.65444 36.8384C4.7346 36.8461 4.81336 36.8637 4.89135 36.8865C4.90051 36.875 4.90948 36.8636 4.91848 36.8525C4.62457 36.1951 4.44726 35.2117 4.48282 33.962C4.47856 33.9318 4.4736 33.9057 4.46744 33.8856C4.46646 33.8027 4.46688 33.7198 4.46845 33.637C4.47014 33.5365 4.47351 33.444 4.47907 33.3474C4.48428 33.2526 4.49125 33.1578 4.49982 33.0632C4.50106 33.0485 4.50224 33.0336 4.50355 33.0184C4.54967 32.574 4.61968 32.1324 4.71316 31.6956C4.71705 31.692 4.72074 31.6881 4.72433 31.6842C4.75194 31.5596 4.78138 31.4354 4.81281 31.3117L4.80751 31.3046C4.93832 30.7843 5.20241 30.2 5.52861 29.6215C6.01641 28.7513 6.64517 27.8965 7.17426 27.2895C7.35269 27.0844 7.58826 26.8493 7.79733 26.6427C8.38228 25.9893 8.93938 25.4833 9.36094 25.2203C9.59893 25.021 9.83584 24.8194 10.0531 24.6064C10.1774 24.5357 10.5585 24.1797 10.7077 24.0684C11.1082 23.7089 11.5923 23.3424 12.0151 23.005C12.4873 22.6306 12.8946 22.2509 13.3174 21.8579C13.5124 21.551 13.6612 21.3353 13.7429 21.2881C13.8494 20.8222 13.503 20.4909 13.3167 20.0441L13.3079 20.0175L12.9506 19.416C12.5065 18.625 11.9531 17.8877 11.4681 17.1161C10.335 15.2965 9.11139 13.4449 8.4649 11.373C8.27805 10.7771 8.16935 10.0786 8.04198 9.46603C7.9659 9.11368 7.99637 8.68183 7.97267 8.31806C7.97229 8.31409 7.97199 8.30968 7.97179 8.30484L7.97145 8.28911C7.97036 8.29431 7.96937 8.29956 7.96827 8.30477C7.94622 8.10561 8.17008 6.63955 8.23591 6.44668L8.23253 6.48046C8.23603 6.46716 8.23919 6.45611 8.2421 6.44757C8.40058 5.78761 9.11191 4.10724 9.64304 3.67796L9.77622 3.63393L9.79375 3.63651L9.86689 3.60982C9.86333 3.609 9.85971 3.60829 9.85615 3.60747C9.86453 3.60748 9.87301 3.60765 9.88153 3.60798L9.90734 3.60935C9.88998 3.60812 9.87287 3.60743 9.85615 3.60747L9.77003 3.63303L9.63685 3.67707L9.58888 3.65751C9.57299 3.54775 9.5881 3.53094 9.65117 3.4452C9.69107 3.43576 9.73058 3.42464 9.76955 3.41194L10.0107 3.45908C10.1026 3.49351 10.2566 3.5184 10.4225 3.54099L10.5905 3.56309C10.3678 3.53261 10.1359 3.50206 10.0107 3.45908C10.2695 3.49636 11.1064 3.59208 11.3408 3.65012L11.3474 3.64526C11.5337 3.6721 11.8586 3.70626 12.0432 3.74549L12.0618 3.74817L12.0761 3.75177C12.0816 3.75304 12.0877 3.75437 12.0944 3.75577ZM15.0239 39.7924C14.951 39.7821 14.8787 39.774 14.8077 39.77L14.7565 39.7679L14.8466 39.7883C14.9683 39.8149 15.0921 39.8377 15.2169 39.858C15.0642 39.8328 14.9123 39.804 14.7627 39.7688C14.849 39.7714 14.9364 39.7802 15.0239 39.7924ZM17.611 40.1849C17.5323 40.1811 17.4467 40.1671 17.3647 40.1518L16.9086 40.0905L19.7188 40.4953L19.8026 40.5077C19.9744 40.5339 20.1499 40.564 20.3214 40.5805L20.3946 40.5866C20.1901 40.5694 19.9798 40.5229 19.7787 40.4915L19.7331 40.4847L18.2233 40.2673L17.611 40.1849ZM22.0524 40.8188C22.2382 40.8457 22.4343 40.8862 22.6304 40.916L22.6367 40.9169C22.4596 40.89 22.2825 40.8543 22.1129 40.8278L22.0567 40.8194C22.0553 40.8192 22.0538 40.819 22.0524 40.8188ZM20.4766 40.592C20.6387 40.6231 20.8026 40.6496 20.9674 40.6736C20.8035 40.6497 20.6404 40.6233 20.4786 40.5921C20.4779 40.5921 20.4773 40.592 20.4766 40.592ZM17.7627 40.1709C17.7644 40.1706 17.7663 40.1704 17.768 40.1701L17.7699 40.1673C17.7683 40.1665 17.7667 40.1657 17.7651 40.1649L17.7627 40.1709ZM18.2329 40.1962C18.3711 40.2218 18.5088 40.2515 18.6352 40.2697L18.6361 40.2635C18.6249 40.2595 18.6136 40.2557 18.6022 40.2521C18.4906 40.2351 18.3706 40.2125 18.2494 40.1922C18.2439 40.1936 18.2384 40.1949 18.2329 40.1962ZM6.83319 38.4621C6.5635 38.4229 6.27777 38.37 5.99807 38.3609C6.2821 38.3702 6.57146 38.4309 6.85103 38.4711C6.84634 38.4681 6.84032 38.4651 6.83319 38.4621ZM15.6808 39.724C15.4977 39.6983 15.3112 39.6959 15.1273 39.6757C15.3084 39.7005 15.4929 39.7032 15.6808 39.724ZM17.0165 39.9451C17.0867 39.9561 17.1552 39.9666 17.2162 39.9753C17.1555 39.9667 17.0869 39.9561 17.0165 39.9451ZM16.5692 39.8722C16.5637 39.8713 16.5583 39.8705 16.5531 39.8696L16.517 39.8639C16.5321 39.8663 16.5496 39.8691 16.5692 39.8722ZM15.7417 39.7332C15.9878 39.7718 16.2268 39.8275 16.4749 39.8574L16.517 39.8639C16.5026 39.8617 16.4906 39.8596 16.4811 39.8583C16.2317 39.8223 15.9901 39.7711 15.7417 39.7332ZM12.6494 39.2594C12.7141 39.2689 12.7788 39.286 12.8155 39.3303C12.8134 39.33 12.8114 39.3297 12.8093 39.3294C12.8114 39.3298 12.8134 39.3302 12.8154 39.3306L12.8155 39.3303C12.7819 39.2855 12.7165 39.2689 12.6494 39.2594ZM23.0025 40.7885C23.0035 40.7896 23.0046 40.7906 23.0056 40.7917L23.0705 40.7378L23.0025 40.7885ZM15.704 39.7274L15.6886 39.7251C15.6877 39.725 15.6868 39.7248 15.686 39.7247C15.692 39.7256 15.698 39.7265 15.704 39.7274ZM6.79788 38.356C6.54937 38.3202 6.31498 38.318 6.07179 38.2893C6.07184 38.2915 6.07198 38.2936 6.07207 38.2956C6.32193 38.3189 6.55506 38.3273 6.79788 38.356ZM11.9493 39.0916C10.4535 38.8817 8.94826 38.6366 7.44299 38.438C8.94835 38.6367 10.4542 38.8827 11.9546 39.0988L13.8154 39.3625C14.3094 39.4281 14.8751 39.5097 15.3761 39.5838L17.5545 39.8926L17.5536 39.8893L11.9493 39.0916ZM18.6065 40.0392C18.6054 40.0399 18.6043 40.0406 18.6031 40.0413L23.135 40.6839L18.6065 40.0392ZM6.52816 38.1148C6.04358 38.045 5.53858 37.9407 5.05574 37.9027L5.04949 37.9018C5.07798 37.9084 5.10663 37.9146 5.13526 37.9208C5.59753 37.9598 6.07024 38.0615 6.52019 38.1263L6.84946 38.1738L6.73637 38.1579C6.4927 38.1248 6.24745 38.0972 6.00347 38.0671C6.28473 38.1054 6.56781 38.1395 6.84857 38.1799L11.7601 38.8874C11.7238 38.8794 11.6876 38.8713 11.6516 38.8629L11.5437 38.8373L6.52816 38.1148ZM4.15828 37.7944C4.06683 37.7833 3.97519 37.7708 3.88362 37.7574C3.97555 37.7709 4.06723 37.7834 4.15828 37.7944ZM3.00368 37.6198C3.20911 37.6494 3.41784 37.6843 3.62638 37.7176C3.41912 37.6845 3.21284 37.6499 3.00987 37.6207C2.88517 37.6027 2.76057 37.5847 2.63608 37.5667C2.75878 37.5844 2.88135 37.6022 3.00368 37.6198ZM13.4443 39.111C13.3621 39.1064 13.2795 39.1008 13.1967 39.0943L17.5261 39.7179L17.5249 39.6988L13.4443 39.111ZM4.43805 37.7981C4.4816 37.8082 4.52406 37.8194 4.56489 37.832L4.57108 37.8329C4.5285 37.8198 4.48391 37.8083 4.43805 37.7981ZM3.12718 37.5849C3.3538 37.623 3.57958 37.6617 3.80428 37.6972C3.80571 37.6974 3.80717 37.6975 3.8086 37.6977C3.58097 37.6618 3.35374 37.623 3.12718 37.5849ZM2.41927 37.4724C2.535 37.4891 2.65059 37.5069 2.76596 37.5254C2.70891 37.5162 2.65189 37.5072 2.59493 37.4985L2.42237 37.4728C2.42135 37.4727 2.42029 37.4725 2.41927 37.4724ZM1.58083 37.3211C1.50089 37.3127 1.42275 37.3085 1.34844 37.3118C1.35623 37.3138 1.36412 37.3155 1.37196 37.3175C1.43928 37.3127 1.50937 37.3148 1.58083 37.3211ZM6.38014 37.8659C5.98074 37.821 5.58305 37.808 5.18808 37.7764C4.81174 37.7475 4.43183 37.6991 4.05017 37.6631C3.89297 37.6447 3.71019 37.6402 3.53895 37.6151C3.71244 37.6411 3.89916 37.6457 4.06261 37.6648C4.43805 37.7 4.81175 37.7475 5.18808 37.7764C5.58926 37.8089 5.98606 37.8281 6.38014 37.8659L6.6002 37.8981C6.52698 37.8865 6.45361 37.8758 6.38014 37.8659ZM2.20978 37.4232C2.21111 37.4234 2.21245 37.4237 2.21378 37.4238L3.31046 37.5629C3.31031 37.5628 3.31013 37.5628 3.30998 37.5627L2.20978 37.4232ZM9.3907 38.247C9.06408 38.1997 8.73801 38.1573 8.41625 38.1276C8.22808 38.1131 8.04161 38.1747 7.86055 38.155C7.84901 38.1537 7.83747 38.1523 7.82598 38.1507C7.83956 38.1526 7.85316 38.1544 7.86674 38.1559C8.05312 38.1827 8.23427 38.114 8.42244 38.1285C8.74336 38.1582 9.06733 38.2003 9.3907 38.247ZM3.1325 37.4039C3.13966 37.4071 3.14678 37.4104 3.15381 37.4138L3.27986 37.4636L3.16006 37.4147C3.14515 37.4082 3.13 37.4021 3.11472 37.3962L3.1325 37.4039ZM2.38343 37.2586C2.17246 37.2282 1.95771 37.2019 1.74353 37.1719C1.96084 37.2024 2.17718 37.2289 2.38968 37.2595C2.41303 37.2629 2.43679 37.2659 2.46079 37.2689C2.43467 37.2655 2.4088 37.2623 2.38343 37.2586ZM6.09012 37.7609L10.0323 38.3288L9.98884 38.3098L6.11065 37.7512C6.10392 37.7546 6.09709 37.758 6.09012 37.7609ZM15.2727 39.0628C16.0277 39.1696 16.7817 39.2812 17.5353 39.3935C17.5355 39.3914 17.5358 39.3893 17.536 39.3871C16.9784 39.3038 16.4208 39.2207 15.8632 39.1395L15.3056 39.059C15.2947 39.0602 15.2837 39.0615 15.2727 39.0628ZM17.6694 38.4362L17.7166 38.443C17.7191 38.4325 17.7216 38.422 17.7242 38.4114C17.706 38.4197 17.6877 38.428 17.6694 38.4362ZM7.60521 36.8018L7.60347 36.8139C7.62412 36.8161 7.64414 36.8181 7.66337 36.8203C7.65819 36.8156 7.65297 36.8109 7.64781 36.8062C7.63397 36.8047 7.61974 36.8033 7.60521 36.8018ZM13.7804 14.7117C13.4813 14.6307 13.1671 14.6107 12.8627 14.5669L12.1784 14.4747C11.8926 14.4335 11.6201 14.3879 11.3387 14.36C11.2021 14.3404 10.1403 14.1874 10.1068 14.1952C10.1192 14.2413 10.1227 14.2608 10.1564 14.2909L10.1971 14.4042L10.2299 14.4848C10.3088 14.6858 10.4339 14.8303 10.534 15.0154L10.6653 15.2493C10.7167 15.3326 10.7681 15.4159 10.8408 15.4832C10.8843 15.5781 11.2185 16.1193 11.2797 16.1787C11.343 16.2945 11.4214 16.4015 11.5129 16.4967C11.5945 16.5907 11.598 16.6987 11.6574 16.8147C11.7088 16.898 11.7407 16.9847 11.7993 17.0627C11.8464 17.1637 11.9076 17.2577 11.981 17.3418C12.0811 17.4605 12.1732 17.5858 12.2568 17.7166C12.2781 17.7449 12.3667 17.922 12.3844 17.931L12.5627 18.1905L12.6541 18.3049C12.7156 18.4024 12.7825 18.4965 12.8545 18.5866C12.9121 18.715 12.9688 18.7612 13.0469 18.8799C13.1284 19.0181 13.2347 19.3368 13.3172 19.4246L13.3704 19.4955L13.6124 20.0171L13.7888 20.3333L13.8296 20.4024L13.8765 20.5167C13.9869 20.7074 14.0475 20.9227 14.0527 21.1427C14.0346 21.6205 13.974 21.9532 13.7287 22.3794C13.695 22.4377 13.5554 22.7022 13.5492 22.7455C13.4665 22.879 13.4024 23.1036 13.3589 23.1859C13.336 23.2919 13.3001 23.3867 13.2581 23.4777L13.0598 24.1779C13.0635 24.1969 13.0662 24.2186 13.067 24.2439C13.0536 24.2614 13.0402 24.2776 13.0271 24.2932L13.0163 24.3315L10.8577 26.5494L7.83644 29.5546C7.35889 30.5243 6.95524 31.5375 6.81492 32.4711C7.86836 32.6924 9.82284 34.3915 12.4948 34.7763C14.7657 35.1034 17.0846 34.6193 18.5322 34.6431C18.7304 33.2126 18.3986 31.4374 18.0356 29.8912C17.5359 29.104 17.0097 28.0936 16.532 27.0496L16.4372 26.8404C16.4361 26.8425 16.4349 26.8446 16.4337 26.8468L16.4313 26.8272C16.28 26.4902 16.1343 26.1511 15.9966 25.8162L15.0698 23.8559L15.0707 23.8498L15.0214 23.0015C14.8855 22.4686 14.8232 22.0458 14.8592 21.7962L14.86 21.79L14.8616 21.7798L14.8423 21.7811L14.9389 21.1104C14.9471 21.0529 14.9495 21.0083 14.9591 20.97L14.9895 20.7592L15.7515 20.2662C15.9 20.104 16.0834 19.9046 16.1921 19.8071L16.2045 19.8089C16.3048 19.7728 16.3235 19.7754 16.3918 19.6967C16.438 19.6402 16.5233 19.5766 16.582 19.5218C16.9577 19.1144 17.4382 18.8612 17.8246 18.468C17.92 18.3703 18.022 18.2794 18.1301 18.1959L18.2171 18.2084C18.3395 18.2387 18.3912 18.0565 18.5279 18.0319L18.5701 18.0189C18.6058 18.008 18.626 18.0002 18.6646 17.9631L18.6825 17.8392C18.7831 17.7385 18.8899 17.6441 19.0022 17.5566C19.4392 17.2086 19.8203 16.8082 20.2254 16.4177C20.2831 16.3691 20.364 16.248 20.4146 16.2047C20.5585 16.0864 20.6286 16.0395 20.7761 15.8964C20.7664 15.8318 20.7655 15.838 20.7415 15.784C20.6768 15.7494 20.7007 15.7592 20.6173 15.7661C20.5676 15.759 20.5303 15.7535 20.4851 15.7597C20.2951 15.7576 20.1025 15.6413 19.9161 15.6145C18.2209 15.3197 16.5079 15.1488 14.8136 14.8479C14.6148 14.8193 14.3804 14.7729 14.1781 14.769L14.0066 14.9024L14.0075 14.8962C13.9304 14.8156 13.902 14.7482 13.7804 14.7117ZM4.53887 33.0926C4.53889 33.0925 4.53892 33.0923 4.53894 33.0922C4.53772 33.0906 4.53665 33.089 4.53556 33.0872C4.53662 33.0892 4.53769 33.0909 4.53887 33.0926ZM20.5968 32.1989C20.5895 32.2621 20.6171 32.3144 20.6373 32.3714C20.6191 32.3133 20.5897 32.2608 20.5979 32.191L20.5968 32.1989ZM20.2433 31.0405C20.2844 31.1755 20.324 31.3112 20.3617 31.4474C20.3445 31.3476 20.3101 31.2452 20.2919 31.1452C20.2795 31.0877 20.2628 31.0593 20.2433 31.0405ZM23.7835 8.22467C23.7762 8.26864 23.7607 8.31087 23.7375 8.349C23.7214 8.37552 23.7018 8.39965 23.6794 8.42095L23.6776 8.43323C23.7 8.41195 23.7196 8.38788 23.7357 8.36139C23.76 8.32146 23.776 8.27707 23.7828 8.23087L23.7835 8.22467ZM22.4666 5.52509C19.8114 5.19163 17.1738 4.73609 14.5222 4.3781C17.0908 4.72559 19.6449 5.17455 22.2176 5.49453L22.4666 5.52509ZM10.8341 3.77235C11.168 3.82225 11.5333 3.91299 11.8553 3.95821C11.5328 3.91241 11.169 3.82173 10.8341 3.77235ZM10.4693 3.73876C10.4794 3.74303 10.4911 3.74737 10.5042 3.75175C10.4977 3.74954 10.4916 3.74736 10.4858 3.74521L10.4696 3.7388L10.4693 3.73876ZM9.90956 3.6193C10.0488 3.65249 10.2008 3.67892 10.3581 3.69878L10.4258 3.70687C10.2742 3.68878 10.1234 3.66413 9.97366 3.63304L9.90956 3.6193ZM11.1192 3.68827C10.8707 3.65248 10.765 3.63725 10.5174 3.68376C10.5068 3.68615 10.4959 3.68794 10.4846 3.68922C10.498 3.6883 10.5111 3.68691 10.5236 3.68466C10.7713 3.63816 10.8698 3.65867 11.1254 3.68917L11.1219 3.6697L11.1192 3.68827ZM13.3969 4.06401C13.5118 4.08182 13.763 4.13861 13.8183 4.14657L14.8594 4.31554C14.9048 4.32292 14.9503 4.3299 14.9958 4.33668C14.9524 4.33018 14.9089 4.32347 14.8655 4.31643L13.8245 4.14746C13.7729 4.14003 13.5106 4.08059 13.3969 4.06401ZM11.7087 3.74794C11.6326 3.73743 11.4803 3.72788 11.4237 3.73212C11.3048 3.74027 11.1859 3.74422 11.067 3.74441C11.1955 3.74509 11.32 3.74165 11.4361 3.73392C11.4871 3.72876 11.6404 3.74441 11.7107 3.74829C11.71 3.74814 11.7093 3.74806 11.7087 3.74794ZM19.9846 4.97106C19.7502 4.94079 19.5158 4.91039 19.2813 4.8766C19.2275 4.86755 19.1737 4.8588 19.1199 4.85028L18.9589 4.82535C19.0639 4.84291 19.1691 4.86161 19.2742 4.88188C19.3926 4.89789 19.5111 4.91298 19.6295 4.92768L19.9846 4.97106ZM22.8165 5.38582C22.8168 5.38563 22.8172 5.38548 22.8176 5.3853C22.7995 5.38026 22.7813 5.37543 22.7631 5.37078C22.7809 5.37558 22.7987 5.3806 22.8165 5.38582ZM12.4847 3.85261C12.2015 3.81688 11.9152 3.77889 11.7825 3.75967C11.9111 3.77839 12.1975 3.81641 12.4825 3.85236L12.4847 3.85261ZM11.3852 3.67121C11.4751 3.71222 11.565 3.71876 11.6652 3.73821C11.5715 3.71864 11.4765 3.70811 11.3852 3.67121ZM13.1166 3.91189C13.1787 3.92223 13.2196 3.93034 13.2273 3.93499C13.2045 3.93689 13.0839 3.92463 12.9198 3.90565C13.0859 3.92489 13.2088 3.93755 13.2334 3.93589C13.2258 3.93123 13.1849 3.92315 13.1227 3.91284L13.1166 3.91189Z" fill="#EFDA6B"></path>
<path fill-rule="evenodd" clip-rule="evenodd" d="M26.8738 13.6547C26.8632 13.8615 26.791 14.5612 26.7926 14.6325L26.7997 14.76L26.8094 14.8246L26.8323 15.0176C26.828 15.1302 26.833 15.243 26.8472 15.3548L26.885 15.8407L26.861 15.9194C26.7586 15.9298 26.7334 15.9263 26.6234 15.9104L26.5982 15.9385L26.6177 15.9792C26.5865 16.196 26.5952 16.3553 26.6199 16.5801L26.7122 16.644C26.8275 16.7238 26.9146 16.7364 26.9953 16.7922L27.0272 16.8348L27.0245 16.8534C27.0413 16.9569 27.0244 17.0304 27.003 17.1348C26.9683 17.2878 26.9762 17.3206 26.8936 17.4541L26.8127 17.5752L26.7852 17.6344L26.5905 17.9731C26.5568 18.0315 26.4972 18.1367 26.451 18.1932L26.3524 18.3055L26.3488 18.3302C26.292 18.4169 26.2369 18.4911 26.1853 18.5849L26.2562 18.7974C26.2792 18.9018 26.288 18.9284 26.2844 19.0417L26.2452 19.2257C26.1625 19.4477 26.1066 19.4397 25.9804 19.6112L25.9644 19.6341C25.8471 19.7436 25.8258 19.8481 25.7866 19.9878C25.7871 20.0354 25.7847 20.0878 25.7805 20.1437C25.7796 20.156 25.7786 20.1685 25.7775 20.1811C25.7767 20.1902 25.7759 20.1993 25.775 20.2085C25.7668 20.2947 25.7547 20.3882 25.7409 20.4843C25.7358 20.5197 25.7305 20.5555 25.7251 20.5914C25.691 20.8174 25.6528 21.0482 25.6402 21.2249C25.6018 21.5354 25.5528 21.8318 25.5721 22.1381L25.5711 22.1443C25.6119 22.2134 25.6119 22.2576 25.6189 22.3408L25.6136 22.378L25.5992 22.5656C25.568 22.7823 25.4038 22.8662 25.4941 23.0751C25.5207 23.1548 25.4602 23.3106 25.4309 23.3822C25.4157 23.4875 25.4255 23.5078 25.4485 23.6123L25.452 23.6318C25.5012 23.7308 25.5415 23.8339 25.5725 23.94C25.5109 24.0378 25.4757 24.1061 25.4035 24.1877L25.3886 24.2043L25.3565 24.3388L25.3263 24.3723C25.3194 24.372 25.3121 24.3713 25.3045 24.3703C25.3145 24.3718 25.3239 24.3728 25.3325 24.3732L25.3265 24.4124C25.2608 24.8077 25.1061 24.9214 25.1987 25.3023C25.2039 25.5306 25.209 25.759 25.0784 25.9614C25.0356 25.9979 24.9924 26.0338 24.9487 26.0692L24.8492 26.1434C24.6903 26.2785 24.6733 26.3077 24.6998 26.5201C24.725 26.7932 24.7708 27.0639 24.8368 27.3301L24.8793 27.4754C24.9518 27.8525 24.9617 27.7844 25.107 28.0961C25.0998 28.1458 24.8232 28.9214 24.7779 29.0602C24.6792 29.3052 24.6275 29.5317 24.559 29.7874C24.5483 29.8617 24.5109 30.0333 24.4815 30.105C24.454 30.1642 24.4104 30.2465 24.3882 30.3128C24.3001 30.6162 24.154 31.3665 24.0579 31.5929C23.9974 31.9255 23.9145 32.2803 23.8655 32.6209C23.7033 33.4826 23.6495 34.2083 23.5175 35.0364C23.5254 35.2462 23.5449 35.3312 23.6184 35.5251C23.7353 35.8138 23.6856 35.851 23.4777 36.0612C23.4706 36.1108 23.4332 36.2823 23.4341 36.3204C23.4074 36.4177 23.3824 36.547 23.3495 36.6434C23.3308 36.6849 23.3202 36.715 23.3272 36.754C23.328 36.969 23.3794 37.0965 23.4396 37.2949C23.4412 37.5037 23.4437 37.7064 23.353 37.8957C23.2199 37.9397 23.0335 37.9128 22.9092 37.8949C22.9014 37.8954 22.8936 37.8955 22.8857 37.8958C22.8912 37.8973 22.8966 37.8987 22.9021 37.9002C22.5825 37.9174 22.2435 37.8496 21.9293 37.7854C21.9245 37.6646 21.9337 37.5347 21.9523 37.4054L21.953 37.4008C21.9714 37.273 21.999 37.1474 22.032 37.0289L22.0347 37.0122C22.0505 36.9266 22.0947 36.8107 22.1014 36.7228L22.1863 35.9574C22.2041 35.8335 22.1448 35.5848 22.2124 35.468C22.2986 35.3098 22.4505 35.1357 22.5678 34.9819C22.6817 34.6316 22.713 34.1935 22.7843 33.8308C22.9768 32.847 23.0494 31.8585 23.1664 30.8702C23.2102 30.4339 23.2469 30.0472 23.2516 29.618C23.2491 29.4153 23.2892 29.1809 23.2805 28.9773C23.2595 28.5507 23.1516 27.9788 23.2167 27.5709C23.2292 27.4842 23.4485 27.4146 23.5062 27.3218C23.7488 26.9584 23.9453 26.5632 24.1577 26.1892C24.1108 26.0749 23.9954 25.9509 23.9085 25.8498C23.6088 25.4653 23.9384 25.0702 24.086 24.7058C24.1563 24.5263 24.1617 24.4448 24.1893 24.2528L24.3936 24.1115L24.3998 24.1124C24.8229 24.1671 24.7538 24.3844 25.0852 24.3251C25.0834 24.3248 25.0814 24.3244 25.0796 24.3241C25.0407 24.2429 24.9885 24.21 24.9144 24.1553C24.9121 24.1548 24.9098 24.1544 24.9075 24.1539L24.9137 24.1548C24.877 24.1448 24.7296 24.0619 24.6335 24.0069L24.5605 23.9649C24.3935 24.0432 24.2059 24.0671 24.0244 24.0331C23.8462 23.6407 23.9173 23.5435 24.2663 23.3219C24.2901 23.289 24.3083 23.2398 24.3227 23.1815C24.3617 23.0098 24.3754 22.7598 24.401 22.6061C24.4012 22.6044 24.4015 22.6027 24.4017 22.6011C24.3994 22.4427 24.4553 22.2299 24.5015 22.085L24.5042 22.072C24.5223 21.9999 24.6093 21.8295 24.6385 21.7507C24.7195 21.4968 24.7809 21.2465 24.8503 20.9846C24.9579 20.722 25.0703 19.8973 25.0617 19.6053C24.8843 19.3395 24.8409 19.2889 24.7843 18.9774C24.7649 18.8039 24.9515 18.5209 24.933 18.3413C24.8934 17.9562 24.6788 17.5523 24.7111 17.1523C24.7254 16.9647 24.715 16.5966 24.8545 16.4649C24.9219 16.4367 24.9521 16.4474 25.0338 16.4528C25.3311 16.4577 25.2913 16.3381 25.3288 16.078L25.3457 16.0488C25.4035 15.9075 25.4276 15.915 25.5774 15.8518L25.6006 15.7758L25.4613 15.7747C25.2412 15.6292 25.5114 15.1181 25.5826 14.9324C25.7391 14.5946 25.8167 13.923 25.872 13.539C26.196 13.5793 26.5573 13.625 26.875 13.6202L26.8738 13.6547ZM25.7302 16.9451C25.7375 17.3443 25.6807 17.742 25.5623 18.1232L25.5652 18.1352L25.5714 18.1361C25.6881 17.7502 25.7417 17.348 25.7302 16.9451ZM25.5582 17.9192C25.5511 17.9688 25.5439 18.0183 25.5492 18.0696C25.5439 18.0183 25.5573 17.9697 25.5582 17.9192ZM25.1537 16.9057C25.234 17.0318 25.2072 17.4532 25.1954 17.5761C25.213 17.454 25.2347 17.0319 25.1537 16.9057ZM26.5565 17.1969C26.5324 17.3473 26.4908 17.4943 26.4328 17.6351L26.4407 17.648C26.4932 17.5039 26.5351 17.3455 26.5565 17.1969ZM26.0653 17.4569C26.059 17.4824 26.051 17.5069 26.0387 17.5332L26.0394 17.5354C26.0533 17.5028 26.062 17.4742 26.0692 17.445C26.068 17.449 26.0666 17.4529 26.0653 17.4569ZM25.6055 16.9469C25.5998 16.9595 25.5962 16.9732 25.597 16.9891C25.5753 17.14 25.5972 17.2971 25.6015 17.4517C25.5986 17.2973 25.587 17.1416 25.597 16.9891C25.5993 16.9736 25.6013 16.9597 25.6055 16.9469ZM26.0889 17.3595C26.0891 17.3587 26.0893 17.358 26.0895 17.3572L26.0904 17.351C26.0899 17.3539 26.0893 17.3567 26.0889 17.3595ZM26.2317 15.8414L26.2094 15.8613L26.2023 15.8688L26.2327 15.8414C26.2324 15.8414 26.232 15.8414 26.2317 15.8414Z" fill="#EFDA6B"></path>
<path fill-rule="evenodd" clip-rule="evenodd" d="M7.85618 0.0571931L7.92135 0.081583C7.98819 0.106615 8.05942 0.132293 8.12863 0.147002L8.2342 0.162208L8.26639 0.168327C8.59078 0.233607 8.66083 0.356808 8.98411 0.415624C9.35599 0.47551 9.72968 0.523028 10.1007 0.589109C9.53793 0.533342 8.82699 0.405648 8.2554 0.323315L8.26342 0.267609L8.29806 0.247285L8.25723 0.266717L8.2545 0.329545C8.82608 0.411877 9.55654 0.536058 10.1059 0.596231L19.0215 1.88045C19.2683 1.92863 19.5497 1.95652 19.8044 1.99321C20.4461 2.073 21.1047 2.21211 21.7491 2.27332L23.6875 2.55254C23.8553 2.57671 24.4304 2.67851 24.576 2.68051C24.7041 2.69897 24.7558 2.70639 24.8664 2.67023L24.8893 2.66243L24.8707 2.65974C25.0162 2.6175 25.0847 2.62729 25.2427 2.63109C25.4423 2.65353 25.6421 2.67597 25.8435 2.68603C26.1435 2.7166 26.4462 2.77288 26.7462 2.80345L26.7744 2.80783C26.9173 2.83116 27.0824 2.87677 27.2406 2.89361C27.3897 2.91509 27.7483 2.93514 27.8405 3.04325C27.8484 3.12024 27.8271 3.13615 27.7578 3.17674C27.6939 3.19124 27.6679 3.18989 27.6222 3.18302L27.5679 3.17469L27.5874 3.25967C27.6698 3.39168 27.8666 3.74245 27.7822 3.88834C27.7096 3.89685 27.4828 3.86178 27.3215 3.83618L27.1902 3.81572L25.8793 3.6269L21.9189 3.0754C21.1982 2.97159 20.3932 2.83667 19.6761 2.75233L17.924 2.49996C17.6309 2.53642 17.3194 2.4415 17.029 2.40685C17.3172 2.44239 17.6249 2.53668 17.9107 2.50434L17.9169 2.50523C18.4964 2.57607 19.0849 2.67348 19.6689 2.7576L19.566 2.76809C19.6007 2.83628 20.3309 2.91618 20.4552 2.93409L21.7609 3.11585L25.1159 3.59911C25.5942 3.66802 26.0887 3.71396 26.5599 3.78817L26.5546 3.8253C26.2067 3.77519 25.8676 3.75166 25.5073 3.69976L21.8105 3.16728C21.649 3.14401 21.0659 3.0537 20.9425 3.07385C20.7989 3.05786 20.6542 3.03815 20.5092 3.01694C20.6563 3.0385 20.8031 3.05853 20.9487 3.07475L25.3572 3.72871C26.1276 3.83968 27.2682 3.97866 27.98 4.1444C28.113 4.27737 28.4225 4.59385 28.2671 4.79272C28.2285 4.79664 26.8154 4.58479 25.9907 4.46125L25.4348 4.3784L20.4458 3.65978L18.842 3.43512C18.6207 3.40324 18.1895 3.35782 17.9543 3.31041L17.9101 3.30088C17.9015 3.30043 17.8924 3.29965 17.8829 3.29894C17.8917 3.3016 17.9005 3.30427 17.9092 3.30705C17.7282 3.29205 17.3169 3.22448 17.0671 3.18625L16.971 3.17192C16.4119 3.09138 15.8323 3.02053 15.2936 2.93029L15.252 2.91838C15.2199 2.91432 15.1878 2.91063 15.1558 2.90706C15.121 2.90321 15.0861 2.89938 15.0514 2.89461C15.003 2.88803 14.9554 2.88006 14.9092 2.86863C14.8189 2.85444 14.7285 2.84062 14.6381 2.82711L14.3667 2.7874C13.8196 2.70896 13.2734 2.63889 12.7302 2.56088C12.5492 2.53487 12.3683 2.50804 12.188 2.47962L12.0078 2.4507L11.5107 2.37911L11.2853 2.35923L11.2675 2.35636L11.2666 2.35654C11.1991 2.3634 11.1756 2.36695 11.1215 2.35639L11.0962 2.35102L11.0492 2.36949C11.0502 2.37089 11.0516 2.3723 11.0533 2.37372L11.0953 2.35719C11.1698 2.36792 11.1885 2.37061 11.2657 2.36277L11.2844 2.36546L11.2853 2.35923L11.5089 2.39145L11.4725 2.42417C11.481 2.43268 11.493 2.44023 11.5071 2.44706C11.4954 2.44013 11.4856 2.43283 11.4788 2.42507L11.5089 2.39145C11.675 2.41278 11.8407 2.43665 12.006 2.46304L11.9074 2.48682C12.3519 2.62292 13.0649 2.64369 13.4461 2.74994C13.4664 2.75176 13.4861 2.75344 13.505 2.75484L15.4062 3.02869C15.6867 3.06277 16.1864 3.11579 16.4437 3.17814C16.268 3.17653 15.9769 3.13341 15.7349 3.09648L15.5154 3.06337L13.3758 2.75555C13.0894 2.7261 12.7004 2.6652 12.3414 2.60767L7.624 1.93305C7.57366 1.90309 7.52189 1.88278 7.46908 1.86795L7.44635 1.86189C7.42136 1.8588 7.39637 1.85562 7.37143 1.85234C7.45882 1.86798 7.54275 1.8914 7.62312 1.93922C7.48132 1.93302 7.17727 1.88922 6.95286 1.85601L6.76395 1.82812C6.95659 1.85587 7.43939 1.93804 7.62312 1.93922L15.5136 3.07577C15.7621 3.11157 16.2095 3.17602 16.442 3.19055L28.3088 4.89985C28.4614 4.9408 28.559 4.96756 28.558 5.15073C28.5287 5.22234 28.5286 5.22238 28.4656 5.26386L28.3369 5.27693C28.3328 5.27635 28.3287 5.27575 28.3246 5.27517C28.4256 5.32128 28.4487 5.33733 28.5347 5.40026L28.5391 5.45776C28.4983 5.47716 28.4672 5.47269 28.4228 5.47262C28.2825 5.5662 28.3836 5.70089 28.3072 5.83529C28.2117 5.90114 28.0596 5.86394 27.9986 5.77942L27.993 5.77108C27.9225 5.76095 27.8852 5.75629 27.8092 5.76992L27.8252 5.83544C27.8748 5.97534 27.9492 6.11885 27.9784 6.26845C28.0537 6.44998 28.1229 6.54216 27.9967 6.71364C27.7996 6.84959 27.6673 6.79895 27.4197 6.75697L27.0985 6.69804C27.0005 6.65865 26.8961 6.63721 26.7905 6.63472C26.6068 6.5893 26.6104 6.52024 26.5652 6.34939C26.6728 6.13097 26.8655 5.93744 27.0335 5.74035L27.0396 5.73019C27.0316 5.73053 27.0236 5.73094 27.0157 5.73144L27.0779 5.65192L27.0841 5.65282C26.1443 5.44011 25.1917 5.28811 24.2324 5.19778C24.0693 5.20535 23.5173 5.10813 23.3086 5.08343C23.3494 5.09858 23.4104 5.11541 23.4229 5.13811L23.359 5.1415L23.3917 5.17955C23.4127 5.18925 23.4298 5.19335 23.4532 5.20095C23.4654 5.20214 23.4775 5.20347 23.4894 5.20455C23.6572 5.22871 24.1373 5.28525 24.2447 5.37656L24.258 5.41639C24.1683 5.51093 23.9349 5.45838 23.8106 5.44048C23.6446 5.40393 23.3633 5.37604 23.1893 5.35099C22.8361 5.29389 22.4824 5.23901 22.1285 5.1864L21.7745 5.13454L14.3438 4.06421C13.6977 3.97114 12.6779 3.78633 12.0432 3.74549C11.8595 3.70006 11.5462 3.67389 11.3474 3.64526C11.121 3.58737 10.2725 3.49044 10.0116 3.45285L9.77728 3.40644C9.70273 3.39571 9.65212 3.39472 9.59535 3.34863C9.58563 3.28403 9.58828 3.30968 9.61141 3.23715C9.61621 3.23736 9.62106 3.23764 9.62592 3.23789C9.68527 3.1964 9.67067 3.18439 9.70119 3.09839L9.70828 3.09305C9.67104 3.04345 9.62663 3.04337 9.56009 3.02114C9.67815 2.99391 9.77049 3.0135 9.89388 2.99335L9.95869 2.98373C10.7246 3.0682 11.503 3.18412 12.2734 3.30424C11.5091 3.18491 10.733 3.06836 9.96576 2.97845C9.71618 2.94563 9.46804 2.91337 9.22063 2.88106C9.46581 2.91426 9.71163 2.94814 9.95869 2.98373L9.88763 2.99245C9.75803 3.01171 9.6719 2.99301 9.55384 3.02024C9.09405 2.95401 7.33061 2.6052 6.95505 2.65857L6.93997 2.64503L6.93732 2.64965L6.86097 2.65131C6.79342 2.76802 6.86612 2.87967 6.87224 3.01331C6.96082 3.27895 7.29521 3.59897 6.95688 3.83472L6.92321 3.82722C6.84444 3.82307 6.79835 3.8148 6.72341 3.87068C6.68286 3.93642 6.66102 4.01194 6.66024 4.08915C6.70439 4.39897 6.67114 4.98213 6.65582 5.30867C6.63606 5.62193 6.45553 6.03848 6.40471 6.34726C6.19838 6.89917 6.23553 7.08156 6.34608 7.63486C6.34691 7.71715 6.34503 7.86228 6.3157 7.93393C6.15652 8.33458 6.03372 8.74682 5.88697 9.14926C5.8674 9.19702 5.75995 9.23845 5.77587 9.30397C5.82988 9.5014 6.01263 9.64155 5.78972 9.82439C5.7645 9.87633 5.74531 9.91503 5.73399 9.952C5.72548 9.98353 5.72185 10.0137 5.72354 10.0495C5.72574 10.0757 5.73155 10.1049 5.74149 10.1398L5.74422 10.1402L5.75449 10.1678C5.80258 10.3066 5.80278 10.4577 5.75456 10.5969C5.70992 10.9509 5.61568 11.1206 5.54265 11.4515C5.47766 11.7266 5.56691 12.2516 5.52941 12.556C5.50533 12.7232 5.60548 12.9083 5.45542 13.0258L5.39681 13.0806C5.36164 13.0774 5.32592 13.0738 5.28983 13.07C5.32795 13.0741 5.36572 13.078 5.403 13.0814L5.38506 13.1681C5.3452 13.3708 5.31959 13.576 5.30843 13.7823C5.43095 13.8126 5.78416 13.8698 5.85333 13.9619C5.89312 14.1257 5.59443 14.7465 5.50199 14.9039C5.382 15.1205 5.19451 15.3654 5.04525 15.5651C5.34922 16.2285 5.10225 16.49 4.6564 16.8557C4.51253 16.9741 4.45152 17.882 4.43537 18.1262C4.47063 18.4537 4.47233 18.5741 4.43037 18.9095C4.47867 19.2307 4.49195 19.3594 4.48663 19.7017C4.48689 19.7017 4.48719 19.7016 4.48745 19.7016L4.48885 19.7267C4.4981 19.8457 4.53711 19.8699 4.52813 19.921C4.52523 19.9485 4.50823 19.983 4.46325 20.0459L4.46179 20.0453L4.43481 20.1113C4.4344 20.1133 4.43392 20.1154 4.4335 20.1174C4.43363 20.1174 4.43379 20.1175 4.43392 20.1175L4.43342 20.1175C4.39007 20.3262 4.29718 20.6309 4.33043 20.836C4.32511 20.8732 4.3907 20.9901 4.4093 21.037C4.29742 21.174 4.25215 21.2613 4.06546 21.2631L4.04696 21.2629L4.00781 21.3585C4.02804 21.6143 3.97372 21.8594 3.96288 22.1107C3.95387 22.3054 4.09275 22.9259 3.94976 23.0824C3.82005 23.2344 3.70726 23.313 3.58464 23.5039C3.56106 24.196 3.76123 24.8317 3.76786 25.4902C3.77027 25.8256 3.43158 26.5039 3.37716 26.8817C3.35932 27.0056 3.26157 27.1559 3.24639 27.2611C3.21613 27.3832 3.17784 27.5168 3.16799 27.6292C3.06919 28.0069 3.10556 28.0628 2.94727 28.4572C3.11176 28.0637 3.06919 28.0069 3.16709 27.6354L3.163 27.7103C3.13909 28.0938 3.06481 28.6069 3.00546 28.9777C2.86367 29.874 2.69082 30.7658 2.61738 31.6719C2.59975 31.881 2.49113 31.9115 2.45454 32.1428C2.45102 32.2556 2.46068 32.3641 2.46945 32.4788C2.54272 33.0267 2.15896 33.4456 2.42666 33.9647C2.57734 34.2393 2.50427 34.6586 2.41175 34.9488C2.07269 34.9252 1.39277 34.8463 1.08036 34.7696C1.04489 34.7519 1.02449 34.7173 1.01031 34.6837C1.00598 34.5376 1.03805 34.4032 1.08342 34.2643C1.14117 34.1715 1.18122 34.0255 1.21413 33.9291L1.311 33.785C1.54198 33.5022 1.51203 33.1817 1.39864 32.8683C1.32246 32.6487 1.29585 32.6132 1.3901 32.3992L1.46304 32.2011L1.89575 29.2847C1.93181 29.0337 1.96013 28.7992 1.98496 28.5686C2.02079 28.2352 2.0497 27.906 2.08245 27.5487L2.08745 26.7654C2.09742 26.4761 2.15535 26.1178 2.11295 25.8398C2.07045 25.6946 2.09359 25.622 2.10257 25.4716C2.10544 25.1875 2.10291 25.0291 2.23355 24.7824C2.33483 24.6516 2.39714 24.4393 2.49756 24.2704C2.59091 24.0626 2.64161 23.9308 2.76603 23.7274L2.81851 23.5832C2.87774 23.4714 2.92262 23.3526 2.95195 23.2295C2.93491 23.2146 2.91802 23.1995 2.90137 23.1842C2.7364 23.0087 2.61668 22.8271 2.62751 22.5758L2.63554 22.5644L2.73335 22.3256L2.77602 22.2495L2.78929 22.2451C2.85161 22.1237 2.95405 21.815 3.00782 21.5401C3.01258 21.5035 3.01854 21.4677 3.02636 21.4333C3.04858 21.2853 3.05159 21.1575 3.01914 21.0896C3.03315 21.0886 3.04864 21.0887 3.06533 21.0897L3.08243 21.091C3.06171 21.0881 3.04088 21.0855 3.02004 21.0834C2.92247 21.0125 2.90649 20.9912 2.9048 20.8709L2.98216 20.7302C3.03013 20.6613 3.06213 20.6153 3.12075 20.5605C3.13074 20.531 3.13736 20.4996 3.14183 20.4666C3.1605 20.3188 3.13561 20.1407 3.15581 19.965L3.1567 19.9588C3.14822 19.8636 3.17584 19.6864 3.18948 19.5683L3.19427 19.5217L3.2913 19.1563C3.35534 18.9759 3.39983 18.8432 3.48961 18.6602L3.6008 18.3285L3.60884 18.317L3.64352 18.2082L3.69773 18.0958C3.85159 17.6881 4.02063 17.1751 3.91888 16.7368C3.90647 16.6908 3.75218 16.4852 3.71402 16.4418C3.46307 16.1148 3.55828 15.7618 3.86647 15.5154L3.89229 15.4243C3.84889 15.2853 3.75407 15.063 3.70889 14.9364L3.61675 14.6955C3.56542 14.4795 3.52065 13.8219 3.72581 13.6744L3.87494 13.6516C3.96725 13.627 3.9868 13.6235 4.06495 13.5652C4.07209 13.5156 4.1352 13.3856 4.16276 13.3264C4.17599 13.2345 4.18851 13.1688 4.1972 13.1037C4.20578 13.0386 4.21052 12.9728 4.20837 12.8778L4.22952 12.8431L4.22706 12.8362L4.20837 12.8778C4.15868 12.8706 4.14621 12.8688 4.10541 12.844C4.07263 12.7634 4.08862 12.7404 4.102 12.6475L4.17043 12.5246L4.25754 12.3601C4.33223 12.1939 4.48606 11.8746 4.51725 11.7021C4.56623 11.4904 4.60754 11.277 4.6411 11.0624C4.67678 10.8147 4.72148 10.328 4.82193 10.1149C4.85702 10.0505 4.90631 9.99492 4.96589 9.95212L4.97479 9.89031L4.92163 9.73096L4.87829 9.54771L4.95118 9.39379L4.96808 9.36462L5.11911 9.19671C4.99055 8.98854 4.98083 8.92391 4.91976 8.68754L4.84636 8.31659C4.85706 8.24227 4.83228 8.15017 4.81724 8.07846L4.81991 8.05989C4.77156 7.80893 4.79354 7.54958 4.88347 7.31039C4.90656 7.2821 4.93857 7.19193 4.95635 7.15654C5.08539 6.70098 5.29733 6.99067 5.55556 7.09109C5.69401 7.14264 6.01001 7.19446 6.13347 7.0858C6.06163 6.96799 5.32324 6.8553 5.24256 6.66668C5.07242 6.26285 5.32712 5.111 5.39754 4.71019C5.43669 4.57043 5.4607 4.49169 5.5176 4.36081C5.60203 4.21492 5.69808 3.9885 5.84725 3.92148L5.89458 3.93126C6.12921 3.97703 6.44298 4.00013 6.64023 4.08058L6.61943 4.07234C6.40751 3.99177 6.07945 3.96042 5.84815 3.91525C5.88453 3.88256 5.8855 3.83211 5.87843 3.79317C5.84063 3.74281 5.82024 3.72687 5.78393 3.7088L5.74112 3.68868C5.73694 3.68893 5.73268 3.68913 5.72845 3.68939C5.66991 3.65568 5.65124 3.65298 5.59003 3.63784C5.5768 3.5095 5.57334 3.44576 5.57875 3.32011C5.63831 3.21489 5.78309 3.09033 5.88347 2.96572C5.87909 2.91535 5.88551 2.86306 5.89411 2.81148C5.90029 2.77437 5.90747 2.73755 5.91285 2.702C5.92836 2.59917 5.92693 2.50784 5.83059 2.45233C5.78711 2.44607 5.77199 2.41861 5.73209 2.38758C5.73428 2.38685 5.73653 2.3863 5.73869 2.38563L5.76504 2.20266C5.83619 2.14971 6.68367 2.29701 6.84523 2.32028C7.63193 2.4336 8.53319 2.58725 9.31273 2.67157L9.31143 2.67114C8.53053 2.58661 7.62209 2.42589 6.83374 2.31233C6.68466 2.29086 5.83019 2.14882 5.75975 2.19554L5.80514 2.01241L5.80603 2.00624L5.67915 1.96266L5.63743 1.94405C5.62456 1.93983 5.61338 1.93602 5.60367 1.93246C5.53575 1.90764 5.53836 1.89418 5.5159 1.81906L5.51855 1.81956C5.51797 1.81738 5.51741 1.81511 5.5168 1.81283L5.50352 1.77301L5.56396 1.61736L5.58291 1.61738C5.77266 1.61376 5.77633 1.48454 5.88994 1.33555L5.90496 1.32586C5.98293 1.27782 6.10019 1.23545 6.1901 1.18912C6.26931 1.16659 6.34728 1.13984 6.42361 1.10897L6.55947 1.04631L6.61005 1.04729C6.88347 1.04243 7.54023 1.14967 7.83223 1.19173L11.7837 1.7609L12.0302 1.79703C12.291 1.83519 12.5836 1.87613 12.8053 1.8891L12.7854 1.88402L12.7695 1.88036C12.5143 1.8622 12.1751 1.8071 11.9028 1.7659L11.7855 1.7485L9.97755 1.48809L9.9704 1.49342L7.82693 1.18467C7.53494 1.14261 6.8773 1.04154 6.60386 1.0464L6.64825 1.00223L6.76721 0.968802L6.86943 1.00859C6.82725 0.988962 6.78832 0.968247 6.77346 0.969702L6.77762 0.963572C6.77644 0.963481 6.77534 0.963378 6.77436 0.963472L6.7903 0.940517L6.8438 0.868332C6.83883 0.843785 6.83878 0.824106 6.84252 0.804124C6.84504 0.787192 6.85016 0.770421 6.85727 0.750745L6.86503 0.730006L6.85795 0.735284L6.86508 0.685747L6.86827 0.696702C6.86862 0.698032 6.8689 0.699413 6.86923 0.700792L6.87127 0.686639L6.95219 0.477019C6.99281 0.320598 7.0975 0.276257 6.97435 0.177008L6.9617 0.167221L6.9524 0.167241L6.83171 0.124604C6.78049 0.0951055 6.76732 0.0710241 6.73513 0.0358024L6.71994 0.0199707L6.71375 0.0190793C6.75279 0.00619323 6.88482 0.0186441 6.9753 0.00785506C6.97567 0.00541103 6.97615 0.00279374 6.97655 9.53484e-06L6.97566 0.00623945C7.1293 -0.00323623 7.68666 0.0454188 7.85618 0.0571931ZM3.19723 21.1105C3.38739 21.1538 3.63117 21.2533 3.74685 21.3209C3.57619 21.2208 3.3904 21.1498 3.19723 21.1105ZM4.8734 14.19C4.82977 14.3087 4.80682 14.5104 4.79205 14.6671L4.77685 14.831C4.79567 14.7004 4.81336 14.358 4.8734 14.19ZM4.94307 14.328C4.92384 14.453 4.87569 14.5958 4.85236 14.7028L4.77685 14.831L4.85041 14.7164C4.85105 14.7118 4.85171 14.7073 4.85236 14.7028C4.87586 14.595 4.92417 14.4534 4.94307 14.328ZM4.40991 14.0764C4.33993 14.1769 4.33644 14.4227 4.33184 14.575L4.32962 14.6338C4.35267 14.6498 4.3607 14.6383 4.39175 14.6428C4.4006 14.6362 4.4079 14.6307 4.41398 14.626C4.45648 14.5934 4.43748 14.6003 4.45929 14.526L4.46218 14.5502L4.47172 14.5278L4.45929 14.526C4.46367 14.4103 4.47894 14.1774 4.41618 14.0849L4.40991 14.0764ZM5.27061 14.5423C5.27764 14.5686 5.281 14.5797 5.31136 14.5982C5.28564 14.5752 5.28008 14.5661 5.27061 14.5423ZM5.3379 14.1082L5.42518 14.3365L5.31136 14.5982L5.43136 14.3374L5.33923 14.0965C5.33879 14.1004 5.33833 14.1044 5.3379 14.1082ZM10.4536 3.34581C10.7743 3.39373 11.0953 3.44039 11.4163 3.48578L11.738 3.53082L10.4536 3.34581ZM17.9311 4.38337C18.0331 4.40404 18.1322 4.42387 18.2147 4.44607C18.2229 4.44689 18.2312 4.44778 18.2394 4.44858L18.2394 4.44834C18.1532 4.42602 18.0443 4.40553 17.9311 4.38337ZM10.7587 3.13174C10.6704 3.1204 10.5822 3.10934 10.4939 3.09872C10.3945 3.08441 10.1326 3.05304 10.0491 3.05998L10.0882 3.09721C10.0171 3.15019 9.92567 3.16866 9.84134 3.1818L9.82623 3.19858C9.93937 3.22908 10.0174 3.23944 10.0813 3.23977L10.108 3.23935C10.0394 3.2417 9.9551 3.23283 9.82623 3.19858L9.84753 3.18269C9.93186 3.16956 10.0287 3.15818 10.0953 3.09194L10.0553 3.06087C10.1388 3.05393 10.3998 3.09149 10.5001 3.09962C10.5863 3.10998 10.6725 3.12069 10.7587 3.13174ZM10.6491 3.20962C10.4092 3.18172 10.3089 3.21068 10.207 3.2283C10.307 3.21154 10.4113 3.18512 10.6491 3.20962ZM27.4234 5.70304C27.501 5.71513 27.5785 5.72781 27.6569 5.74169C27.5787 5.72787 27.5011 5.71515 27.4234 5.70304ZM27.2885 5.68257C27.2798 5.68128 27.2711 5.67996 27.2623 5.67867L27.0963 5.65458C27.1614 5.66396 27.2253 5.6732 27.2885 5.68257ZM19.3836 4.51831C19.2283 4.49595 18.3176 4.34935 17.8735 4.31474C18.3217 4.35275 19.2164 4.50058 19.3703 4.52275L20.4013 4.6649L19.3836 4.51831ZM17.0183 4.07648L17.0121 4.07559C17.1412 4.09421 17.3098 4.19163 17.5427 4.23333C17.3099 4.19104 17.1424 4.0884 17.0183 4.07648ZM12.2973 3.43437C12.299 3.43462 12.3008 3.43481 12.3025 3.43506C12.2885 3.43288 12.2745 3.4308 12.2605 3.42863C12.2727 3.43055 12.285 3.43245 12.2973 3.43437ZM24.6565 5.15237C24.6569 5.15253 24.6574 5.15266 24.6579 5.15282C24.6523 5.15089 24.6473 5.14898 24.6432 5.14706L24.6565 5.15237ZM24.5591 5.0868C24.6017 5.09926 24.6044 5.12494 24.6337 5.1418C24.6089 5.12173 24.603 5.10435 24.5744 5.08789L24.5591 5.0868ZM17.3739 4.05022C17.132 4.04798 16.8775 4.02057 16.6198 3.9824C16.8918 4.02456 17.1602 4.05562 17.4142 4.05764C17.4008 4.05515 17.3874 4.05269 17.3739 4.05022ZM6.9498 2.56298L6.97112 2.5913L6.95599 2.56387L7.14605 2.59316C7.08489 2.58381 7.0236 2.57438 6.96224 2.56477L6.94492 2.56209C6.94654 2.56236 6.94818 2.56271 6.9498 2.56298ZM12.3018 3.35914L12.308 3.36004C12.316 3.36093 12.3241 3.36193 12.3321 3.36283C12.322 3.36163 12.3119 3.36034 12.3018 3.35914ZM26.7283 5.39289C26.6617 5.4149 26.3095 5.35153 26.202 5.34869C26.201 5.34856 26.1999 5.34836 26.1989 5.34824L26.2011 5.35492C26.3095 5.35157 26.668 5.41587 26.7346 5.39385C26.7194 5.39019 26.7042 5.38662 26.6891 5.38304C26.7022 5.38632 26.7153 5.38953 26.7283 5.39289ZM11.0697 3.17315C11.0604 3.17186 11.051 3.17058 11.0417 3.16929C11.1142 3.17926 11.1868 3.18945 11.2593 3.19991L11.0697 3.17315ZM15.213 3.75323C15.1363 3.74467 15.0596 3.73554 14.983 3.72627C15.0617 3.73588 15.1404 3.74533 15.2192 3.75412C15.2245 3.75469 15.2298 3.75533 15.2351 3.75591C15.2277 3.75502 15.2204 3.75408 15.213 3.75323ZM6.08266 2.41912L6.12141 2.42489C6.11264 2.42359 6.10387 2.42218 6.0951 2.42091C6.08898 2.42003 6.08299 2.41894 6.07713 2.41795C6.07896 2.41831 6.08081 2.41877 6.08266 2.41912ZM12.7865 3.38475C12.792 3.38558 12.7975 3.38635 12.803 3.38719C12.7995 3.38665 12.7961 3.38617 12.7927 3.38564C12.7511 3.37909 12.7095 3.37262 12.6679 3.36606C12.7074 3.37229 12.747 3.37853 12.7865 3.38475ZM25.3757 5.1412C25.1521 5.10899 24.9187 5.05638 24.6914 5.04893L24.8245 5.09341L24.6976 5.04982C24.9186 5.05637 25.1512 5.11515 25.3686 5.14647C25.5391 5.17103 25.7072 5.19523 25.8736 5.22168C25.7087 5.19378 25.543 5.1676 25.3757 5.1412ZM27.0723 5.24833C27.4157 5.32549 27.8284 5.35031 28.1204 5.42856L28.1193 5.42259C27.8405 5.35366 27.4668 5.32326 27.1375 5.26118L27.0723 5.24833ZM27.0418 5.24208C26.5161 5.17822 25.9806 5.10544 25.4411 5.02825C25.9812 5.10555 26.5174 5.17842 27.0433 5.24235C27.0428 5.24225 27.0423 5.24219 27.0418 5.24208ZM19.8984 4.1659C18.9874 4.02673 18.2682 3.9284 18.183 3.95975C17.643 3.91159 16.876 3.77515 16.2959 3.68824L16.1825 3.67159L10.51 2.85452C10.3435 2.83054 9.93606 2.78347 9.68794 2.73722L9.64059 2.72799C9.87877 2.7788 10.3352 2.83565 10.5091 2.86069L16.1815 3.67775C16.7717 3.76277 17.606 3.91455 18.1821 3.96592L18.2778 3.98354C18.343 3.99502 18.4106 4.00591 18.4796 4.01649C18.3783 4.0009 18.2803 3.98448 18.1883 3.96682C18.2738 3.93332 18.9902 4.0289 19.8984 4.1659ZM24.2029 4.81106C24.1517 4.80574 24.1042 4.79632 24.0747 4.79574C24.0616 4.7952 24.0464 4.7941 24.0293 4.79278C24.0489 4.7945 24.0662 4.79587 24.0809 4.79664C24.1146 4.80149 24.1574 4.80753 24.2029 4.81106ZM9.32785 2.60836L9.17782 2.59305C9.18157 2.59731 9.18594 2.60126 9.19064 2.60509C9.24386 2.60463 9.26799 2.61869 9.32511 2.62692C9.38845 2.66548 9.42619 2.66995 9.47516 2.6928L9.53013 2.70072C9.55834 2.69985 9.61581 2.70492 9.68756 2.71321L9.76357 2.72249C9.66042 2.70758 9.57386 2.69642 9.53727 2.69545L9.52483 2.69366C9.45515 2.6608 9.41151 2.66248 9.34954 2.61816L9.3369 2.60868C9.33389 2.60854 9.33085 2.60851 9.32785 2.60836ZM18.4058 3.90967C18.1032 3.89791 17.8006 3.87164 17.4984 3.83743C17.7961 3.8728 18.0926 3.90032 18.3863 3.91316L18.5212 3.93259C18.5062 3.9292 18.4904 3.9258 18.4739 3.92238L18.4228 3.91212L18.4058 3.90967ZM8.82188 2.55444C8.44226 2.51955 8.0636 2.47525 7.68625 2.42191C8.17538 2.49397 8.70565 2.56624 8.82188 2.55444ZM24.3014 4.80604C24.3077 4.80804 24.3118 4.8097 24.3135 4.81118C24.3071 4.81218 24.3005 4.81287 24.2939 4.81343C24.3026 4.81312 24.3112 4.81278 24.3196 4.81207C24.3174 4.81055 24.3112 4.80851 24.3014 4.80604ZM6.83641 2.29376C6.91296 2.30479 7.08609 2.33156 7.30018 2.36414C7.01129 2.3184 6.72321 2.26733 6.43614 2.21079L6.83641 2.29376ZM18.5123 3.96292L18.6863 3.98797C18.6848 3.98665 18.683 3.98534 18.6811 3.98402L18.6746 3.98L18.5441 3.96121L18.5123 3.96292ZM23.5169 4.65316C23.3269 4.62599 23.1691 4.60677 23.1179 4.61366C23.1279 4.61561 23.1439 4.61826 23.1647 4.62164C23.1469 4.61867 23.1331 4.6163 23.1241 4.61455C23.1726 4.60736 23.3282 4.62623 23.5169 4.65316ZM18.6082 3.95777L18.6052 3.95376C18.6036 3.9533 18.602 3.95279 18.6004 3.95233L18.6082 3.95777ZM23.3593 4.58367C23.8369 4.65248 24.3003 4.72717 24.3889 4.77148C24.3275 4.76895 24.226 4.75663 24.1062 4.73996C24.2288 4.75707 24.3328 4.76981 24.3951 4.77238C24.3061 4.72789 23.8395 4.65281 23.3593 4.58367ZM8.1374 2.40312C8.03246 2.40198 7.89259 2.38366 7.76601 2.36518L7.63553 2.34577C7.65514 2.35087 7.67483 2.35559 7.69453 2.36013C7.83658 2.38 8.0105 2.40208 8.13542 2.40314L8.1374 2.40312ZM5.84418 2.04965C6.37174 2.1824 7.39026 2.27891 7.98143 2.37151C7.54627 2.30263 6.87977 2.2294 6.34758 2.145C6.31411 2.13971 6.28114 2.13438 6.24882 2.12899C6.19821 2.12053 6.14911 2.11195 6.1019 2.10325C6.03122 2.09024 5.96468 2.07698 5.90352 2.06338L5.84418 2.04965ZM15.7891 3.50157L15.8506 3.51L15.8444 3.5091C15.8288 3.50687 15.8102 3.50444 15.7891 3.50157ZM10.8914 2.77468C10.6488 2.75947 10.3485 2.70897 10.066 2.66561L9.93828 2.64641C9.89489 2.64059 9.85218 2.63533 9.8105 2.63059C10.1553 2.67866 10.5677 2.75386 10.8789 2.77405L10.8914 2.77468ZM28.3196 5.2745C27.9234 5.21784 27.5389 5.1765 27.1536 5.12458L26.986 5.1013L27.1535 5.12488C27.5425 5.17841 27.929 5.2238 28.3196 5.2745ZM11.064 2.38096C11.0909 2.39596 11.1464 2.41145 11.2145 2.42615C11.1639 2.41275 11.1137 2.39767 11.064 2.38096ZM15.4011 2.2772C15.2863 2.26245 15.1721 2.24706 15.0628 2.23101C15.1722 2.24706 15.2863 2.26244 15.4011 2.2772ZM16.2548 2.38597C17.2842 2.55081 18.3156 2.70147 19.3396 2.84501L19.778 2.90611C19.7768 2.90594 19.7756 2.90577 19.7744 2.9056L19.7744 2.90553C18.7436 2.75706 17.7223 2.60994 16.6992 2.45412L16.2597 2.38668C16.2581 2.38645 16.2564 2.38621 16.2548 2.38597ZM12.9519 1.84304L12.9536 1.87249C13.0702 1.88929 13.5555 1.97587 13.6852 2.01226L13.7062 2.01886L13.7593 2.0296C13.9905 2.07468 14.2255 2.0975 14.4665 2.12913L14.5703 2.14333C14.5701 2.14329 14.5699 2.14329 14.5698 2.14326C14.8352 2.14988 15.1636 2.20349 15.4458 2.22518L15.4477 2.21218C15.4472 2.21198 15.4467 2.21179 15.4462 2.2116L15.4405 2.21811C15.1644 2.19732 14.836 2.14368 14.5635 2.14236C14.2777 2.1012 13.9901 2.07241 13.7062 2.01886C13.6227 1.98156 13.0716 1.88952 12.9544 1.86631L12.952 1.843L12.9519 1.84304ZM9.86948 1.42918C9.90323 1.43522 9.93692 1.44194 9.97046 1.44916L9.98457 1.48274L9.99171 1.47747L9.97665 1.45005C9.94115 1.44161 9.90537 1.43486 9.86948 1.42918ZM6.94736 1.03896L6.9462 1.03799C6.9449 1.03767 6.94358 1.03728 6.94227 1.03693L6.94736 1.03896ZM17.4064 2.52654C17.9372 2.62828 18.4609 2.69108 18.989 2.76715C19.0468 2.77548 19.155 2.78933 19.2741 2.80624C19.1526 2.78893 19.0417 2.77474 18.9828 2.76626C18.4547 2.69019 17.9256 2.62029 17.4064 2.52654ZM12.7629 1.76204C12.5197 1.77974 12.0989 1.64453 11.9071 1.69651L11.9053 1.70891C11.9104 1.70737 11.9158 1.70598 11.9212 1.7047L11.9329 1.69386L11.9317 1.70251C12.141 1.66061 12.557 1.78801 12.7841 1.77226L12.9847 1.7885L12.7859 1.75986L12.7629 1.76204ZM12.926 1.84327L12.9321 1.84415L12.9375 1.84313C12.9337 1.84319 12.9298 1.84317 12.926 1.84327ZM12.9425 1.8431L12.9405 1.84536L12.9415 1.84551L12.9465 1.84308C12.9452 1.84309 12.9438 1.84309 12.9425 1.8431ZM7.44633 1.02229C7.33495 1.00606 7.16004 0.9738 7.02689 0.971818C7.16076 0.976181 7.33435 1.01106 7.44444 1.02208C7.44506 1.02216 7.44572 1.02222 7.44633 1.02229ZM10.4036 1.43567C9.44836 1.28043 8.4898 1.14591 7.5287 1.03218C8.48685 1.14726 9.43057 1.28357 10.3708 1.4428C10.3731 1.44248 10.3755 1.44229 10.3778 1.44195L10.4098 1.43657L10.4036 1.43567ZM6.96989 0.0475767C6.96806 0.058171 6.97483 0.0626595 6.99953 0.10451L7.11689 0.161237L7.12184 0.161271C7.08164 0.141182 7.04085 0.122221 6.99953 0.10451C6.9769 0.0598745 6.96958 0.0607398 6.96989 0.0475767Z" fill="#EFDA6B"></path>
<path fill-rule="evenodd" clip-rule="evenodd" d="M26.4276 9.99005C26.5689 9.97879 27.3702 10.0942 27.4483 10.1687C27.5095 10.2281 27.5379 10.3397 27.5644 10.4193C27.6336 10.5557 27.6264 10.6495 27.6245 10.7947C27.5079 11.252 27.4778 11.1529 27.3338 11.4925C27.2307 11.6799 27.1024 12.2177 27.0287 12.2894C26.979 12.2822 26.9399 12.2892 26.9 12.3024C26.9105 12.4936 27.2371 12.3827 26.9421 13.0669L26.9028 13.3397C26.7599 13.3191 26.7279 13.3208 26.5895 13.2693C26.4971 13.256 26.4101 13.2434 26.3627 13.1705L26.3538 13.1552L26.3517 13.1591C26.3951 13.2539 26.4883 13.2674 26.5886 13.2755L26.6221 13.3311C26.6532 13.3826 26.6805 13.4236 26.7353 13.468L26.7385 13.4677C26.6648 13.4066 26.6409 13.3525 26.5895 13.2693L26.6368 13.2865C26.7375 13.3221 26.7778 13.3272 26.909 13.3406L26.8902 13.5592C26.8408 13.5417 26.7931 13.5118 26.7447 13.4864L26.724 13.4759L26.7119 13.4766C26.5148 13.4355 26.2769 13.4139 26.0595 13.3826C26.0863 13.1968 26.1076 13.1366 26.1823 12.9704L26.1566 12.8845L26.2101 12.943C26.2642 13.001 26.32 13.0575 26.3774 13.1123L26.3597 13.1445L26.3855 13.114C26.3849 13.1137 26.3843 13.1135 26.3837 13.1132C26.3073 13.0381 26.2339 12.96 26.1637 12.8792C26.0565 12.6551 26.1881 12.358 26.2122 12.1022C26.2283 11.9018 26.2255 11.7003 26.2038 11.5004C26.1087 10.9662 26.0476 10.6503 26.3097 10.1866L26.3361 10.1413L26.3299 10.1404C26.3539 10.0617 26.3593 10.0245 26.4276 9.99005ZM26.7753 13.117C26.689 13.1424 26.6094 13.1608 26.5258 13.1528C26.6087 13.1635 26.6892 13.1446 26.7753 13.117Z" fill="#EFDA6B"></path>
<path d="M27.2558 6.8669C27.3346 6.88171 27.487 6.91676 27.543 6.91376L27.5797 6.92596C27.6613 6.9538 27.7159 6.97901 27.7835 7.04959C27.8277 7.1824 27.8552 7.30018 27.8524 7.45151C27.903 7.70002 27.8818 8.0415 27.8361 8.37526C27.8098 8.63163 27.7639 8.88608 27.6985 9.13631L27.6576 9.33267C27.6309 9.42997 27.6095 9.53439 27.5508 9.63341C27.5383 9.72011 27.4707 9.83683 27.4254 9.93145C27.2567 9.91348 26.8343 9.89686 26.6985 9.82675C26.2717 9.57562 26.3966 8.7528 26.4474 8.35551C26.4956 8.02105 26.5367 7.64762 26.6869 7.35315C26.8275 6.94982 26.7504 6.82491 27.227 6.86195L27.2558 6.8669Z" fill="#EFDA6B"></path>
<path d="M9.76955 3.41194L9.76394 3.41088L9.77019 3.41178C9.77 3.41185 9.76975 3.41188 9.76955 3.41194Z" fill="#EFDA6B"></path>
</svg>