<svg width="160" height="53" viewBox="0 0 160 53" fill="none" xmlns="http://www.w3.org/2000/svg">
<path d="M18.4553 35.4652C18.2314 35.5329 18.0277 35.5774 17.9203 35.8028C17.6436 36.3835 18.1397 37.3607 18.3295 37.9254C18.978 39.2172 19.4863 39.7114 20.6212 40.6054C20.8183 40.7742 21.2396 41.0908 21.3909 41.2328C22.1186 41.5384 22.201 41.8337 22.7083 42.1724C23.4168 42.6449 25.3904 42.9222 26.2357 42.7975C26.9752 42.652 27.878 42.2045 28.5343 41.844C29.3878 41.3566 30.0679 40.7547 30.5453 39.8812C30.8215 39.4166 31.4283 38.3771 30.5315 38.2145C29.7684 38.0403 29.5475 39.0996 29.1383 39.5796C27.9429 40.9811 26.0654 41.7307 24.2564 41.3352L24.2262 41.3286C23.3247 41.2418 22.5252 40.3037 21.7427 39.8928C21.564 39.7989 21.1574 39.5575 21.0165 39.4262C20.7177 39.2439 19.6274 37.7901 19.503 37.3999C19.2976 37.0604 19.2535 36.6387 19.2127 36.2519C19.1205 35.7074 18.9581 35.6309 18.4553 35.4652Z" fill="#EFDA6B"></path>
<path d="M28.3664 35.1779C26.9057 33.9836 26.3761 33.8885 24.7001 34.8521C24.5024 35.0319 24.7636 35.7002 24.9231 35.7717C25.7063 36.122 26.461 35.1169 27.3053 35.6223C27.7893 35.912 27.5912 36.5109 27.6892 37.0332C27.9997 37.0645 28.2164 37.0921 28.5273 37.017C28.5368 37.0089 28.5462 37.0005 28.5552 36.9917C29.0668 36.4889 28.8303 35.6402 28.3664 35.1779Z" fill="#EFDA6B"></path>
<path fill-rule="evenodd" clip-rule="evenodd" d="M34.9339 28.1581C34.1336 28.1284 33.1243 28.6629 32.3845 28.9684C31.5372 29.5016 30.7031 30.7172 30.3828 31.6464C30.1798 32.2352 30.2614 33.3108 30.9104 33.5002C31.3308 33.5315 31.8432 33.5377 32.2536 33.4359C32.5952 33.3528 32.9043 33.1677 33.1403 32.9047C34.0262 31.915 33.3592 30.9994 33.4575 29.9856C33.4995 29.5522 35.8695 29.4402 35.3222 28.4515C35.2295 28.2842 35.0947 28.2377 34.9339 28.1581ZM32.0831 31.3269C32.3949 31.7736 32.2421 31.9574 31.7725 32.0972C31.5924 31.7949 31.7999 31.4065 32.0831 31.3269Z" fill="#EFDA6B"></path>
<path fill-rule="evenodd" clip-rule="evenodd" d="M24.0773 26.3517C23.4411 26.3055 22.2151 26.7549 21.6767 27.1015C21.0795 27.486 20.5134 29.0123 20.3824 29.7153C20.2352 30.5052 20.17 31.8388 20.6529 32.5286C20.914 32.9013 21.5557 33.064 21.9906 33.1418C22.1976 33.1094 22.4017 33.0437 22.5942 32.9605C22.8661 32.843 23.0784 32.6182 23.1814 32.3383C23.4039 31.7509 23.2906 30.5997 22.9189 30.1303C22.4618 29.553 22.3641 29.6499 22.0411 28.9359C22.1338 28.8567 22.4708 28.453 22.539 28.3226C22.9633 27.5109 24.9156 28.0147 24.5487 26.7927C24.4778 26.5564 24.2698 26.4383 24.0773 26.3517ZM21.8175 30.8081C21.9284 31.0784 22.0713 31.4457 21.7246 31.5807C21.6789 31.4083 21.5463 31.025 21.6381 30.8771C21.6724 30.8218 21.7357 30.8268 21.8175 30.8081Z" fill="#EFDA6B"></path>
<path d="M36.8751 24.7943C36.3371 24.4692 34.8103 24.5592 34.1813 24.6945C33.8046 24.7755 33.1483 24.9332 32.9227 25.2731C32.8241 25.4215 32.8116 25.5779 32.85 25.7483C32.8868 25.912 32.9575 26.08 33.1075 26.1688C33.6203 26.4721 35.5286 25.4894 36.5149 25.8358C37.6163 26.2227 37.6079 28.1045 38.6196 27.7907C38.6747 27.7736 38.7227 27.7521 38.7728 27.7232C38.8684 27.0178 38.5446 26.2373 38.074 25.7267C38.0661 25.7217 38.058 25.7167 38.0501 25.7116C37.6357 25.443 37.2954 25.0482 36.8751 24.7943Z" fill="#EFDA6B"></path>
<path d="M24.3399 22.1699C23.8231 22.127 23.2143 22.3576 22.6056 22.515C22.0806 22.6507 21.1792 23.4007 21.9525 23.9551C22.2987 24.2033 23.3289 23.6329 23.6939 23.4774C24.0455 23.3278 24.955 23.3806 25.3401 23.4947C25.6719 23.6486 26.0656 23.8811 26.4362 24.0501C26.9676 24.413 26.9032 24.6695 27.1284 25.2364C27.2079 25.5155 27.6709 25.7662 27.9417 25.6022C28.5152 25.2549 28.0439 24.4785 27.8376 24.123C27.0691 22.7988 25.7062 22.4918 24.3399 22.1699Z" fill="#EFDA6B"></path>
<path fill-rule="evenodd" clip-rule="evenodd" d="M10.7374 5.2967C10.3777 5.21342 9.78978 4.9577 9.46255 5.1955C9.3586 5.27104 9.28911 5.4035 9.28054 5.53377C9.27147 5.93024 9.40845 6.35428 9.59986 6.73529C9.82959 7.19253 11.1937 8.85678 10.7504 9.39189C10.6376 9.52797 9.9286 9.71202 9.71551 9.79748C9.57175 9.85512 9.37306 9.99746 9.23507 10.0811C8.90345 10.282 8.45594 10.6671 8.12728 10.8289C7.26861 11.2517 6.24079 11.7218 5.42774 12.2153C4.88602 12.5443 3.94903 13.6713 3.55299 14.2035C2.72343 15.3177 2.01683 16.2543 1.63445 17.6114C1.53954 17.9488 1.33717 18.4322 1.27897 18.7844C1.19344 19.3019 1.099 19.9183 1.01503 20.4265C0.84513 21.4591 0.151063 21.3918 0.0198304 22.2397C-0.0973241 22.9963 0.337006 23.8127 0.477228 24.491C0.915451 26.6123 1.24506 28.7898 1.89458 30.8541C2.12462 31.5852 2.41794 32.3221 2.66673 33.0475C2.70578 33.1624 2.92913 33.7441 2.93967 33.8097C3.25993 34.319 3.51345 34.8946 3.83448 35.4142C4.16803 35.9534 4.51258 36.487 4.8309 37.0333C5.09492 37.6311 5.15114 38.4982 5.49991 39.1693C6.97264 42.0352 9.38304 44.2972 12.3212 45.5714C12.633 45.707 13.2011 46.0366 13.4729 46.099C13.5709 46.121 13.67 46.1388 13.7695 46.1518C14.239 46.1723 15.1997 46.2426 15.1663 46.9346C15.1615 47.0336 15.135 47.1622 15.1172 47.2615C14.0783 47.4342 13.1611 47.2957 12.1165 47.2843C11.1017 47.2733 10.1041 47.1652 9.09593 47.0611C7.93788 46.9775 6.82386 46.7627 5.66789 46.6692C5.4441 46.6511 5.1016 46.573 4.8782 46.5193C4.68252 46.5887 4.35751 46.6763 4.28486 46.8762C4.14781 47.2544 4.58133 48.0269 4.72975 48.4059C4.92269 48.8988 5.20305 49.3756 5.34795 49.8831C5.61627 50.8244 5.80533 52.1068 6.14176 53H7.36673C7.18486 52.6836 7.18668 52.4765 7.23888 52.1679L7.26405 52.0288C7.97808 52.1755 7.98682 52.3083 8.8741 52.3868C9.44102 52.4794 10.8102 52.569 11.2264 52.7846C11.6844 53.0583 14.5987 52.7953 15.1527 53H33.6451L33.6547 47.5368L33.5463 47.5754C31.2346 48.3651 26.727 47.7039 24.3893 47.3487C24.2116 47.3109 24.2199 47.3431 24.1238 47.2292C24.1108 46.8186 24.7681 46.2011 25.1224 46.0319C26.0751 45.5438 28.3467 45.8986 29.4657 45.8553C29.853 45.8403 30.353 45.8577 30.7544 45.853C31.0906 45.8183 31.5813 45.8414 31.8938 45.7618C32.9123 45.5031 34.093 45.1501 35.0539 44.7463C35.1912 44.6442 35.346 44.5515 35.4917 44.4604C36.3984 43.6146 36.5792 43.3854 37.2207 42.3767C37.6867 41.245 37.5798 40.6151 37.3052 39.4763C37.1624 39.1065 36.912 38.7059 36.7336 38.324C36.6204 38.0451 36.5935 37.9091 36.5557 37.6114L36.4873 37.1596C36.8053 36.9462 36.987 36.6433 37.2938 36.4181C37.8136 35.8166 38.3498 35.2295 38.9014 34.6576C39.304 34.2463 39.7457 33.8352 40.1354 33.4184C40.4389 33.1109 40.6924 32.7353 40.9936 32.428C41.8479 31.5563 42.7778 30.2415 43.1289 29.0386C43.6701 27.1843 44.0302 23.9388 43.5321 22.0749C43.5887 21.9666 43.7868 21.6836 43.8185 21.5963C44.1084 20.7957 44.0035 19.4623 43.8327 18.6427C43.7574 18.2813 43.527 17.6959 43.3982 17.3552C43.0663 16.6749 43.1869 16.7253 42.6762 16.0576C42.2558 15.7379 42.0549 14.7297 41.7578 14.4534C41.2164 13.95 40.2922 13.3103 39.7048 12.821C39.5986 12.7326 39.202 12.6131 39.021 12.49L38.9836 12.4641C39.2002 11.4352 39.721 10.6534 39.9938 9.66854C40.1492 9.10751 39.914 8.84543 39.4148 8.66774C38.8984 8.48395 38.3492 8.38379 37.8263 8.22456C37.1375 8.01489 36.4871 7.68347 35.755 7.65723C35.5456 7.64997 35.1184 7.59431 34.967 7.72932C34.868 7.93765 34.9312 8.18294 34.9767 8.40109C35.1953 8.60892 36.0306 8.63836 36.3474 8.74245C36.5417 8.80629 36.6512 8.86253 36.8336 8.95441C36.0266 9.15229 35.6265 9.16012 34.8007 9.19194C34.4291 9.20626 33.9934 9.27987 33.6123 9.28421C32.8777 9.29257 31.4901 9.2146 30.824 9.50341C30.5749 9.81141 30.8497 10.081 31.0753 10.306C31.6247 10.4427 33.1941 10.3434 33.8096 10.3446C35.3624 10.3477 36.8627 10.257 38.4194 10.3395C38.345 10.5675 38.2633 10.793 38.1744 11.0156C37.9144 11.6492 37.5402 12.1934 37.2007 12.7829C36.9844 13.1586 36.7995 13.5793 36.5316 13.9195C36.4178 14.0639 36.2713 14.213 36.099 14.283C35.1794 14.6564 32.4544 14.5552 31.3887 14.5424C31.0657 14.5385 30.7284 14.5337 30.4069 14.5686C30.1628 14.5951 29.9083 14.6616 29.6634 14.6613C29.4666 14.6611 29.2682 14.5935 29.0722 14.5721C28.7733 14.5396 28.4598 14.5471 28.1583 14.539C27.2719 14.5151 26.3742 14.5728 25.4909 14.5225C25.1111 14.5009 24.7314 14.4262 24.3541 14.3774C23.8669 14.3144 23.371 14.2738 22.8815 14.2322C22.3865 14.19 21.8753 14.2272 21.3846 14.1581C20.8531 14.0831 20.2827 13.9772 19.7563 13.8634C19.4599 13.7993 19.169 13.7056 18.8691 13.6594C18.5684 13.6132 18.2609 13.6069 17.9586 13.5701C17.5112 13.5156 17.0673 13.4365 16.6189 13.3906C16.2175 13.3496 15.8062 13.331 15.4093 13.2591C14.8555 13.1587 14.3151 12.9427 13.768 12.8067C13.4675 12.7319 13.1158 12.7775 12.8288 12.6562C12.7748 12.5427 12.6492 11.6379 12.6439 11.4881C12.6266 11.3382 12.6161 11.1688 12.6126 11.0189C12.5958 10.2884 12.4894 9.59447 12.2568 8.90111C12.1802 8.67279 12.1307 8.45184 12.0226 8.23042C11.8276 7.83081 11.4833 7.52467 11.3109 7.11809C11.1651 6.37514 11.6494 6.34942 12.0829 6.79629C12.289 7.61861 12.0013 7.90663 13.0674 8.10041C13.9389 8.23212 14.7726 8.27758 15.6469 8.42112C16.6513 8.6069 17.8106 8.79984 18.784 9.11492C19.7124 9.41545 20.2507 9.34789 21.1321 9.48816C22.356 9.68296 23.4558 9.84058 24.7079 9.78423C25.1233 9.76554 25.5611 9.7921 25.9772 9.71198C26.2808 9.65824 26.2956 8.87208 25.8797 8.88956C25.4881 8.83644 24.9963 8.90743 24.6148 8.84828C23.5383 8.68143 22.5005 8.56939 21.411 8.52987C21.086 8.52461 20.5 8.30991 20.2032 8.31452C19.2253 8.32962 18.4761 8.08771 17.5525 7.80218C17.095 7.66074 16.5131 7.63599 16.0468 7.50119C15.6619 7.38994 14.8887 7.43072 14.5632 7.22484C14.2508 7.13579 13.9981 7.15135 13.6749 7.10407L13.6388 7.09991C12.7759 6.99635 13.0491 6.51398 12.6088 5.99436C12.1973 5.50883 11.316 5.43878 10.7374 5.2967ZM6.73784 49.7972C6.92719 49.6832 7.77195 50.0017 8.05191 50.0124C8.59266 50.0329 9.11338 50.1315 9.64639 50.2092C11.4674 50.475 13.5715 50.0381 15.3507 50.4514C16.0704 50.5334 16.7775 50.6947 17.4922 50.7767C18.5405 50.897 20.2164 50.9025 21.2632 50.8043C22.3315 50.6276 22.5194 50.5997 23.5691 50.8379C24.0685 50.9514 24.6004 50.8177 25.2118 51.0113C25.8203 51.0795 26.1499 51 26.7363 50.9956C27.0492 50.9932 27.6064 51.1544 27.9577 51.1812C28.5191 51.2242 29.2317 51.1162 29.7663 51.1537C30.4132 51.1994 30.7738 51.3706 31.4977 51.4021L32.7097 51.4396C32.7142 51.7807 32.7257 51.9555 32.6228 52.2871C32.0118 52.3352 31.1861 52.2709 30.5527 52.2985C30.4253 52.304 29.4753 52.3296 29.3966 52.3221L29.2132 52.3279C28.2897 52.349 27.2814 52.2603 26.4455 52.5812C25.1453 52.2298 24.6632 52.4499 23.386 52.3604C23.0309 52.3849 21.787 52.6203 21.5461 52.3647C21.1043 52.4538 18.759 52.2736 18.2134 52.2432C18.052 52.2341 17.6142 52.0721 17.4157 52.0607C17.0317 52.0315 16.644 52.1154 16.2604 52.0862C14.4037 51.9447 12.555 51.7227 10.6959 51.5894C10.1845 51.5528 9.54884 51.3137 9.03475 51.2187C8.54741 51.1284 8.05091 51.0263 7.57529 50.8923C7.38973 50.9971 7.12 51.1833 6.93404 51.3035C6.87691 50.9601 6.59793 50.063 6.73784 49.7972ZM24.0026 48.4804C24.5476 48.5199 25.0611 48.6843 25.598 48.7502C25.8205 48.7774 26.1675 48.7907 26.3913 48.7891C27.1848 48.784 27.9334 48.8834 28.7166 48.9643C29.4183 49.0368 30.1748 49.0108 30.8834 49.0553C31.1543 49.0664 32.0328 49.0206 32.2322 49.1827C32.3729 49.2975 32.3678 49.7554 32.3762 49.9521C32.1356 49.9853 31.8752 50.0102 31.6482 50.0922C31.1432 50.3347 30.5875 49.9974 30.0302 49.9765C27.9989 49.9012 25.3792 50.2139 23.4612 49.5341C23.4082 49.1253 23.4197 48.5197 23.9496 48.4823L24.0026 48.4804ZM23.6048 17.9629C24.1336 18.0762 24.7667 18.002 25.3148 18.222C25.9361 18.4817 26.7175 18.8711 27.2172 19.3221C28.6193 20.5881 28.9814 23.1228 31.3743 21.8472C31.7064 21.904 32.1332 22.1646 32.3836 22.1918C32.4831 22.2024 32.8661 21.7885 33.1131 21.5149L33.2993 21.309C33.9195 21.6203 34.7365 22.7147 35.556 23.0256C35.8523 23.1381 36.5319 24.2136 37.0527 23.9197C37.6476 23.6098 37.7218 22.7946 37.9596 22.2556C38.4708 21.0965 38.3086 19.0967 38.6848 18.0353L38.7031 17.9855C39.7389 18.4572 41.0608 19.086 41.7106 20.0933C41.7854 20.2093 41.8576 20.5018 41.8963 20.6457C42.1202 21.6115 42.236 22.6252 42.4141 23.6031C42.4264 23.6706 42.3941 23.8205 42.3729 23.8865C42.3338 24.5494 42.4097 25.2534 42.3502 25.9234C42.3307 26.1431 42.331 26.4098 42.2811 26.6266C42.0943 27.4649 41.9503 28.4337 41.6404 29.2325C41.3263 30.0421 40.5655 30.8005 40.0301 31.4467C39.313 32.3123 38.7581 32.9586 37.8246 33.5931C37.5343 33.7905 37.17 34.5087 36.907 34.7806C36.3412 35.4093 35.5255 36.0351 35.0454 36.7263C34.7988 37.0814 35.0327 38.4119 35.1844 38.8378C35.4226 39.5067 35.8868 40.2512 35.8549 40.9957C35.7522 41.5711 35.3219 42.7439 34.8719 43.1469C34.5994 43.391 34.2874 43.5113 33.9704 43.6426C33.0636 44.2471 31.1962 44.7105 30.1066 44.6762C29.8585 44.6916 29.5154 44.6521 29.2606 44.6308L29.2188 44.6328C28.4592 44.6643 27.6832 44.5054 26.8986 44.5693C25.4807 44.6845 24.6783 44.4905 23.5525 45.5438C23.2393 46.0367 22.9245 46.6041 22.7103 47.1471C22.4025 47.9279 22.2299 48.6047 21.7743 49.3212C20.7533 49.3819 19.7289 49.3803 18.7051 49.3791C18.1533 49.3787 17.4097 49.4079 16.9655 49.0262C16.7256 48.8204 16.7401 48.2958 16.717 47.9906C16.6547 47.3742 16.7419 46.6577 16.3696 46.1376C16.0341 45.6691 15.3632 45.2748 14.8593 45.0145C14.512 44.9408 14.1921 44.8954 13.8516 44.7976C12.9159 44.5279 10.5434 43.3855 9.95961 42.6145C8.97405 41.9576 7.82224 40.4148 7.2108 39.3726C6.61707 38.7657 6.47556 37.1229 6.16953 36.3566C6.12219 36.2382 6.07231 36.1785 6.05403 36.0487C6.1582 36.013 6.2976 36.0561 6.41257 36.072C7.08365 36.1641 8.12272 36.2374 8.66935 35.7836C9.11346 35.415 9.44271 34.9515 9.52739 34.3747C9.91005 34.3717 10.2346 34.3698 10.6144 34.3328C10.6378 34.129 10.7528 33.627 10.6749 33.4611C10.5408 33.1758 9.93108 33.0369 9.66668 32.8223C9.23979 32.4758 8.62373 31.9666 8.37795 31.4766C8.26976 31.2609 8.21075 30.9415 8.13994 30.7221C7.88736 29.9397 7.83982 29.2867 8.10927 28.4934C8.26628 28.0313 9.24829 26.9385 9.69811 26.6932C9.86655 26.6014 10.1828 26.605 10.3577 26.6919C11.4187 27.2201 11.8945 28.3806 12.2756 29.4376C12.3503 29.5896 12.428 29.815 12.607 29.8532C13.4603 30.0462 13.2676 29.4194 13.5106 29.1261C14.0049 28.5295 14.7265 28.0454 14.9939 27.244C15.0911 26.9525 15.1728 26.5814 15.3715 26.333C15.7983 25.7995 16.5797 25.6154 16.8894 24.9676C17.1323 24.3612 16.966 23.4731 17.141 22.8042C18.0196 22.7506 19.0818 22.935 19.8588 22.5857C20.2586 22.406 20.7274 22.0358 21.0945 21.7819C22.054 21.1182 22.9493 20.6882 23.5444 19.6198C23.6875 19.3629 23.8274 19.218 23.9446 18.9012C23.8713 18.5496 23.8142 18.3642 23.6715 18.0877L23.6048 17.9629ZM6.45605 48.689C6.07838 47.941 7.20065 48.0198 7.63006 48.0411C8.12162 48.1661 8.85229 48.1784 9.36948 48.2163C10.5177 48.2999 11.6622 48.3565 12.8122 48.3956C13.2315 48.4098 13.8906 48.581 14.3215 48.6528C14.7154 48.7183 15.0881 48.5529 15.2758 48.8771C15.3239 48.9599 15.3249 48.9872 15.3158 49.0775C15.0933 49.2856 14.2621 49.0834 13.9113 49.0929C12.6176 49.0953 11.339 49.2281 10.0501 49.0479C9.3885 48.9552 8.80209 48.7076 8.14238 48.5873C7.70861 48.5085 6.69961 48.8164 6.45605 48.689ZM8.59337 11.9747C9.53873 11.4903 10.0889 10.8064 11.2421 10.9203C11.5763 11.6686 11.4486 12.9642 11.5607 13.7366C11.9286 14.4105 12.3545 14.2723 12.8865 13.9526L12.9943 13.8865C13.6928 13.881 14.0628 14.0955 14.7013 14.1853C16.4562 14.4323 18.1845 14.6054 19.9115 15.037C20.2325 15.1173 20.6993 15.08 21.0311 15.1536C21.6258 15.2554 22.1255 15.34 22.7271 15.4053C23.4241 15.4811 24.033 15.4412 24.7128 15.4779C25.2665 15.5078 25.862 15.6201 26.4363 15.6554C28.8224 15.8011 31.2145 15.8158 33.6021 15.6994C34.7155 15.6539 36.6028 15.7615 37.5542 14.9559C37.9229 14.6437 38.1831 13.8005 38.4345 13.3353C38.8341 13.5701 39.2772 13.7348 39.6191 14.0245C39.935 14.2923 40.0443 14.8322 40.2869 15.1553C40.4381 15.3568 40.8012 15.6875 41.0038 15.8464C41.7745 16.4506 42.1874 17.142 42.4327 18.0877C42.4678 18.2228 42.5645 18.5212 42.5154 18.6357C42.3112 18.7169 41.4357 18.0879 41.1835 17.9459C40.0486 17.3075 38.8817 16.5743 37.6153 16.2459C37.4899 16.2142 37.0248 16.3276 36.891 16.3313C36.7825 16.9626 36.9021 17.7653 36.9781 18.4108C37.0626 18.9175 37.1889 21.295 36.4527 21.3549C36.1986 21.249 35.9696 20.7518 35.7915 20.5194C35.4211 20.0362 35.0372 19.5638 34.6487 19.0954C34.4354 18.8382 34.0924 18.6304 33.8763 18.372C33.6098 18.2037 33.079 17.7026 32.8559 17.471C32.5997 17.2473 32.0767 16.8914 31.89 17.3094C31.6246 17.9038 31.6465 19.3719 31.6465 20.0035C30.8061 20.1487 30.818 20.2474 30.1106 20.6392C29.3402 20.2342 29.0858 19.3113 28.4639 18.7389C27.8379 18.1628 27.1318 17.8506 26.3843 17.4889C26.0561 17.3301 25.6752 17.0193 25.3145 16.9168C24.9868 16.8236 24.5666 16.7914 24.2291 16.7403C23.0095 16.5555 20.7133 16.3383 19.5499 16.6331C19.4911 16.9914 19.4042 17.3433 19.6191 17.6591C20.0603 18.0017 22.6057 17.417 23.0315 17.8928C22.995 18.2609 22.3548 19.1792 22.0959 19.4967C21.3291 20.4366 20.075 20.7898 19.2092 21.6016C18.3835 21.6336 17.5429 21.6385 16.7161 21.6469C16.0733 21.6534 15.4888 21.5494 14.8503 21.6794L14.866 22.3515C15.3824 23.0825 16.3462 23.7768 15.1599 24.7037C15.1277 24.7288 15.1266 24.725 15.0873 24.735L15.0571 24.7527C14.7402 24.9355 13.7821 25.1637 13.6809 25.5671C13.5561 26.0649 14.0405 26.808 13.3346 27.2206C13.2799 27.2525 13.1224 27.3281 13.0696 27.3056C12.6697 27.1356 12.1684 26.4787 11.8168 26.1878C11.1521 25.6377 9.76548 24.8865 8.95648 25.379C8.48926 25.6635 7.34412 26.865 7.04344 27.3257C6.91939 27.5146 6.826 27.7223 6.76683 27.9409C6.63888 28.4025 6.6743 28.7263 6.65149 29.186C6.56886 30.8538 7.02889 32.1924 8.28793 33.3068C8.55635 33.5086 8.74378 33.6583 8.64036 34.0312C8.57029 34.1993 8.44074 34.3138 8.31768 34.4427C7.60379 35.1902 6.87733 34.66 6.02459 34.9706C5.9092 35.2734 5.93591 35.5523 5.82015 35.8122C5.62057 35.7609 5.36083 35.4416 5.21751 35.2871C4.73749 34.7699 4.00242 32.9917 3.66223 32.2758C3.53491 32.0082 3.35336 31.7392 3.25884 31.4598C3.10144 30.9943 3.04992 30.4654 2.94486 29.9832L1.85476 24.82C1.82313 24.6649 1.78394 24.4817 1.74919 24.3286C1.5332 23.3831 1.40991 23.4299 2.13442 22.7989C2.39802 22.1064 2.33274 21.0216 2.41514 20.2635C2.52255 19.2737 2.89254 18.082 3.26006 17.1549C3.38934 16.8297 3.85876 16.1934 4.06577 15.888C4.57351 15.1391 5.19215 14.0529 5.90849 13.4958C6.72693 12.8837 7.69009 12.4375 8.59337 11.9747Z" fill="#EFDA6B"></path>
<path d="M24.1565 0C23.9507 0.263864 23.4318 1.33164 23.1232 1.41872C22.8364 1.49956 22.2008 1.09694 21.8861 1.06088C20.1866 0.866185 18.4767 0.394453 16.762 0.730617C16.5134 0.779408 15.9725 1.40277 15.7979 1.60988C15.2771 2.18877 15.3634 3.15063 15.0937 3.7928C14.7285 4.66218 14.2981 4.72931 14.111 5.76684C14.1858 6.21854 14.2069 6.37799 14.4212 6.79506L14.4778 6.80138C14.757 6.8317 15.1008 6.87811 15.3321 6.69031C15.6699 5.77157 16.286 4.66095 16.4959 3.82145C16.613 3.24206 16.9204 1.8819 17.6544 1.83925C18.7774 1.77399 20.0641 1.97087 21.1727 2.1615C22.6624 2.41765 23.8495 3.35291 24.8539 1.59664C24.8969 1.52179 24.9351 1.47724 25.0177 1.46832C25.5072 1.6492 25.9006 2.42926 26.3141 2.56324C26.7829 2.71509 27.2967 2.99244 27.7446 3.12827C28.3731 3.31886 29.0772 3.45107 29.717 3.6118C30.0761 3.70202 30.4394 3.85484 30.7946 3.95839C31.4992 4.16377 31.979 4.17952 32.5712 4.70534C33.2945 5.3476 32.7846 6.29048 33.3011 6.82849C33.5286 7.06115 34.1214 7.08495 34.4087 7.0825C34.814 7.07891 34.4363 5.72238 34.4304 5.46954C34.4264 5.29585 34.1639 4.54504 34.0633 4.42221C32.8277 2.91343 30.4993 2.68273 28.734 2.1974C28.2594 2.07111 27.8917 2.02265 27.4471 1.83478C26.7684 1.54798 26.4401 1.09847 25.9125 0.63619C25.6673 0.421266 25.3041 0.182601 25.0319 0H24.1565Z" fill="#EFDA6B"></path>
<path d="M79.7298 40.2856C78.0701 39.7 76.7203 38.7571 75.6803 37.4569C74.6655 36.1656 74.0079 34.7035 73.7075 33.0705C73.4322 31.4463 73.5697 29.8547 74.1198 28.2956C74.6966 26.661 75.5885 25.3356 76.7954 24.3193C78.0024 23.303 79.3632 22.6521 80.8779 22.3665C82.4266 22.0646 83.9554 22.1799 85.4642 22.7123C86.7467 23.1648 87.8273 23.8289 88.706 24.7045C89.5847 25.5802 90.263 26.583 90.7408 27.7131C91.2527 28.8269 91.5361 29.9873 91.5909 31.1943C91.6457 32.4014 91.4779 33.5581 91.0875 34.6646C90.5107 36.2991 89.6018 37.6327 88.3608 38.6653C87.1287 39.6727 85.7509 40.3318 84.2273 40.6425C82.7127 40.9281 81.2135 40.8091 79.7298 40.2856ZM81.6933 37.9668C82.1208 38.1177 82.6259 38.1687 83.2087 38.1198C83.8167 38.0798 84.4069 37.8498 84.9793 37.4296C85.5517 37.0095 86.0065 36.3216 86.3437 35.3661C86.6099 34.6116 86.7607 33.7034 86.7962 32.6413C86.8567 31.5881 86.7738 30.5409 86.5474 29.4995C86.3299 28.433 85.9667 27.499 85.4578 26.6973C84.9578 25.8704 84.3054 25.315 83.5007 25.0311C82.5954 24.7116 81.6835 24.7716 80.7649 25.211C79.8804 25.6341 79.2296 26.4366 78.8126 27.6185C78.5463 28.3729 78.383 29.2767 78.3224 30.3299C78.2958 31.3669 78.3913 32.4186 78.6088 33.4851C78.8264 34.5515 79.1851 35.4982 79.6852 36.325C80.1941 37.1267 80.8634 37.674 81.6933 37.9668Z" fill="#EFDA6B"></path>
<path d="M95.6804 40.2312C94.0653 39.5321 92.7839 38.498 91.8365 37.1289C90.9135 35.7705 90.3587 34.2664 90.1721 32.6165C90.0099 30.9772 90.2573 29.3989 90.914 27.8816C91.6026 26.2909 92.5841 25.0304 93.8585 24.1001C95.1329 23.1698 96.5356 22.6146 98.0664 22.4346C99.6323 22.2407 101.149 22.4615 102.618 23.0971C103.866 23.6373 104.898 24.3746 105.714 25.309C106.53 26.2434 107.137 27.2908 107.535 28.4512C107.969 29.5978 108.171 30.775 108.142 31.983C108.114 33.1909 107.866 34.3332 107.4 35.41C106.711 37.0007 105.712 38.2682 104.403 39.2123C103.104 40.132 101.684 40.6941 100.142 40.8986C98.6116 41.0787 97.1243 40.8562 95.6804 40.2312ZM97.7997 38.0539C98.2158 38.234 98.7162 38.3199 99.301 38.3115C99.9102 38.3137 100.515 38.125 101.115 37.7455C101.715 37.366 102.217 36.7113 102.619 35.7814C102.937 35.0472 103.15 34.1516 103.259 33.0945C103.392 32.048 103.382 30.9976 103.228 29.943C103.085 28.864 102.788 27.9071 102.335 27.072C101.894 26.2126 101.282 25.6133 100.498 25.2744C99.6174 24.893 98.7035 24.8897 97.7567 25.2644C96.845 25.6253 96.1403 26.3808 95.6424 27.531C95.3246 28.2652 95.099 29.1555 94.9657 30.202C94.8674 31.2346 94.8898 32.2904 95.033 33.3694C95.1761 34.4484 95.4685 35.4176 95.9101 36.2771C96.3623 37.1121 96.9921 37.7044 97.7997 38.0539Z" fill="#EFDA6B"></path>
<path d="M76.8246 30.4696C77.0633 30.5465 77.2248 30.6262 77.325 30.6876C77.4431 30.7599 77.4533 30.8937 77.3837 31.1237C77.0975 32.0694 76.7031 33.0668 76.1577 34.105C75.6123 35.1433 74.6174 36.0764 73.7095 37.0191C72.814 37.949 71.7045 38.75 70.3932 39.4226C69.1142 40.0786 67.5709 40.512 65.7751 40.7433C62.8287 41.1227 60.253 40.8628 58.048 39.9635C55.843 39.0643 54.0722 37.6789 52.7355 35.8074C51.3989 33.9358 50.5633 31.7578 50.2289 29.2731C50.0724 28.1101 50.0212 26.8772 50.1168 25.5767C50.2128 24.271 50.5161 22.9867 50.9675 21.7159C51.427 20.4223 52.0935 19.2113 53.008 18.1053C53.9349 16.9843 55.1482 16.0621 56.613 15.3017C58.11 14.5245 59.919 13.9886 62.0516 13.7139C63.8195 13.4863 65.3745 13.5132 66.725 13.7575C68.0665 14.0002 69.196 14.3951 70.1373 14.9315C71.0824 15.47 71.862 16.0467 72.472 16.688C73.0925 17.3404 73.5647 17.9471 73.8752 18.5241C74.1738 19.0787 74.3507 19.5116 74.3934 19.8287C74.4361 20.1459 74.2559 20.3977 73.8527 20.5841C72.0484 21.4182 71.0721 21.9538 69.2678 22.7879C69.0259 22.8997 68.8189 22.9556 68.6471 22.9485C68.5031 22.9425 68.417 22.8302 68.3886 22.6188C68.3601 22.4073 68.3421 22.1676 68.3346 21.8997C68.3271 21.6317 68.3002 21.326 68.254 20.9823C68.1615 20.2951 67.8819 19.5828 67.4501 18.8271C67.023 18.0798 66.395 17.4571 65.531 16.9767C64.6671 16.4964 63.5195 16.3484 62.0884 16.5327C60.7696 16.7025 59.7021 17.1492 58.8859 17.8728C58.0698 18.5964 57.4415 19.4814 57.0174 20.5335C56.6068 21.5519 56.3472 22.6345 56.255 23.7779C56.1654 24.8899 56.2029 25.9358 56.3345 26.9138C56.6369 29.1605 57.172 31.1122 57.9768 32.7527C58.785 34.4004 59.8515 35.6448 61.1728 36.4553C62.4966 37.2674 64.0868 37.5322 65.9108 37.2973C67.7347 37.0624 69.204 36.5879 70.2971 35.8451C71.4011 35.0948 72.5219 34.2957 73.0987 33.3292C73.6866 32.344 74.1102 31.4105 74.3934 30.5407C74.494 30.2317 74.6276 30.0534 74.7924 30.0053C74.9572 29.9572 75.1888 29.9811 75.4872 30.0772C76.0047 30.2437 76.307 30.3031 76.8246 30.4696Z" fill="#EFDA6B"></path>
<path d="M106.163 41.4095C105.82 41.4095 105.649 41.2373 105.649 40.8929V39.8201C105.649 39.4757 105.82 39.3035 106.163 39.3035C107.032 39.3035 107.678 38.9856 108.099 38.3499C108.521 37.7141 108.732 36.9327 108.732 36.0055V22.8929C108.732 22.2572 108.692 21.6479 108.613 21.0651C108.56 20.4823 108.389 19.9923 108.099 19.5949C107.81 19.1711 107.335 18.9194 106.677 18.8399C106.387 18.8135 106.242 18.6545 106.242 18.3631V17.1313C106.242 16.9989 106.295 16.9062 106.4 16.8532C106.532 16.8002 106.663 16.7605 106.795 16.734C108.244 16.3896 109.417 15.9658 110.312 15.4625C111.235 14.9592 112.183 14.3101 113.158 13.5154C113.21 13.4625 113.263 13.436 113.316 13.436H113.395C113.448 13.436 113.474 13.4625 113.474 13.5154V36.0055C113.474 37.3565 113.592 38.2439 113.83 38.6678C114.067 39.0916 114.607 39.3035 115.45 39.3035C115.819 39.3035 116.003 39.4757 116.003 39.8201V40.8929C116.003 41.2373 115.819 41.4095 115.45 41.4095H106.163ZM119.995 43.436C119.652 43.436 119.481 43.2638 119.481 42.9194V41.8466C119.481 41.5022 119.639 41.33 119.955 41.33H120.074C120.284 41.33 120.495 41.2903 120.706 41.2108C120.917 41.1313 121.022 40.9989 121.022 40.8135C121.022 40.6545 120.917 40.4823 120.706 40.2969L113.869 32.787L116.754 29.8863L126.476 40.2572C126.871 40.6545 127.174 40.9327 127.385 41.0916C127.622 41.2505 127.859 41.33 128.096 41.33H128.214C128.504 41.33 128.649 41.5022 128.649 41.8466V42.9194C128.649 43.2638 128.478 43.436 128.135 43.436H119.995ZM113.118 34.3764V31.277L117.821 26.9856C118.005 26.8002 118.098 26.628 118.098 26.4691C118.098 26.1777 117.874 26.032 117.426 26.032H116.359C116.069 26.032 115.924 25.8598 115.924 25.5154V24.4426C115.924 24.0982 116.095 23.926 116.438 23.926H124.144C124.513 23.926 124.697 24.0982 124.697 24.4426V25.5154C124.697 25.8598 124.539 26.032 124.223 26.032H123.828C123.143 26.032 122.537 26.2042 122.01 26.5486C121.483 26.8929 120.772 27.4757 119.876 28.2969L113.118 34.3764Z" fill="#EFDA6B"></path>
<path d="M141.346 35.0538C140.899 36.4907 140.202 37.7234 139.254 38.7518C138.333 39.7745 136.987 40.4814 135.217 40.8724C133.316 41.2922 131.583 41.2379 130.019 40.7094C128.449 40.1548 127.134 39.2709 126.075 38.0576C125.035 36.8125 124.334 35.3697 123.972 33.7292C123.621 32.1408 123.556 30.735 123.778 29.5118C123.993 28.2626 124.401 27.2031 125.001 26.3333C125.601 25.4634 126.335 24.7688 127.203 24.2493C128.066 23.7038 128.966 23.3275 129.904 23.1205C131.101 22.856 132.205 22.8444 133.214 23.0858C134.249 23.3215 135.157 23.7218 135.937 24.2869C136.712 24.8259 137.341 25.4515 137.826 26.1636C138.305 26.8498 138.617 27.5183 138.761 28.1693C138.807 28.3776 138.734 28.5438 138.543 28.668L127.708 36.5499L126.908 34.5965L135.525 27.614L133.689 31.5424C133.806 30.3422 133.686 29.3037 133.328 28.4268C132.997 27.5442 132.523 26.8841 131.908 26.4465C131.292 26.0089 130.646 25.8649 129.969 26.0144C129.084 26.2099 128.47 26.6459 128.128 27.3222C127.786 27.9986 127.628 28.7707 127.656 29.6384C127.704 30.4744 127.854 31.2744 128.104 32.0383C128.375 32.7704 128.655 33.2958 128.944 33.6143L129.281 34.7688C129.644 35.4259 130.132 36.0282 130.745 36.5756C131.383 37.1174 132.1 37.5189 132.895 37.7803C133.685 38.0156 134.561 38.0269 135.524 37.8141C136.28 37.6473 137.002 37.2694 137.691 36.6803C138.38 36.0911 138.919 35.3167 139.308 34.3569C139.427 34.0302 139.621 33.9191 139.89 34.0236L141.13 34.4461C141.367 34.5303 141.439 34.7328 141.346 35.0538Z" fill="#EFDA6B"></path>
<path d="M146.649 41.4359C145.849 41.4359 144.995 41.2759 144.089 40.9559C143.182 40.6093 142.329 40.0759 141.529 39.3559C140.729 38.6359 140.075 37.6893 139.569 36.5159C139.062 35.3159 138.809 33.8626 138.809 32.1559C138.809 29.9693 139.195 28.2093 139.969 26.8759C140.769 25.5159 141.795 24.5293 143.049 23.9159C144.302 23.2759 145.635 22.9559 147.049 22.9559C148.622 22.9559 149.835 23.1959 150.689 23.6759C151.569 24.1293 152.102 24.5026 152.289 24.7959L151.729 25.0759V22.3159C151.729 21.6493 151.689 21.0226 151.609 20.4359C151.529 19.8493 151.342 19.3559 151.049 18.9559C150.755 18.5559 150.289 18.3293 149.649 18.2759C149.355 18.2493 149.209 18.0893 149.209 17.7959V16.5959C149.209 16.4626 149.249 16.3693 149.329 16.3159C149.409 16.2359 149.542 16.1826 149.729 16.1559C151.195 15.8093 152.395 15.3826 153.329 14.8759C154.262 14.3693 155.222 13.7159 156.209 12.9159C156.289 12.8626 156.355 12.8359 156.409 12.8359H156.449C156.502 12.8359 156.529 12.8626 156.529 12.9159V34.4759C156.529 35.3026 156.662 36.0626 156.929 36.7559C157.195 37.4226 157.755 37.8093 158.609 37.9159C158.902 37.9426 159.049 38.1026 159.049 38.3959V39.5559C159.049 39.8759 158.862 40.0359 158.489 40.0359C157.342 40.0359 156.382 40.1026 155.609 40.2359C154.862 40.3693 154.209 40.5426 153.649 40.7559C153.089 40.9426 152.542 41.1559 152.009 41.3959C151.982 41.4226 151.915 41.4359 151.809 41.4359H151.689C151.635 41.4359 151.609 41.4093 151.609 41.3559C151.662 40.6626 151.715 40.0359 151.769 39.4759C151.849 38.8893 151.955 38.1959 152.089 37.3959H152.289C152.235 37.6359 152.102 37.9826 151.889 38.4359C151.675 38.8626 151.355 39.3159 150.929 39.7959C150.502 40.2493 149.942 40.6359 149.249 40.9559C148.555 41.2759 147.689 41.4359 146.649 41.4359ZM148.209 38.3559C149.062 38.3559 149.729 38.1826 150.209 37.8359C150.689 37.4626 151.035 37.0893 151.249 36.7159C151.462 36.3159 151.582 36.0893 151.609 36.0359V28.9559C151.529 28.4759 151.355 27.9559 151.089 27.3959C150.822 26.8359 150.422 26.3559 149.889 25.9559C149.355 25.5293 148.622 25.3159 147.689 25.3159C146.569 25.3159 145.689 25.5959 145.049 26.1559C144.435 26.6893 143.995 27.3959 143.729 28.2759C143.489 29.1293 143.369 30.0493 143.369 31.0359C143.369 33.3026 143.809 35.0893 144.689 36.3959C145.595 37.7026 146.769 38.3559 148.209 38.3559Z" fill="#EFDA6B"></path>
</svg>