<svg width="219" height="249" viewBox="0 0 219 249" fill="none" xmlns="http://www.w3.org/2000/svg">
<path fill-rule="evenodd" clip-rule="evenodd" d="M94.5204 12.3481C93.2738 7.0466 89.9442 -2.08243 99.5166 0.427908C102.474 1.20346 103.621 2.88494 105.141 5.47495C106.004 6.65493 107 8.04846 107.683 9.34317C109.08 9.58509 109.34 9.61577 110.374 10.5785C112.902 13.7938 114.813 19.3223 116.968 22.8574C118.009 24.5646 119.461 25.7436 120.721 27.2292C121.936 28.6635 123.204 30.4828 124.226 32.0683C125.923 34.1949 126.896 36.1992 128.171 38.5484C129.034 40.1703 130.531 41.8365 131.288 43.4727C132.557 46.2183 134.179 48.7976 135.476 51.5101C137.378 55.7244 139.789 59.6411 141.804 63.782C142.183 64.5612 142.852 66.5625 142.995 67.4273C143.471 70.3024 145.095 72.1622 146.236 74.7205C147.268 77.0331 148.007 79.6601 148.951 82.0234C150.316 85.2145 151.913 88.3255 153.123 91.6011C153.536 92.4873 154.447 93.3562 154.838 94.2329C155.368 95.3841 155.425 97.6005 155.979 98.6256C157.462 101.368 158.443 104.413 159.7 107.198C161.475 111.133 163.02 114.324 163.806 118.643C163.964 119.517 165.365 122.282 165.779 123.417C166.708 125.475 166.942 126.427 169.24 127.231C174.859 129.196 180.204 129.747 185.852 131.783C187.097 132.064 195.724 134.273 196.542 134.688C199.919 135.344 203.668 136.008 206.775 137.396C208.49 138.079 209.661 138.564 211.428 139.081C213.049 139.554 215.925 140.063 217.362 140.658C220.527 142.07 218.527 144.999 216.223 146.004C214.254 146.864 212.346 147.712 210.279 148.359C208.98 148.82 207.37 149.009 206.048 149.464C199.994 152.588 193.399 154.219 187.06 156.599C184.032 157.734 180.069 157.962 177.306 159.367L176.636 159.7C175.615 161.252 176.163 161.895 176.246 163.75C176.833 168.67 177.46 173.371 178.329 178.257C178.825 181.046 178.586 184.265 179.011 187.098C179.326 189.767 180.143 192.398 180.585 195.073L182.704 207.458C182.997 209.157 183.134 210.899 183.493 212.594C184.04 215.169 185.329 218.382 185.676 220.924C186.018 223.44 188.728 225.652 189.148 227.132C189.76 227.867 190.293 228.85 190.681 229.723C191.621 231.249 193.273 233.383 194.73 234.474C197.376 236.26 197.789 237.941 199.628 240.513C201.383 242.968 203.448 248.275 198.678 248.942C197.666 249.084 195.92 248.96 194.918 248.632C191.201 246.522 190.471 244.998 188.377 241.856L187.94 241.206C185.859 239.274 185.024 236.412 183.696 233.956C179.851 226.847 176.748 222.724 170.651 217.464C169.531 216.393 167.738 214.881 166.823 213.712C166.286 213.366 164.496 211.222 163.851 210.562C162.659 209.343 160.272 207.682 159.258 206.511C156.875 203.76 155.415 201.92 152.728 199.435C151.52 198.89 147.119 194.206 145.842 193.04C142.856 190.316 139.714 188.031 136.593 185.482C134.697 183.882 133.284 181.552 131.489 179.902C130.51 179.002 128.63 177.884 127.458 177.038C125.751 175.765 125.089 174.8 122.937 174.206C119.4 173.233 117.561 174.639 114.253 175.334C109.927 176.244 105.683 176.484 101.398 177.838C96.4448 178.644 91.2417 180.253 86.2065 181.042C83.8282 181.587 81.1456 181.557 78.7945 182.081C72.7729 183.421 66.8847 184.852 60.825 186.072C54.8721 187.268 49.0776 189.435 43.0671 190.515C41.0209 190.883 38.5538 192.153 36.476 192.597C32.1957 193.263 28.972 194.036 25.0161 195.882C23.2998 196.683 20.1631 197.097 18.2847 197.692C16.6819 198.08 13.4195 197.35 11.9543 196.526C7.45756 189.288 25.6588 187.615 29.3922 186.245C31.8836 185.332 34.6307 184.665 37.1318 183.709C41.7132 182.683 46.5298 180.956 51.0199 179.977C56.3751 178.116 57.9162 177.129 62.7119 174.209C64.2705 173.219 65.514 171.814 67.1576 170.654C69.2052 168.633 71.9061 166.809 74.1275 164.95C76.3149 163.346 77.9765 160.836 79.875 159.047C82.2718 156.79 83.8678 155.129 85.5264 152.255C86.0984 151.264 88.4643 149.666 88.5894 148.315C85.744 145.401 80.6245 143.191 77.1224 140.77C71.7939 137.089 65.6235 134.175 60.1719 130.613C57.495 128.865 54.6296 127.374 52.0006 125.493C50.9131 124.714 49.2855 124.151 48.1318 123.414C43.4411 120.617 38.5833 118.207 33.6948 115.78C32.1806 115.03 30.9469 113.698 29.4801 112.998C25.419 111.058 21.2054 109.359 17.1712 107.36C14.9868 106.278 13.0597 104.369 10.7901 103.365C7.95388 102.149 5.84714 101.647 3.12013 100.075C2.9029 99.9312 2.69085 99.779 2.48488 99.6192C1.355 98.7362 0.166954 97.6133 0 96.1333L0.288751 94.8021C0.510066 94.5644 0.896472 94.3257 1.19926 94.2302C4.61952 93.151 6.35911 93.4956 9.40357 94.8032C12.9687 96.4908 16.3537 98.5902 20.0722 100.199C22.5839 101.371 25.1697 102.233 27.6613 103.459C28.9873 104.012 30.3513 105.441 31.5651 106.048C34.1308 107.33 36.5511 109.355 38.983 110.665C46.8536 114.905 54.6999 119.061 62.2607 123.853C64.6193 125.348 67.8264 126.261 70.2458 127.732C73.975 130.112 77.4883 132.733 81.3555 134.943C83.4115 136.116 86.2136 137.289 88.0874 138.624C90.3814 139.822 91.2055 142.736 93.6525 139.595C94.6253 138.348 95.166 137.426 95.766 135.953C96.2321 134.59 97.5107 132.952 97.9104 131.805C98.8712 129.045 99.0412 126.593 100.422 123.907C100.97 122.367 102.937 120.492 102.35 118.688C101.978 117.546 99.1982 117.701 98.0253 117.205C94.9183 116.531 92.1872 114.441 89.1307 113.572C88.5034 113.394 87.8808 113.221 87.2498 113.056C85.6415 113.022 82.6425 112.069 80.8568 111.789C76.586 111.032 70.6201 110.731 66.8623 108.479C60.9339 104.926 53.903 105.006 47.5856 102.434C46.0698 101.816 44.3446 101.303 42.7735 100.732C38.7621 99.6873 36.0184 97.6443 32.1712 96.3406C30.5542 95.7926 28.9435 95.1602 27.3504 94.5452C26.416 94.1468 24.177 93.9677 23.0461 93.7175C21.893 93.4623 21.0251 93.2155 19.8785 92.872C19.3395 92.8227 17.8966 92.649 17.4238 92.5306C15.0437 91.934 7.60814 88.8973 6.80481 86.5524C6.62231 86.0072 6.68076 85.4099 6.96511 84.9099C8.87296 81.5911 18.808 85.6496 21.8782 85.6418C23.1241 85.6386 25.1884 85.9922 26.2288 86.6644C28.0989 89.2094 28.8007 89.2968 32.0066 89.7895C32.4773 89.8615 32.9492 89.9302 33.4212 89.9947C34.3481 90.0892 35.6631 90.3643 36.5046 90.6517C37.5692 91.0156 44.2402 93.9569 44.7694 94.4079L44.8903 94.4709C45.9573 95.0399 48.1827 96.6419 49.106 96.8916C51.3654 97.5021 53.4055 97.6603 55.8218 98.2987L69.2533 101.74C70.1633 101.978 71.3936 102.798 72.1905 102.937C75.9743 103.599 79.7796 104.02 83.4248 105.317C83.8514 105.469 85.0843 105.851 85.4428 106.047C87.7721 106.79 89.8345 107.401 92.2422 107.859C95.3842 108.816 98.7715 109.627 101.983 110.316C103.628 110.669 104.67 110.51 105.526 109.01C105.362 108.184 107.435 97.6805 107.979 96.4252C108.1 95.467 108.705 93.7299 108.892 92.6291C109.372 89.7916 109.523 87.1101 109.396 84.254C109.364 83.5582 109.25 82.7599 109.169 82.0601C108.929 79.0688 109.272 75.6388 109.257 72.5492C109.232 67.3479 108.723 62.0728 108.199 56.8954C108.015 55.5892 106.831 54.0725 106.637 52.8263C105.959 48.4646 107.255 46.5528 102.088 45.7695C101.606 45.7358 101.323 45.6908 100.846 45.6058C100.348 45.211 100.522 45.4533 100.312 44.8464C100.511 43.0225 102.879 41.9528 104.459 41.6368C103.169 38.3452 101.189 35.2777 100.225 31.7248C99.8615 30.3877 98.9843 29.1783 98.7016 27.6309C98.461 26.8088 98.3026 25.6469 98.0852 24.7439C97.6206 22.8134 96.1604 20.7306 94.896 19.1933C93.9211 18.8656 92.955 18.8282 92.491 17.8583C92.624 16.8544 94.4711 16.1626 95.1243 15.1619C94.8596 14.3828 94.7051 13.1309 94.5204 12.3481ZM169.578 162.995C165.766 162.868 164.209 163.947 160.608 164.774L138.04 170.17C135.804 170.717 133.87 170.654 131.695 171.483C131.736 172.318 134.165 173.055 134.795 173.582C138.515 176.689 142.88 181.339 146.286 184.775C146.834 185.312 147.749 186.142 148.462 186.456C150.719 187.447 152.002 189.395 153.811 190.838C155.796 192.422 157.603 194.595 159.47 196.16C164.267 200.185 168.53 204.71 173.046 209.036C173.737 209.691 176.229 212.952 176.716 213.193C176.964 212.628 176.518 211.661 176.395 211.045C176.245 210.382 176.172 208.538 176.1 207.71C175.955 206.067 175.728 204.432 175.418 202.813C174.5 197.947 173.22 193.193 172.518 188.3C171.311 179.881 169.598 171.506 169.578 162.995ZM93.9477 150.935C88.0308 156.015 84.9887 162.493 80.1848 168.016C78.3297 169.795 73.6585 174.493 71.5763 175.385L71.7549 175.745L72.0771 175.833C72.6603 175.652 75.2796 175.326 76.0597 175.194C79.1329 174.675 82.1944 174.089 85.2425 173.44C86.4766 173.145 87.824 172.983 89.0918 172.649C92.5137 171.748 95.6275 171.06 99.1344 170.52C100.513 170.273 102.492 169.659 103.94 169.294C107.059 168.508 111.634 168.22 114.286 166.539C114.822 166.073 115.4 165.771 116.013 165.413C109.284 164.255 110.372 162.288 105.282 159.753C101.597 156.645 97.7702 154.127 93.9477 150.935ZM108.526 119.437C107.341 121.253 107.042 122.706 106.415 124.764C105.897 127.352 104.777 129.147 103.767 131.54C103.647 131.825 103.024 133.102 102.984 133.32C101.894 135.469 100.803 137.584 99.6445 139.695C99.1705 140.559 97.4488 143.115 97.4003 143.887C98.1607 144.397 99.9476 146.386 100.845 147.195C103.406 149.244 105.042 149.257 107.97 151.454C110.26 153.153 112.502 154.916 114.691 156.743C116.706 158.442 119.501 161.641 121.706 162.589C125.293 164.132 131.192 162.98 134.927 162.424C135.256 162.257 139.133 161.598 139.774 161.483C142.169 161.096 145.206 159.827 147.81 159.39C148.148 159.26 148.83 159.214 149.214 159.171C152.45 158.897 156.499 158.016 159.724 157.36C162.05 156.659 165.079 155.825 167.064 154.477C166.373 149.78 164.91 146.349 164.861 141.71C164.52 139.415 163.72 140.596 162.662 139.052L163.112 138.751C163.308 138.601 163.584 138.35 163.673 138.125C164.763 135.365 160.201 133.168 158.354 132.388C155.897 131.782 152.172 131.697 150.078 130.845C148.715 130.58 147.196 129.902 145.83 129.692C140.295 128.842 135.05 127.219 129.638 125.774C129.103 125.685 128.02 125.375 127.454 125.231C125.721 125.271 121.624 122.778 119.632 122.17C115.925 121.039 112.251 120.361 108.526 119.437ZM170.186 135.724L170.002 135.971C170.398 137.366 170.952 138.616 171.402 139.98C171.804 141.204 172.116 142.652 172.397 143.925C173.131 145.889 173.688 147.786 173.935 149.873C174.016 150.548 174.141 152.388 174.58 152.679C175.274 152.719 175.48 152.721 176.166 152.628C177.967 152.268 180.301 151.284 181.577 151.069C184.826 150.524 186.584 150.49 189.859 149.35C191.236 148.981 192.621 148.472 193.885 147.811C197.069 146.142 200.597 145.659 204.104 144.972C204.798 144.844 205.882 144.572 206.458 144.186L206.495 143.93L206.18 143.677C204.562 143.231 204.46 142.646 202.091 142.33C200.154 142.065 197.341 142.157 195.67 141.122C191.342 139.83 189.767 139.85 185.574 139.09C182.991 138.622 177.598 137.296 174.802 136.401L174.279 136.228C173.907 136.258 172 135.885 171.175 135.707L170.895 135.644L170.186 135.724ZM98.7674 6.5547C99.0065 8.73495 99.3892 10.286 99.8075 12.4192C100.248 14.6659 100.471 16.7388 101.115 18.9811C101.922 21.7885 103.007 24.503 104.016 27.248C104.413 28.3286 104.985 30.4373 105.411 31.3456C107.533 35.876 109.391 40.5499 111.044 45.2697C111.517 46.6194 111.146 48.878 111.415 50.4579C111.962 53.6758 113.289 56.8342 114.004 59.9429C114.518 62.1751 114.074 65.9964 114.434 68.3261C114.414 70.226 114.641 72.4076 114.609 74.1879C114.49 80.7174 114.558 90.4742 112.569 96.6638C112.472 97.3008 112.378 97.9469 112.26 98.5798C111.544 102.448 111.626 107.327 110.001 110.971C110.129 112.147 110.458 112.196 111.396 112.819C116.275 115.938 124.368 115.948 130.471 118.455C131.222 118.887 133.894 119.126 134.951 119.415C138.502 120.386 142.102 121.163 145.687 121.981C147.904 122.488 150.164 123.828 152.432 124.243C155.173 124.744 157.978 125.085 160.754 125.29C159.945 124.034 158.434 122.745 157.803 121.477C155.753 117.359 154.276 112.921 152.261 108.772C151.363 106.923 149.84 105.384 149.257 103.399C148.609 101.199 148.274 98.8981 147.708 96.6751C146.765 92.501 145.237 88.4687 143.832 84.4328C143.471 83.3959 142.409 81.9429 141.849 80.9539C140.41 78.4127 138.289 75.3882 137.663 72.4948C136.931 70.2106 135.726 68.8654 135.014 66.9437C133.859 63.8288 132.838 61.078 131.304 58.0855C129.908 55.3622 129.201 52.3422 127.152 49.8919C126.704 49.3558 126.12 48.3397 125.751 47.7383C124.039 43.1699 120.223 37.5366 117.595 33.335C116.158 31.671 114.402 31.7895 113.271 30.4802C112.987 29.2938 114.265 29.0534 115.193 28.6961C114.041 23.9876 109.643 20.0912 106.994 16.3278C104.346 12.5642 101.725 9.96636 98.7674 6.5547Z" fill="#EFDA6B"></path>
</svg>