<svg width="282" height="336" viewBox="0 0 282 336" fill="none" xmlns="http://www.w3.org/2000/svg">
<path d="M163.507 224.836C164.941 225.265 166.245 225.547 166.932 226.977C168.703 230.658 165.528 236.852 164.313 240.433C160.162 248.622 156.909 251.755 149.644 257.423C148.383 258.493 145.686 260.5 144.717 261.4C140.059 263.338 139.532 265.21 136.285 267.357C131.75 270.352 119.117 272.11 113.707 271.32C108.973 270.398 103.195 267.56 98.9938 265.275C93.5303 262.185 89.1772 258.37 86.1217 252.832C84.3539 249.886 80.4696 243.296 86.2096 242.266C91.0946 241.161 92.5081 247.877 95.1276 250.92C102.779 259.805 114.797 264.557 126.376 262.05L126.569 262.008C132.339 261.458 137.457 255.51 142.465 252.905C143.609 252.31 146.212 250.78 147.114 249.947C149.027 248.791 156.005 239.575 156.801 237.102C158.116 234.949 158.399 232.276 158.66 229.823C159.25 226.371 160.289 225.887 163.507 224.836Z" fill="black"></path>
<path d="M100.068 223.015C109.418 215.443 112.808 214.84 123.536 220.949C124.801 222.089 123.129 226.326 122.108 226.779C117.095 229 112.264 222.628 106.86 225.832C103.762 227.668 105.03 231.465 104.403 234.776C102.415 234.975 101.028 235.15 99.0387 234.674C98.9775 234.622 98.9175 234.569 98.86 234.514C95.5851 231.326 97.0992 225.945 100.068 223.015Z" fill="black"></path>
<path fill-rule="evenodd" clip-rule="evenodd" d="M58.0309 178.512C63.1531 178.324 69.6136 181.712 74.3493 183.648C79.7722 187.029 85.1113 194.735 87.1618 200.626C88.4609 204.359 87.9385 211.178 83.7848 212.379C81.0934 212.577 77.8141 212.616 75.1871 211.971C73.0001 211.444 71.0216 210.271 69.5114 208.604C63.8407 202.329 68.1102 196.525 67.4811 190.098C67.2121 187.35 52.0423 186.64 55.5455 180.372C56.1388 179.311 57.0013 179.016 58.0309 178.512ZM76.278 198.601C74.2825 201.433 75.2606 202.598 78.2662 203.484C79.4192 201.568 78.0911 199.105 76.278 198.601Z" fill="black"></path>
<path fill-rule="evenodd" clip-rule="evenodd" d="M127.522 167.06C131.594 166.767 139.442 169.616 142.888 171.813C146.71 174.251 150.334 183.927 151.172 188.384C152.115 193.391 152.532 201.846 149.441 206.219C147.77 208.582 143.663 209.613 140.879 210.106C139.554 209.901 138.247 209.484 137.015 208.957C135.275 208.213 133.916 206.787 133.256 205.013C131.833 201.288 132.558 193.991 134.937 191.015C137.863 187.355 138.488 187.969 140.555 183.442C139.962 182.941 137.805 180.381 137.369 179.555C134.653 174.409 122.157 177.603 124.505 169.855C124.959 168.358 126.29 167.609 127.522 167.06ZM141.987 195.312C141.277 197.025 140.363 199.354 142.582 200.21C142.874 199.117 143.723 196.687 143.135 195.749C142.916 195.398 142.51 195.43 141.987 195.312Z" fill="black"></path>
<path d="M45.6051 157.187C49.0493 155.126 58.8221 155.696 62.8483 156.554C65.2595 157.067 69.4599 158.067 70.9039 160.222C71.5349 161.163 71.6153 162.154 71.3698 163.234C71.134 164.273 70.6814 165.338 69.7213 165.9C66.4392 167.823 54.2239 161.593 47.9108 163.789C40.8608 166.242 40.915 178.172 34.4391 176.183C34.0863 176.074 33.7794 175.938 33.4586 175.755C32.8466 171.283 34.9193 166.334 37.9313 163.098C37.9822 163.066 38.0339 163.034 38.0846 163.002C40.7367 161.299 42.9153 158.796 45.6051 157.187Z" fill="black"></path>
<path d="M125.841 140.549C129.149 140.277 133.046 141.739 136.942 142.736C140.303 143.597 146.072 148.351 141.123 151.866C138.906 153.44 132.313 149.824 129.976 148.838C127.726 147.889 121.904 148.224 119.439 148.947C117.315 149.923 114.795 151.397 112.423 152.469C109.022 154.769 109.434 156.395 107.993 159.989C107.483 161.759 104.52 163.348 102.787 162.309C99.116 160.107 102.132 155.184 103.453 152.931C108.372 144.536 117.096 142.59 125.841 140.549Z" fill="black"></path>
<path fill-rule="evenodd" clip-rule="evenodd" d="M212.909 33.5791C215.211 33.0511 218.974 31.4299 221.069 32.9375C221.734 33.4164 222.179 34.2562 222.234 35.082C222.292 37.5955 221.415 40.2838 220.19 42.6992C218.72 45.5979 209.988 56.1486 212.826 59.541C213.548 60.4037 218.086 61.5705 219.45 62.1123C220.37 62.4778 221.642 63.3801 222.525 63.9102C224.648 65.1839 227.512 67.6256 229.616 68.6514C235.112 71.3313 241.691 74.3115 246.895 77.4404C250.363 79.5264 256.36 86.6707 258.895 90.0449C264.205 97.1083 268.728 103.046 271.175 111.649C271.783 113.788 273.078 116.853 273.451 119.086C273.998 122.367 274.603 126.275 275.14 129.496C276.228 136.043 280.67 135.616 281.51 140.991C282.26 145.788 279.48 150.963 278.583 155.264C275.778 168.712 273.668 182.517 269.51 195.604C268.038 200.238 266.16 204.91 264.568 209.509C264.318 210.237 262.888 213.925 262.821 214.341C260.771 217.569 259.148 221.218 257.093 224.513C254.958 227.931 252.753 231.314 250.715 234.777C249.026 238.567 248.666 244.064 246.433 248.318C237.006 266.487 221.578 280.828 202.771 288.905C200.775 289.765 197.139 291.855 195.399 292.25C194.772 292.39 194.138 292.502 193.501 292.585C190.496 292.715 184.346 293.161 184.56 297.548C184.591 298.175 184.761 298.99 184.875 299.62C191.524 300.715 197.395 299.837 204.082 299.765C210.577 299.695 216.963 299.01 223.416 298.35C230.828 297.82 237.959 296.458 245.358 295.865C246.79 295.75 248.983 295.255 250.413 294.915C251.665 295.355 253.746 295.91 254.211 297.178C255.088 299.575 252.313 304.473 251.363 306.875C250.128 310 248.333 313.023 247.406 316.24C245.688 322.208 244.478 330.338 242.325 336H234.484C235.648 333.994 235.636 332.681 235.302 330.725L235.141 329.843C230.571 330.773 230.515 331.615 224.836 332.112C221.207 332.7 212.443 333.267 209.779 334.635C206.847 336.37 188.193 334.702 184.647 336H66.2799L66.2184 301.365L66.9127 301.61C81.7091 306.616 110.562 302.425 125.525 300.173C126.663 299.933 126.609 300.137 127.224 299.415C127.308 296.813 123.1 292.898 120.833 291.825C114.734 288.73 100.195 290.98 93.0319 290.705C90.553 290.61 87.3525 290.72 84.7828 290.69C82.6311 290.47 79.4904 290.617 77.4899 290.112C70.9704 288.472 63.4131 286.235 57.2623 283.675C56.3839 283.027 55.393 282.44 54.4606 281.862C48.6568 276.5 47.4994 275.047 43.3932 268.652C40.4103 261.478 41.0947 257.485 42.8522 250.265C43.7667 247.92 45.3694 245.381 46.5114 242.96C47.2357 241.191 47.4078 240.329 47.65 238.442L48.0875 235.578C46.0523 234.225 44.8893 232.305 42.9254 230.877C39.5979 227.064 36.1661 223.342 32.6354 219.716C30.0583 217.109 27.2313 214.502 24.7369 211.86C22.7939 209.91 21.1717 207.529 19.2438 205.581C13.7753 200.055 7.82326 191.719 5.57581 184.094C2.11151 172.339 -0.19307 151.763 2.99476 139.946C2.63283 139.26 1.36461 137.466 1.16175 136.912C-0.693755 131.837 -0.0225492 123.384 1.07093 118.188C1.55303 115.897 3.0276 112.185 3.85218 110.025C5.97654 105.712 5.20464 106.032 8.47327 101.799C11.1642 99.7722 12.45 93.3807 14.3522 91.6289C17.8177 88.4377 23.7328 84.382 27.4928 81.2803C28.1724 80.7198 30.7111 79.9623 31.8698 79.1816L32.109 79.0176C30.7225 72.4949 27.3894 67.5384 25.6432 61.2949C24.6482 57.7382 26.1537 56.0767 29.3492 54.9502C32.6544 53.7851 36.1696 53.1501 39.5172 52.1406C43.9261 50.8114 48.089 48.7103 52.775 48.5439C54.1152 48.4979 56.8499 48.1451 57.819 49.001C58.4525 50.3217 58.048 51.8768 57.7565 53.2598C56.3577 54.5773 51.0109 54.7639 48.983 55.4238C47.7395 55.8286 47.0385 56.1851 45.8707 56.7676C51.0362 58.0221 53.5977 58.0717 58.8834 58.2734C61.2616 58.3642 64.0507 58.8309 66.4899 58.8584C71.1922 58.9114 80.0739 58.4171 84.3375 60.248C85.9322 62.2006 84.1733 63.9098 82.7291 65.3359C79.2121 66.2029 69.1667 65.5733 65.2272 65.5811C55.2881 65.6003 45.6847 65.0253 35.7203 65.5488C36.1966 66.9938 36.72 68.4237 37.2887 69.835C38.9531 73.8517 41.3485 77.3018 43.5211 81.0391C44.9056 83.4208 46.0896 86.0874 47.8043 88.2441C48.5326 89.1599 49.4699 90.1051 50.5729 90.5488C56.459 92.9163 73.9013 92.2746 80.7233 92.1934C82.7908 92.1689 84.9492 92.1384 87.0075 92.3594C88.5697 92.5274 90.1987 92.949 91.7662 92.9473C93.0259 92.9459 94.2961 92.5171 95.5504 92.3818C97.4636 92.1759 99.4702 92.2234 101.4 92.1719C107.074 92.0204 112.82 92.3858 118.474 92.0674C120.905 91.9304 123.336 91.457 125.751 91.1475C128.869 90.748 132.043 90.4908 135.176 90.2266C138.345 89.9593 141.617 90.1953 144.757 89.7568C148.16 89.2818 151.811 88.6099 155.18 87.8887C157.077 87.4824 158.94 86.8884 160.859 86.5957C162.784 86.3022 164.752 86.2625 166.687 86.0293C169.551 85.684 172.392 85.1821 175.262 84.8916C177.831 84.6316 180.464 84.5136 183.005 84.0576C186.549 83.4214 190.008 82.0519 193.51 81.1895C195.434 80.7157 197.685 81.0046 199.522 80.2354C199.868 79.5161 200.672 73.78 200.706 72.8301C200.816 71.8797 200.884 70.8059 200.906 69.8555C201.014 65.2248 201.694 60.8253 203.183 56.4297C203.674 54.9822 203.991 53.5815 204.682 52.1777C205.93 49.6444 208.135 47.7036 209.238 45.126C210.171 40.416 207.072 40.2529 204.297 43.0859C202.977 48.2991 204.819 50.125 197.995 51.3535C192.417 52.1885 187.08 52.4767 181.484 53.3867C175.055 54.5645 167.635 55.7877 161.404 57.7852C155.461 59.6904 152.016 59.2621 146.374 60.1514C138.54 61.3863 131.5 62.3855 123.486 62.0283C120.827 61.9098 118.025 62.0782 115.361 61.5703C113.418 61.2296 113.323 56.2456 115.985 56.3564C118.492 56.0197 121.64 56.4697 124.082 56.0947C130.972 55.037 137.615 54.3267 144.589 54.0762C146.669 54.0428 150.42 52.6817 152.32 52.7109C158.579 52.8066 163.375 51.2731 169.287 49.4629C172.215 48.5662 175.94 48.4093 178.924 47.5547C181.388 46.8494 186.337 47.108 188.421 45.8027C190.42 45.2382 192.038 45.3369 194.106 45.0371L194.338 45.0107C199.861 44.3542 198.112 41.2962 200.93 38.002C203.564 34.9239 209.205 34.4798 212.909 33.5791ZM238.509 315.695C237.297 314.973 231.89 316.992 230.098 317.06C226.637 317.19 223.304 317.815 219.892 318.308C208.236 319.993 194.768 317.223 183.38 319.843C178.773 320.363 174.247 321.385 169.672 321.905C162.963 322.668 152.235 322.703 145.535 322.08C138.697 320.96 137.494 320.783 130.775 322.293C127.578 323.013 124.174 322.165 120.26 323.393C116.366 323.825 114.256 323.32 110.503 323.293C108.499 323.278 104.933 324.3 102.684 324.47C99.091 324.742 94.5299 324.057 91.108 324.295C86.9671 324.585 84.659 325.67 80.025 325.87L72.2672 326.107C72.2387 328.27 72.1649 329.378 72.8239 331.48C76.7348 331.785 82.0199 331.378 86.0739 331.553C86.8896 331.588 92.9703 331.75 93.4743 331.702L94.6481 331.739C100.559 331.873 107.013 331.31 112.364 333.345C120.686 331.117 123.772 332.513 131.947 331.945C134.22 332.1 142.182 333.593 143.724 331.973C146.552 332.538 161.564 331.395 165.056 331.202C166.089 331.145 168.891 330.117 170.162 330.045C172.62 329.86 175.102 330.392 177.557 330.207C189.442 329.31 201.275 327.903 213.174 327.058C216.448 326.825 220.517 325.31 223.807 324.707C226.927 324.135 230.105 323.488 233.149 322.638C234.337 323.303 236.063 324.483 237.254 325.245C237.619 323.068 239.405 317.381 238.509 315.695ZM128.001 307.348C124.512 307.598 121.225 308.64 117.789 309.058C116.364 309.23 114.143 309.315 112.711 309.305C107.631 309.272 102.84 309.903 97.8268 310.415C93.3354 310.875 88.4933 310.71 83.9576 310.992C82.2234 311.062 76.6001 310.772 75.3239 311.8C74.4233 312.528 74.4562 315.43 74.402 316.678C75.9421 316.888 77.609 317.046 79.0621 317.565C82.2941 319.103 85.8511 316.965 89.4186 316.832C102.421 316.355 119.189 318.337 131.465 314.027C131.805 311.436 131.732 307.597 128.339 307.359L128.001 307.348ZM130.547 113.878C127.162 114.596 123.109 114.126 119.601 115.521C115.624 117.167 110.622 119.636 107.424 122.495C98.4492 130.521 96.1319 146.59 80.8151 138.503C78.6893 138.863 75.9576 140.516 74.3551 140.688C73.7182 140.755 71.2663 138.131 69.6852 136.396L68.4938 135.091C64.5238 137.065 59.2942 144.002 54.0485 145.974C52.152 146.687 47.8024 153.505 44.4684 151.642C40.6608 149.677 40.1856 144.509 38.6637 141.092C35.3913 133.744 36.43 121.066 34.0221 114.337L33.9049 114.021C27.2747 117.012 18.8137 120.998 14.6539 127.384C14.1752 128.119 13.7135 129.974 13.4655 130.886C12.032 137.009 11.2913 143.435 10.151 149.635C10.0723 150.063 10.2793 151.013 10.4147 151.432C10.6653 155.634 10.1793 160.097 10.5602 164.345C10.685 165.737 10.683 167.428 11.0026 168.803C12.1982 174.117 13.1196 180.259 15.1032 185.323C17.1136 190.456 21.9838 195.263 25.4108 199.36C30.001 204.848 33.5525 208.945 39.528 212.968C41.3862 214.219 43.7175 218.772 45.401 220.496C49.023 224.482 54.2443 228.449 57.317 232.831C58.8955 235.082 57.3981 243.517 56.4274 246.217C54.9026 250.458 51.9311 255.177 52.1354 259.897C52.7931 263.545 55.5472 270.98 58.4274 273.535C60.1721 275.083 62.1692 275.845 64.1979 276.678C70.0021 280.51 81.9551 283.448 88.9293 283.23C90.5174 283.328 92.7139 283.077 94.3444 282.942L94.6119 282.955C99.4743 283.155 104.442 282.148 109.464 282.553C118.539 283.283 123.675 282.053 130.881 288.73C132.886 291.855 134.901 295.452 136.272 298.895C138.242 303.845 139.347 308.135 142.263 312.678C148.799 313.063 155.356 313.052 161.909 313.045C165.441 313.042 170.2 313.227 173.044 310.808C174.579 309.503 174.487 306.177 174.634 304.242C175.033 300.335 174.475 295.793 176.858 292.495C179.006 289.525 183.3 287.025 186.525 285.375C188.748 284.908 190.796 284.62 192.975 284C198.965 282.29 214.15 275.048 217.887 270.16C224.196 265.995 231.568 256.215 235.482 249.607C239.282 245.76 240.188 235.345 242.147 230.487C242.45 229.736 242.769 229.358 242.886 228.535C242.22 228.309 241.327 228.582 240.591 228.683C236.296 229.267 229.645 229.731 226.146 226.854C223.303 224.518 221.196 221.579 220.654 217.923C218.205 217.903 216.127 217.891 213.696 217.657C213.546 216.365 212.811 213.182 213.309 212.131C214.167 210.322 218.07 209.441 219.762 208.081C222.495 205.884 226.438 202.656 228.011 199.55C228.704 198.183 229.082 196.157 229.535 194.767C231.152 189.807 231.456 185.667 229.731 180.638C228.726 177.708 222.44 170.78 219.561 169.225C218.483 168.643 216.459 168.666 215.339 169.217C208.548 172.565 205.503 179.922 203.063 186.623C202.585 187.587 202.088 189.016 200.942 189.258C195.48 190.482 196.713 186.508 195.158 184.648C191.994 180.867 187.375 177.797 185.664 172.717C185.041 170.869 184.518 168.516 183.247 166.941C180.515 163.559 175.513 162.392 173.531 158.285C171.976 154.441 173.04 148.81 171.921 144.57C166.297 144.23 159.498 145.399 154.524 143.185C151.965 142.045 148.964 139.699 146.615 138.089C140.473 133.881 134.742 131.155 130.933 124.382C130.018 122.754 129.122 121.835 128.372 119.826C128.84 117.597 129.206 116.422 130.12 114.669L130.547 113.878ZM240.313 308.67C242.731 303.928 235.547 304.427 232.798 304.562C229.652 305.355 224.975 305.433 221.665 305.673C214.315 306.203 206.989 306.562 199.629 306.81C196.944 306.9 192.726 307.985 189.967 308.44C187.446 308.855 185.061 307.807 183.859 309.862C183.552 310.387 183.545 310.56 183.603 311.133C185.027 312.452 190.347 311.171 192.593 311.23C200.874 311.245 209.058 312.088 217.308 310.945C221.543 310.358 225.296 308.788 229.519 308.025C232.296 307.525 238.754 309.477 240.313 308.67ZM226.632 75.915C220.581 72.8441 217.06 68.5086 209.678 69.2305C207.539 73.9742 208.357 82.1882 207.639 87.085C205.284 91.3573 202.558 90.4808 199.153 88.4541L198.463 88.0352C193.992 88.0002 191.624 89.3599 187.537 89.9297C176.304 91.4952 165.241 92.5926 154.187 95.3291C152.132 95.8378 149.144 95.6016 147.02 96.0684C143.214 96.7133 140.015 97.2501 136.165 97.6641C131.703 98.1441 127.805 97.8915 123.455 98.124C119.91 98.3135 116.099 99.0255 112.422 99.249C97.1497 100.173 81.8378 100.266 66.5553 99.5283C59.4285 99.2398 47.3481 99.9221 41.2584 94.8145C38.8988 92.8353 37.2331 87.4899 35.6237 84.541C33.0659 86.0295 30.2301 87.0734 28.0416 88.9102C26.0197 90.6078 25.3201 94.0303 23.7672 96.0791C22.7992 97.3561 20.4752 99.4527 19.1783 100.46C14.2454 104.291 11.6022 108.674 10.0319 114.669C9.80741 115.526 9.18852 117.418 9.50257 118.144C10.8098 118.658 16.4134 114.67 18.028 113.771C25.2923 109.723 32.7612 105.075 40.8678 102.993C41.6705 102.792 44.6469 103.511 45.5035 103.534C46.1983 107.536 45.4327 112.625 44.9459 116.718C44.4052 119.93 43.5971 135.002 48.3092 135.382C49.9356 134.711 51.4012 131.559 52.5416 130.085C54.9121 127.022 57.3696 124.027 59.8561 121.058C61.2213 119.427 63.4172 118.11 64.8004 116.472C66.5059 115.405 69.9034 112.228 71.3317 110.76C72.9714 109.341 76.3195 107.085 77.5143 109.735C79.2128 113.503 79.0729 122.811 79.0729 126.814C84.4518 127.735 84.3757 128.361 88.9039 130.845C93.8349 128.277 95.4635 122.426 99.444 118.798C103.451 115.145 107.971 113.166 112.756 110.873C114.856 109.866 117.294 107.896 119.603 107.246C121.701 106.656 124.39 106.451 126.55 106.127C134.357 104.956 149.054 103.579 156.502 105.447C156.878 107.719 157.434 109.95 156.058 111.952C153.235 114.124 136.942 110.417 134.216 113.434C134.45 115.767 138.547 121.589 140.205 123.602C145.113 129.561 153.14 131.8 158.682 136.946C163.967 137.149 169.348 137.18 174.64 137.233C178.755 137.275 182.496 136.615 186.583 137.439L186.482 141.7C183.177 146.334 177.008 150.736 184.601 156.612C184.807 156.771 184.814 156.747 185.066 156.811L185.259 156.923C187.287 158.082 193.42 159.528 194.068 162.086C194.867 165.242 191.766 169.953 196.285 172.568C196.635 172.771 197.643 173.25 197.981 173.107C200.54 172.029 203.749 167.865 206 166.021C210.254 162.534 219.13 157.771 224.308 160.894C227.299 162.697 234.629 170.314 236.553 173.234C237.347 174.432 237.945 175.749 238.324 177.135C239.143 180.061 238.916 182.114 239.062 185.028C239.591 195.602 236.646 204.088 228.588 211.152C226.869 212.432 225.67 213.381 226.332 215.745C226.78 216.811 227.609 217.537 228.397 218.354C232.967 223.093 237.617 219.731 243.075 221.7C243.813 223.62 243.642 225.388 244.383 227.036C245.661 226.71 247.323 224.687 248.241 223.707C251.313 220.428 256.018 209.155 258.196 204.616C259.011 202.92 260.173 201.215 260.778 199.443C261.785 196.492 262.115 193.139 262.788 190.082L269.765 157.35C269.968 156.366 270.219 155.205 270.441 154.234C271.824 148.24 272.613 148.537 267.975 144.536C266.288 140.146 266.706 133.269 266.178 128.463C265.491 122.188 263.123 114.633 260.77 108.756C259.943 106.694 256.938 102.66 255.613 100.724C252.363 95.9762 248.403 89.0902 243.818 85.5586C238.579 81.6776 232.414 78.8493 226.632 75.915Z" fill="black"></path>
<path d="M127.015 0C128.333 1.6728 131.654 8.44209 133.63 8.99414C135.465 9.50663 139.534 6.95416 141.547 6.72559C152.426 5.49129 163.371 2.50069 174.346 4.63184C175.938 4.94115 179.4 8.89304 180.517 10.2061C183.851 13.876 183.298 19.9738 185.025 24.0449C187.362 29.5565 190.117 29.982 191.315 36.5596C190.836 39.4232 190.701 40.4341 189.33 43.0781L188.967 43.1182C187.18 43.3104 184.979 43.6046 183.499 42.4141C181.337 36.5896 177.393 29.5486 176.049 24.2266C175.3 20.5535 173.333 11.9305 168.634 11.6602C161.446 11.2465 153.21 12.4946 146.114 13.7031C136.579 15.327 128.98 21.2562 122.551 10.1221C122.276 9.64757 122.031 9.36517 121.503 9.30859C118.37 10.4553 115.851 15.4006 113.205 16.25C110.204 17.2127 106.915 18.971 104.048 19.832C100.025 21.0403 95.5188 21.8785 91.4235 22.8975C89.125 23.4694 86.7995 24.4383 84.526 25.0947C80.0158 26.3967 76.9444 26.4966 73.1539 29.8301C68.5245 33.9017 71.7882 39.8793 68.4821 43.29C67.0256 44.765 63.2312 44.9159 61.3922 44.9004C58.798 44.8776 61.216 36.2777 61.2535 34.6748C61.2792 33.5737 62.9592 28.8139 63.6032 28.0352C71.5121 18.4701 86.4158 17.0075 97.7155 13.9307C100.753 13.1301 103.107 12.8229 105.953 11.6318C110.297 9.81358 112.399 6.96391 115.775 4.0332C117.345 2.67067 119.67 1.15762 121.412 0H127.015Z" fill="black"></path>
</svg>