<svg width="112" height="32" viewBox="0 0 112 32" fill="none" xmlns="http://www.w3.org/2000/svg">
<path d="M31.7298 28.7215C30.0701 28.1359 28.7203 27.193 27.6803 25.8928C26.6655 24.6016 26.0079 23.1394 25.7075 21.5064C25.4322 19.8823 25.5697 18.2906 26.1198 16.7315C26.6966 15.097 27.5885 13.7715 28.7954 12.7552C30.0024 11.7389 31.3632 11.088 32.8779 10.8024C34.4266 10.5005 35.9554 10.6158 37.4642 11.1482C38.7467 11.6008 39.8273 12.2648 40.706 13.1405C41.5847 14.0161 42.263 15.0189 42.7408 16.149C43.2527 17.2628 43.5361 18.4232 43.5909 19.6303C43.6457 20.8373 43.4779 21.994 43.0875 23.1005C42.5107 24.735 41.6018 26.0686 40.3608 27.1012C39.1287 28.1086 37.7509 28.7677 36.2273 29.0784C34.7127 29.364 33.2135 29.245 31.7298 28.7215ZM33.6933 26.4027C34.1208 26.5536 34.6259 26.6046 35.2087 26.5557C35.8167 26.5157 36.4069 26.2857 36.9793 25.8655C37.5517 25.4454 38.0065 24.7576 38.3437 23.802C38.6099 23.0476 38.7607 22.1393 38.7962 21.0772C38.8567 20.0241 38.7738 18.9768 38.5474 17.9354C38.3299 16.869 37.9667 15.9349 37.4578 15.1332C36.9578 14.3063 36.3054 13.7509 35.5007 13.467C34.5954 13.1475 33.6835 13.2075 32.7649 13.6469C31.8804 14.07 31.2296 14.8725 30.8126 16.0544C30.5463 16.8089 30.383 17.7127 30.3224 18.7659C30.2958 19.8028 30.3913 20.8545 30.6088 21.921C30.8264 22.9875 31.1851 23.9341 31.6852 24.761C32.1941 25.5626 32.8634 26.1099 33.6933 26.4027Z" fill="#1E31A9"></path>
<path d="M47.6804 28.6671C46.0653 27.968 44.7839 26.9339 43.8365 25.5649C42.9135 24.2064 42.3587 22.7023 42.1721 21.0524C42.0099 19.4131 42.2573 17.8348 42.914 16.3175C43.6026 14.7268 44.5841 13.4663 45.8585 12.536C47.1329 11.6057 48.5356 11.0505 50.0664 10.8705C51.6323 10.6766 53.1494 10.8974 54.6177 11.533C55.8658 12.0733 56.8978 12.8106 57.7138 13.7449C58.5298 14.6793 59.137 15.7267 59.5355 16.8871C59.969 18.0337 60.1713 19.2109 60.1425 20.4189C60.1136 21.6268 59.8661 22.7691 59.4 23.8459C58.7114 25.4366 57.7124 26.7041 56.4029 27.6482C55.104 28.5679 53.6839 29.13 52.1425 29.3346C50.6116 29.5146 49.1243 29.2921 47.6804 28.6671ZM49.7997 26.4898C50.2158 26.6699 50.7162 26.7558 51.301 26.7474C51.9102 26.7496 52.5149 26.5609 53.115 26.1815C53.7152 25.802 54.2165 25.1472 54.6191 24.2173C54.9369 23.4831 55.1502 22.5875 55.2591 21.5304C55.3924 20.484 55.3822 19.4335 55.2285 18.3789C55.0853 17.3 54.7876 16.343 54.3355 15.508C53.8939 14.6485 53.2815 14.0493 52.4984 13.7103C51.6174 13.3289 50.7035 13.3256 49.7567 13.7004C48.845 14.0612 48.1403 14.8167 47.6424 15.9669C47.3246 16.7011 47.099 17.5914 46.9657 18.6379C46.8674 19.6705 46.8898 20.7263 47.033 21.8053C47.1761 22.8843 47.4685 23.8535 47.9101 24.713C48.3623 25.548 48.9921 26.1403 49.7997 26.4898Z" fill="#1E31A9"></path>
<path d="M28.8246 18.9056C29.0633 18.9824 29.2248 19.0621 29.325 19.1235C29.4431 19.1958 29.4533 19.3296 29.3837 19.5596C29.0975 20.5053 28.7031 21.5027 28.1577 22.541C27.6123 23.5792 26.6174 24.5123 25.7095 25.455C24.814 26.3849 23.7045 27.186 22.3932 27.8585C21.1142 28.5145 19.5709 28.9479 17.7751 29.1792C14.8287 29.5586 12.253 29.2987 10.048 28.3995C7.84305 27.5002 6.07222 26.1148 4.73554 24.2433C3.39887 22.3718 2.56333 20.1937 2.22893 17.709C2.0724 16.546 2.02119 15.3132 2.11682 14.0126C2.21284 12.7069 2.51606 11.4226 2.96748 10.1519C3.42702 8.85826 4.09352 7.64725 5.00797 6.54125C5.93487 5.42021 7.14815 4.49806 8.61297 3.73757C10.11 2.96036 11.919 2.42446 14.0516 2.14984C15.8195 1.9222 17.3745 1.94912 18.725 2.19342C20.0665 2.43611 21.196 2.83101 22.1373 3.36742C23.0824 3.90594 23.862 4.48261 24.472 5.1239C25.0925 5.77636 25.5647 6.38298 25.8752 6.95998C26.1738 7.51465 26.3507 7.94747 26.3934 8.26466C26.4361 8.58185 26.2559 8.83362 25.8527 9.01998C24.0484 9.85414 23.0721 10.3897 21.2678 11.2238C21.0259 11.3356 20.8189 11.3916 20.6471 11.3844C20.5031 11.3784 20.417 11.2661 20.3886 11.0547C20.3601 10.8432 20.3421 10.6035 20.3346 10.3356C20.3271 10.0677 20.3002 9.76188 20.254 9.41826C20.1615 8.73102 19.8819 8.01867 19.4501 7.26299C19.023 6.51568 18.395 5.89299 17.531 5.41266C16.6671 4.93233 15.5195 4.78431 14.0884 4.96859C12.7696 5.13842 11.7021 5.58512 10.8859 6.3087C10.0698 7.03227 9.44153 7.91727 9.01736 8.96945C8.60684 9.98777 8.34718 11.0704 8.25503 12.2138C8.1654 13.3258 8.20289 14.3717 8.33451 15.3497C8.63689 17.5965 9.17204 19.5481 9.97676 21.1886C10.785 22.8363 11.8515 24.0807 13.1728 24.8912C14.4966 25.7033 16.0868 25.9681 17.9108 25.7332C19.7347 25.4983 21.204 25.0238 22.2971 24.281C23.4011 23.5308 24.5219 22.7316 25.0987 21.7652C25.6866 20.78 26.1102 19.8464 26.3934 18.9766C26.494 18.6676 26.6276 18.4893 26.7924 18.4412C26.9572 18.3931 27.1888 18.4171 27.4872 18.5131C28.0047 18.6797 28.307 18.739 28.8246 18.9056Z" fill="#1E31A9"></path>
<path d="M58.1629 29.8454C57.8204 29.8454 57.6492 29.6732 57.6492 29.3288V28.256C57.6492 27.9116 57.8204 27.7394 58.1629 27.7394C59.0323 27.7394 59.6778 27.4216 60.0993 26.7858C60.5209 26.15 60.7316 25.3686 60.7316 24.4414V11.3288C60.7316 10.6931 60.6921 10.0838 60.6131 9.50103C60.5604 8.91824 60.3891 8.42818 60.0993 8.03083C59.8095 7.60699 59.3353 7.35533 58.6767 7.27586C58.3869 7.24937 58.242 7.09043 58.242 6.79904V5.56725C58.242 5.4348 58.2946 5.34209 58.4 5.28911C58.5318 5.23613 58.6635 5.19639 58.7952 5.1699C60.2442 4.82553 61.4166 4.40169 62.3124 3.89838C63.2345 3.39507 64.183 2.74606 65.1578 1.95136C65.2105 1.89838 65.2631 1.87189 65.3158 1.87189H65.3949C65.4476 1.87189 65.4739 1.89838 65.4739 1.95136V24.4414C65.4739 25.7924 65.5925 26.6798 65.8296 27.1037C66.0667 27.5275 66.6068 27.7394 67.4499 27.7394C67.8187 27.7394 68.0031 27.9116 68.0031 28.256V29.3288C68.0031 29.6732 67.8187 29.8454 67.4499 29.8454H58.1629ZM71.9945 31.8719C71.652 31.8719 71.4808 31.6997 71.4808 31.3553V30.2825C71.4808 29.9381 71.6389 29.7659 71.955 29.7659H72.0736C72.2843 29.7659 72.4951 29.7262 72.7059 29.6467C72.9166 29.5673 73.022 29.4348 73.022 29.2494C73.022 29.0904 72.9166 28.9182 72.7059 28.7328L65.8691 21.2229L68.754 18.3222L78.4756 28.6931C78.8708 29.0904 79.1738 29.3686 79.3846 29.5275C79.6217 29.6865 79.8588 29.7659 80.0959 29.7659H80.2145C80.5043 29.7659 80.6492 29.9381 80.6492 30.2825V31.3553C80.6492 31.6997 80.4779 31.8719 80.1354 31.8719H71.9945ZM65.1182 22.8123V19.7129L69.821 15.4216C70.0054 15.2361 70.0976 15.0639 70.0976 14.905C70.0976 14.6136 69.8737 14.4679 69.4258 14.4679H68.3588C68.069 14.4679 67.9241 14.2957 67.9241 13.9514V12.8785C67.9241 12.5341 68.0953 12.362 68.4378 12.362H76.144C76.5129 12.362 76.6973 12.5341 76.6973 12.8785V13.9514C76.6973 14.2957 76.5392 14.4679 76.2231 14.4679H75.8279C75.1429 14.4679 74.5369 14.6401 74.01 14.9845C73.4831 15.3288 72.7717 15.9116 71.876 16.7328L65.1182 22.8123Z" fill="#1E31A9"></path>
<path d="M93.3461 23.4897C92.8988 24.9266 92.2015 26.1593 91.2543 27.1878C90.3332 28.2105 88.9873 28.9173 87.2166 29.3083C85.3158 29.7281 83.5833 29.6738 82.0192 29.1453C80.4494 28.5908 79.1345 27.7068 78.0746 26.4935C77.0349 25.2484 76.334 23.8056 75.9717 22.1651C75.6209 20.5767 75.5563 19.1709 75.7777 17.9478C75.9934 16.6985 76.4012 15.639 77.0011 14.7692C77.6009 13.8993 78.3351 13.2047 79.2035 12.6852C80.0661 12.1397 80.9662 11.7634 81.9036 11.5564C83.1014 11.2919 84.2049 11.2803 85.214 11.5217C86.2492 11.7574 87.1569 12.1577 87.9371 12.7228C88.7115 13.2618 89.3412 13.8874 89.8262 14.5995C90.3055 15.2857 90.617 15.9542 90.7607 16.6052C90.8067 16.8135 90.7342 16.9798 90.5431 17.1039L79.7079 24.9858L78.9078 23.0324L87.5248 16.0499L85.6888 19.9783C85.806 18.7781 85.6859 17.7396 85.3284 16.8627C84.997 15.9801 84.5235 15.32 83.908 14.8824C83.2925 14.4449 82.6462 14.3008 81.9692 14.4503C81.0839 14.6458 80.4701 15.0818 80.1279 15.7582C79.7857 16.4345 79.6285 17.2066 79.6563 18.0744C79.7043 18.9103 79.8537 19.7103 80.1043 20.4742C80.3752 21.2063 80.6551 21.7317 80.9439 22.0502L81.2808 23.2047C81.6444 23.8618 82.1324 24.4641 82.7449 25.0115C83.3834 25.5533 84.1002 25.9548 84.8952 26.2162C85.6845 26.4515 86.5609 26.4628 87.5244 26.25C88.2795 26.0833 89.0017 25.7053 89.6909 25.1162C90.38 24.527 90.919 23.7526 91.3079 22.7928C91.4269 22.4661 91.6208 22.355 91.8897 22.4595L93.13 22.882C93.367 22.9662 93.4391 23.1687 93.3461 23.4897Z" fill="#1E31A9"></path>
<path d="M98.6486 29.8719C97.8486 29.8719 96.9953 29.7119 96.0886 29.3919C95.1819 29.0452 94.3286 28.5119 93.5286 27.7919C92.7286 27.0719 92.0753 26.1252 91.5686 24.9519C91.0619 23.7519 90.8086 22.2985 90.8086 20.5919C90.8086 18.4052 91.1952 16.6452 91.9686 15.3119C92.7686 13.9519 93.7953 12.9652 95.0486 12.3519C96.3019 11.7119 97.6353 11.3919 99.0486 11.3919C100.622 11.3919 101.835 11.6319 102.689 12.1119C103.569 12.5652 104.102 12.9385 104.289 13.2319L103.729 13.5119V10.7519C103.729 10.0852 103.689 9.45852 103.609 8.87185C103.529 8.28519 103.342 7.79185 103.049 7.39185C102.755 6.99185 102.289 6.76518 101.649 6.71185C101.355 6.68519 101.209 6.52519 101.209 6.23185V5.03185C101.209 4.89852 101.249 4.80518 101.329 4.75185C101.409 4.67185 101.542 4.61852 101.729 4.59185C103.195 4.24519 104.395 3.81852 105.329 3.31185C106.262 2.80518 107.222 2.15185 108.209 1.35185C108.289 1.29852 108.355 1.27185 108.409 1.27185H108.449C108.502 1.27185 108.529 1.29852 108.529 1.35185V22.9119C108.529 23.7385 108.662 24.4985 108.929 25.1919C109.195 25.8585 109.755 26.2452 110.609 26.3519C110.902 26.3785 111.049 26.5385 111.049 26.8319V27.9919C111.049 28.3119 110.862 28.4719 110.489 28.4719C109.342 28.4719 108.382 28.5385 107.609 28.6719C106.862 28.8052 106.209 28.9785 105.649 29.1919C105.089 29.3785 104.542 29.5919 104.009 29.8319C103.982 29.8585 103.915 29.8719 103.809 29.8719H103.689C103.635 29.8719 103.609 29.8452 103.609 29.7919C103.662 29.0985 103.715 28.4719 103.769 27.9119C103.849 27.3252 103.955 26.6319 104.089 25.8319H104.289C104.235 26.0719 104.102 26.4185 103.889 26.8719C103.675 27.2985 103.355 27.7519 102.929 28.2319C102.502 28.6852 101.942 29.0719 101.249 29.3919C100.555 29.7119 99.6886 29.8719 98.6486 29.8719ZM100.209 26.7919C101.062 26.7919 101.729 26.6185 102.209 26.2719C102.689 25.8985 103.035 25.5252 103.249 25.1519C103.462 24.7519 103.582 24.5252 103.609 24.4719V17.3919C103.529 16.9119 103.355 16.3919 103.089 15.8319C102.822 15.2719 102.422 14.7919 101.889 14.3919C101.355 13.9652 100.622 13.7519 99.6886 13.7519C98.5686 13.7519 97.6886 14.0319 97.0486 14.5919C96.4353 15.1252 95.9953 15.8319 95.7286 16.7119C95.4886 17.5652 95.3686 18.4852 95.3686 19.4719C95.3686 21.7385 95.8086 23.5252 96.6886 24.8319C97.5953 26.1385 98.7686 26.7919 100.209 26.7919Z" fill="#1E31A9"></path>
</svg>