<svg width="444" height="636" viewBox="0 0 444 636" fill="none" xmlns="http://www.w3.org/2000/svg">
<path d="M193.566 609.352C195.208 609.307 197.228 609.202 198.492 610.416C199.208 611.106 199.502 612.051 199.502 613.029C199.503 615.568 197.609 618.552 195.895 620.318C195.606 620.448 195.333 620.572 195.025 620.646C194.059 620.874 192.831 620.803 192.003 620.206C191.236 619.653 190.905 618.671 190.824 617.768C190.568 614.904 191.777 611.547 193.566 609.352Z" fill="#251E1B"></path>
<path d="M241.986 605.073C242.481 605.114 242.986 605.252 243.426 605.487C244.265 605.935 244.943 606.962 245.211 607.858C245.654 609.337 245.313 611.08 244.591 612.425C243.656 614.168 242.492 614.949 240.692 615.554C239.729 615.337 238.612 615.105 237.767 614.579C236.899 614.034 236.623 613.306 236.426 612.35C236.833 609.341 239.702 606.88 241.986 605.073Z" fill="#251E1B"></path>
<path d="M159.376 598.531C168.042 602.556 152.802 615.262 150.304 606.432C149.789 604.613 151.735 603.452 152.992 602.567L153.257 600.775L153.374 600.234L156.267 598.938L156.735 598.829C157.734 598.601 158.154 598.547 159.376 598.531Z" fill="#251E1B"></path>
<path d="M124.464 578.757C124.951 578.704 125.46 578.648 125.95 578.693C127.093 578.801 128.369 579.328 129.108 580.232C129.915 581.218 130.068 582.562 129.971 583.79C129.797 586 128.489 589.29 126.638 590.623C125.803 591.224 125.219 591.023 124.277 590.881C122.128 589.313 118.755 587.389 117.8 584.802C117.52 584.048 117.509 583.256 117.87 582.524C119.009 580.221 122.209 579.526 124.464 578.757Z" fill="#251E1B"></path>
<path d="M87.0195 539.515C87.5004 539.586 87.963 539.683 88.4107 539.881C89.453 540.34 90.593 541.553 90.8735 542.64C91.3336 544.424 90.6865 546.273 89.822 547.826C88.1873 550.761 84.0848 554.483 80.796 555.391C80.7333 555.383 80.6705 555.376 80.6081 555.364C80.5047 555.346 80.4023 555.323 80.2988 555.305C79.8462 555.223 79.3724 555.155 78.9586 554.939C78.0694 554.48 77.2018 553.553 76.9448 552.571C76.5591 551.097 77.3038 549.428 78.0107 548.158C79.9632 544.645 83.0248 540.657 87.0195 539.515Z" fill="#251E1B"></path>
<path d="M301.855 462.232C303.412 462.15 305.072 462.016 306.482 462.792C307.751 463.494 308.422 464.055 308.832 465.473C308.139 466.519 307.792 466.773 306.618 467.195C304.638 467.538 302.946 467.904 301.236 466.515C300.432 465.865 300.383 465.447 300.209 464.488C300.634 463.476 300.963 462.893 301.855 462.232Z" fill="#251E1B"></path>
<path d="M264.337 461.478C265.574 461.374 266.63 461.463 267.534 462.408C268.078 462.975 268.322 463.868 268.163 464.637C267.943 465.701 266.974 466.115 266.153 466.664C264.76 466.466 262.996 466.343 262.025 465.19C261.421 464.477 261.44 464.174 261.569 463.278C262.313 462.177 263.149 461.911 264.337 461.478Z" fill="#251E1B"></path>
<path d="M276.194 399.127C276.769 399.123 277.364 399.135 277.923 399.284C280.728 400.031 283.151 403.855 284.587 406.166C284.877 412.091 283.172 418.069 283.662 423.838C285.512 423.584 287.753 422.198 289.461 421.392C292.622 419.898 295.894 418.502 298.98 416.863C304.493 413.939 309.599 410.418 315.673 408.704C321.301 407.118 326.163 406.461 331.461 409.496C335.573 411.849 345.464 420.074 346.598 424.45C346.899 425.615 347.007 426.903 346.743 428.08C345.918 431.754 343.751 435.334 342.502 438.926C340.35 445.113 339.957 452.342 336.455 457.946C335.468 459.525 334.328 460.911 332.442 461.363C331.995 461.28 331.394 461.265 331.029 460.997C329.23 459.675 329.133 457.64 328.781 455.59C328.014 454.152 327.32 452.681 326.62 451.21C328.217 444.616 328.411 438.986 328.541 432.288L324.784 428.557C319.894 428.005 314.605 426.821 309.701 427.639C298.962 429.431 298.728 435.465 285.306 432.418C283.85 433.535 282.539 434.726 281.226 436.006C279.751 440.834 279.249 452.898 276.191 456.023C275.502 456.725 274.593 457.121 273.6 457.054C272.856 457.001 272.063 456.695 271.576 456.113C268.654 452.614 275.131 432.25 275.903 427.03C276.787 421.067 277.142 414.772 277.374 408.746C275.956 407.047 273.659 405.591 272.651 403.668C272.331 403.059 272.221 402.406 272.458 401.749C272.991 400.278 274.873 399.669 276.194 399.127Z" fill="#251E1B"></path>
<path d="M300.297 447.379C305.689 446.808 310.993 448.346 315.358 451.621C316.903 452.782 319.156 455.06 319.241 457.128C319.283 458.14 318.912 458.42 318.247 459.066C316.966 459.462 316.21 459.417 314.927 459.167C311.871 455.799 307.132 451.333 302.188 452.51C300.657 452.872 299.102 453.447 297.513 453.133C296.402 452.913 295.816 452.55 295.201 451.643C295.215 451.304 295.221 451.012 295.376 450.699C296.442 448.541 298.117 447.962 300.297 447.379Z" fill="#251E1B"></path>
<path d="M150.877 400.938C151.212 400.927 151.546 400.92 151.882 400.927C153.713 400.979 155.113 401.793 156.33 403.111C160.221 407.323 158.675 413.148 158.728 418.301C158.744 419.839 159.207 421.579 159.049 423.084C158.961 423.924 158.696 423.972 158.085 424.435C156.489 424.192 155.118 424.021 153.816 422.99C150.633 420.474 148.738 417.072 148.308 413.032C147.882 409.03 148.234 404.157 150.877 400.938Z" fill="#251E1B"></path>
<path d="M354.509 370.056C354.961 370.194 355.333 370.34 355.725 370.616C357.567 371.908 359.003 374.245 359.361 376.463C359.782 378.957 359.182 381.515 357.691 383.561C356.025 385.835 354.225 386.01 351.58 386.432C351.258 386.059 350.927 385.693 350.608 385.32C350.265 384.913 349.932 384.442 349.501 384.125C348.892 383.677 347.992 383.602 347.278 383.785C345.184 384.319 343.277 387.948 342.113 389.696C341.657 390.196 341.113 390.7 340.535 391.059C339.745 391.544 339.021 391.495 338.166 391.256C337.26 390.696 336.839 390.047 336.54 389.024C335.768 386.38 336.607 383.21 337.913 380.869C341.479 374.477 347.847 371.904 354.509 370.056Z" fill="#251E1B"></path>
<path d="M258.539 377.352C258.83 377.43 259.122 377.512 259.411 377.598C261.107 378.102 262.134 378.741 262.963 380.388C263.412 381.284 263.481 382.18 263.145 383.128C262.686 384.42 261.917 385.014 260.73 385.611C259.499 385.338 258.51 384.726 257.611 383.856C256.693 382.971 256.14 381.989 256.215 380.683C256.307 379.081 257.408 378.3 258.539 377.352Z" fill="#251E1B"></path>
<path d="M305.348 306.94C306.858 306.816 308.169 306.882 309.364 307.926C310.866 309.237 311.335 311.291 311.448 313.195C311.742 318.153 309.744 322.379 306.447 325.986C304.703 327.898 302.687 329.858 300.006 330.004C298.186 327.513 295.345 325.814 293.24 323.522C293.244 320.77 293.367 318.082 294.409 315.501C296.447 310.463 300.672 308.87 305.348 306.94Z" fill="#251E1B"></path>
<path d="M305.391 261.006C311.08 260.549 328.164 265.891 326.961 273.393C325.067 276.937 319.087 274.659 316.211 273.785C313.19 278.16 309.85 281.089 306.572 285.086C306.227 285.508 306.701 286.208 306.935 286.611C312.208 289.734 321.805 277.665 326.633 281.069C331.56 288.45 316.954 289.543 317.248 294.131C318.833 295.81 323.433 294.128 325.986 294.968C330.341 301.435 321.31 300.271 321.322 303.829C321.339 308.871 323.879 319.732 321.456 324.481C320.276 325.538 316.947 326.949 315.768 325.4C313.061 321.834 315.2 316.231 314.955 312.332C314.757 309.176 314.363 306.037 314.137 302.898C312.355 300.603 310.888 297.983 309.395 295.481C307.563 294.513 304.85 293.385 302.907 292.506C297.834 294.649 294.664 295.487 291.101 299.704C286.132 305.093 286.69 311.033 285.141 317.872C284.435 320.99 281.283 328.002 277.372 322.234C276.488 320.931 277.369 316.424 277.602 314.423C278.542 306.331 281.439 298.78 287.828 293.368C291.895 289.897 294.603 288.696 296.586 283.509C297.383 282.405 301.728 279.246 302.197 278.461C303.133 276.895 309.693 270.148 309.988 269.393L309.357 269.094C302.428 269.551 289.97 275.525 284.458 280.207C282.59 281.793 275.27 293.495 271.338 286.653C269.972 283.336 274.321 280.86 275.789 278.988C279.091 274.778 280.248 272.596 285.108 270.233C291.805 266.975 298.59 264.027 305.391 261.006Z" fill="#251E1B"></path>
<path d="M371.42 306.497C374.437 306.619 376.05 308.297 377.985 310.392L378.034 311.559C378.396 320.546 376.786 326.113 370.71 332.699C369.758 332.766 368.846 332.722 367.938 332.389C366.725 331.941 365.885 331.042 365.343 329.888C363.338 325.602 364.35 316.429 365.982 312.082C367.043 309.258 368.69 307.715 371.42 306.497Z" fill="#251E1B"></path>
<path d="M121.984 313.853C122.528 314.201 122.643 314.569 122.901 315.137C122.537 316.273 121.928 316.657 121.08 317.435C120.566 317.143 120.564 316.942 120.3 316.431C120.47 315.349 121.281 314.646 121.984 313.853Z" fill="#251E1B"></path>
<path d="M157.48 142.272C161.225 141.723 161.943 145.039 163.758 147.322C166.895 151.267 170.855 155.892 174.939 158.848C176.966 160.315 180.295 161.131 182.575 162.232C185.81 163.794 189.103 165.35 192.093 167.292L192.446 167.524C196.88 167.551 201.016 167.778 205.435 168.119C210.641 168.522 216.105 168.292 221.364 168.406C223.285 170.101 224.244 171.309 226.691 171.856C229.889 174.628 241.306 180.436 231.815 184.246C230.326 184.843 225.586 180.236 224.305 179.182C221.959 177.611 220.39 176.443 217.617 175.514C214.223 174.271 210.518 175.489 207.141 175.195C201.676 174.72 196.014 174.516 190.594 173.762C188.091 173.414 185.735 170.989 183.53 169.95C181.051 168.78 178.398 167.888 175.898 166.755C168.191 162.309 158.96 155.062 155.209 146.807C154.313 144.835 155.228 142.622 157.48 142.272Z" fill="#251E1B"></path>
<path d="M174.78 125.844C177.971 126.206 182.711 130.047 183.902 130.066C191.824 130.186 193.383 131.459 199.876 136.151C200.706 136.75 205.572 137.956 207.028 138.487C209.696 139.46 212.824 140.659 215.45 141.922C219.975 144.446 223.636 147.768 228.383 150.118C232.133 151.974 236.422 155.315 239.673 157.917C242.794 160.413 247.037 163.793 248.193 167.708C248.977 170.459 247.227 171.673 244.83 172.201C240.143 169.1 238.544 165.873 234.694 162.659C229.185 158.059 221.553 153.483 215.484 149.497C209.558 145.604 202.656 144.589 196.242 142.223C192.938 140.816 190.045 138.005 186.581 136.98C181.588 135.502 172.449 136.224 170.142 130.264C170.259 127.218 172.201 126.695 174.78 125.844Z" fill="#251E1B"></path>
<path d="M341.463 183.346C343.551 185.085 347.387 194.692 349.188 198.138C349.582 199.403 349.941 200.101 349.476 201.36C348.522 201.978 348.023 201.989 346.9 201.511C343.98 198.231 338.694 187.652 340.831 183.35L341.463 183.346Z" fill="#251E1B"></path>
<path d="M165.181 91.005C166.112 91.0419 167.562 91.0641 168.259 91.6103C171.313 94.0048 171.503 102.927 169.658 105.631C168.12 105.676 166.58 105.903 165.381 105.047C163.644 102.172 162.539 93.5639 165.181 91.005Z" fill="#251E1B"></path>
<path fill-rule="evenodd" clip-rule="evenodd" d="M156.236 58.2712C163.107 58.4829 176.787 56.6587 180.763 63.597C185.18 71.3043 188.754 79.6592 190.503 88.2791C190.797 90.0042 190.517 97.1773 191.235 98.3758C192.672 100.772 203.88 100.955 206.759 101.615C230.745 107.113 255.062 110.298 278.967 116.033C284.754 117.422 289.603 119.377 295.054 121.718C299.74 123.308 305.335 124.039 310.207 125.485C318.327 127.798 325.734 131.549 333.519 134.526C342.943 138.13 352.849 140.473 362.482 143.712C372.054 146.929 381.234 151.304 391.031 153.681C395.027 154.652 401.496 157.724 405.264 159.455C405.574 159.645 406.127 160.046 406.433 160.252C405.779 162.192 404.513 167.127 403.736 168.492C399.214 176.451 397.589 188.319 393.589 195.924C396.98 200.217 402.694 205.767 405.014 210.628C406 212.695 408.087 224.09 408.326 226.692C409.208 236.246 408.685 246.566 407.703 256.099C406.829 263.616 404.973 271.591 403.908 279.102C403.497 281.993 399.546 287.861 402.112 290.505C404.554 293.023 408.834 294.384 411.833 296.174C416.898 300.115 423.146 302.922 428.188 306.455C435.269 311.698 444.177 322.656 443.997 331.605C443.833 339.924 439.743 353.717 433.05 358.452C423.449 365.243 425.533 364.721 421.88 376.22C420.506 380.507 419.001 384.752 417.368 388.945C416.114 392.149 414.866 393.407 413.017 396.196C411.942 397.817 411.448 401.569 410.373 403.283C406.089 410.034 401.167 416.322 396.775 423.027C395.232 425.38 391.434 429.128 389.32 431.249C382.796 437.795 377.892 446.737 371.692 453.316C364.712 460.728 355.019 467.359 349.142 475.73C344.485 482.757 342.809 490.897 341.021 498.839C340.221 502.393 338.299 506.956 337.613 510.197C336.413 515.865 336.414 522.567 332.444 527.376C329.139 531.375 316.724 536.874 311.585 536.064C301.239 534.425 288.249 531.05 278.293 527.414C275.652 526.451 267.45 523.099 264.983 522.47L264.763 522.418C263.945 524.505 261.807 530.213 260.817 531.789C258.984 534.705 253.456 537.278 255.786 542.487C258.001 547.441 263.836 551.758 267.365 555.91C272.288 561.637 275.642 567.746 279.567 574.157C282.938 579.664 286.427 584.387 289.178 590.477C292.108 596.959 287.675 604.512 289.119 610.796C289.48 612.368 294.974 614.986 296.852 615.718C297.012 615.778 297.174 615.837 297.336 615.897C297.407 621.569 297.401 627.24 297.317 632.916C294.027 632.938 289.11 633.113 285.951 632.882C284.342 630.507 276.84 617.827 272.869 621.718C268.68 625.825 266.717 629.757 259.779 629.096C257.222 628.924 254.329 623.73 251.651 621.33C249.484 625.661 245.961 633.827 241.019 634.962C233.565 636.676 219.586 633.364 217.645 624.343C217.06 621.628 216.083 612.253 210.553 614.433C204.905 618.544 204.106 629.608 197.809 633.741C193.271 636.72 187.754 636.399 182.786 634.808C173.383 631.797 174.83 613.833 171.522 611.882L171.443 611.838C170.074 612.604 169.115 613.974 168.044 615.139C162.614 621.031 160.149 625.788 151.751 626.819C140.391 621.67 137.824 617.103 137.9 604.438C137.909 602.754 138.776 596.519 138.416 595.701C132.852 595.544 127.123 602.119 121.744 604.068C119.332 604.946 115.758 605.659 113.208 606.237C104.9 599.882 98.6443 588.767 102.899 578.204C103.969 575.55 111.206 568.7 110.305 566.05L110.256 565.927C106.875 566.043 99.3479 566.413 95.9727 566.921C86.6358 568.317 77.5241 569.714 68.1417 566.992C65.2749 566.159 61.7625 562.911 59.3832 561.006C53.2167 565.584 47.1442 576.054 38.1651 576.042C35.562 576.038 32.2103 572.002 33.0693 569.415C35.2187 562.933 44.3318 561.014 47.4448 554.465C49.8961 549.312 45.1512 544.918 50.0067 541.057C50.5064 540.665 51.0246 540.299 51.5594 539.955C55.04 537.696 58.8489 536.244 62.1518 534.272C64.1156 533.1 67.7383 528.971 70.1566 527.328C87.8194 515.323 97.7751 507.766 119.495 505.511C132.499 504.163 130.638 504.163 143.846 504.966C143.921 501.97 140.734 479.998 139.251 477.197C134.361 467.975 115.556 451.576 106.697 445.737C96.4109 438.96 93.7558 431.066 88.8185 420.799C83.0816 408.948 75.7842 398.5 66.853 388.875C64.7585 386.616 63.1035 380.276 61.275 377.595C47.388 357.705 39.6567 335.552 38.4795 311.367C38.3962 309.656 39.9535 308.655 39.9057 307.734C39.6121 302.073 41.4035 283.271 44.3147 278.855C44.7188 278.318 45.0605 277.205 45.3044 276.537C44.8119 270.707 48.0675 263.562 49.0874 257.795C50.1914 251.553 51.4764 244.013 51.6075 237.628C51.6254 236.746 50.3303 236.16 49.5639 235.616L48.1653 235.963C45.8049 236.808 36.0815 235.687 33.0899 236.083C26.317 236.978 20.5697 237.258 13.9526 235.155C9.3725 233.7 7.6982 232.662 5.41751 228.101C3.73381 224.734 1.17807 219.996 0.0267925 216.18C-0.264394 209.798 1.87851 193.37 3.51198 188.042L3.60648 187.435C4.66349 178.595 5.53231 176.053 8.45194 167.615C10.6598 161.234 11.6279 151.125 14.2602 144.694C16.5138 139.188 20.3615 134.622 20.903 127.654C21.0722 125.48 24.8827 118.386 25.7604 115.995C29.1326 111.487 32.0804 110.064 34.2566 104.741C34.7252 103.596 44.8317 94.6179 46.2471 93.5545C54.9379 87.0259 62.8075 81.9674 73.3634 79.1988C77.9702 77.9909 84.0228 74.6931 89.0379 73.7842C95.5856 72.6622 98.1639 72.4926 104.199 68.9063C105.348 68.223 110.904 68.0846 112.482 67.4442C122.847 64.1085 132.827 60.5361 143.851 60.33C147.27 60.2661 153.202 58.178 156.236 58.2712ZM136.907 522.309C134.705 522.265 130.777 520.491 128.775 520.711C116.271 522.081 103.058 526.192 91.5769 531.304C88.9371 532.476 86.4186 534.702 83.7777 535.941C78.93 538.618 73.4283 541.169 70.6732 546.277C69.1932 549.025 66.5784 552.635 65.7985 555.566C69.2778 561.316 76.5777 562.567 82.9283 561.899C89.8114 561.174 96.2858 559.057 103.414 559.49C108.219 559.599 121.208 555.402 118.824 565.192C117.008 572.656 105.847 582.431 109.546 589.943C110.737 592.363 112.52 596.556 113.907 598.382C119.389 599.393 139.701 582.767 145.335 587.744C148.467 593.225 143.28 606.32 145.402 612.577C146.131 614.724 150.415 618.212 152.281 619.575C153.691 618.929 155.689 618.081 156.82 617.118C162.029 612.694 168.052 602.164 175.96 603.598C179.049 604.155 180.724 615.251 180.97 617.891C181.443 622.965 181.657 624.675 185.044 628.495L192.161 628.32C202.795 621.057 198.976 604.949 213.834 606.868C228.279 608.732 220.064 632.307 239.042 627.3C244.603 625.833 246.122 609.594 251.847 609.508C256.519 610.479 256.949 618.776 263.148 620.489C266.297 618.234 267.608 616.786 270.255 614.478L270.579 614.198L270.822 612.458C269.371 610.677 264.341 611.51 264.299 607.735C265.659 605.147 272.062 602.926 272.278 601.171C273.584 590.511 264.254 583.182 259.046 575.744C255.397 570.535 255.655 566.245 251.556 561.462C248.902 558.307 244.653 554.987 241.33 552.396C240.406 551.676 238.363 552.187 237.3 552.691C230.61 555.861 223.158 558.643 215.953 560.405C214.211 560.834 209.176 559.886 205.204 560.566L202.477 563.119C192.493 562.63 190.084 560.678 181.172 557.045C176.233 555.032 168.336 555.585 163.382 552.538C158.524 549.26 152.842 545.03 148.407 541.3C145.515 538.865 141.668 532.446 140.821 528.776C140.092 525.621 146.411 524.441 144.12 521.861C142.244 521.323 139.059 522.35 136.907 522.309ZM217.716 328.1C216.743 328.708 215.36 329.369 214.492 330.164C211.724 332.696 210.978 334.421 207.528 336.127C204.778 344.442 201.54 343.99 196.75 349.934C190.593 357.574 186.956 360.819 179.198 366.74C175.645 382.926 152.502 393.967 140.58 403.309C139.264 404.34 136.925 409.5 135.491 411.572C135.625 413.469 135.888 417.057 136.795 418.652C140.673 425.481 143.904 433.669 153.274 432.649C156.737 432.272 159.127 431.922 162.188 433.12C162.862 433.893 163.064 434.33 162.848 435.405C161.94 439.928 152.875 439.495 149.355 439.201L148.729 439.146C150.584 442.369 155.399 446.696 158.174 450.103L158.436 450.43C159.418 452.076 159.879 452.917 160.62 454.675C164.455 456.77 164.844 458.248 166.52 462.385C161.107 458.642 159.904 455.525 155.947 451.858L155.555 451.502C151.361 448.335 147.816 443.373 144.184 439.542C142.266 437.518 139.529 436.275 137.639 434.472C135.452 432.381 134.159 428.71 132.549 426.093C130.662 423.028 128.826 419.279 128.26 415.709C127.609 411.598 129.325 407.263 129.726 403.175C129.947 401.043 129.695 399.142 129.838 397.171C126.963 396.081 116.723 392.396 114.995 396.058C116.287 398 118.099 397.645 120.178 397.563C121.151 400.622 125.341 419.014 125.229 421.194C123.808 422.385 122.283 421.739 121.985 422.352C120.546 425.313 120.784 426.235 118.738 429.263C119.846 431.081 120.934 433.206 122.545 434.531C124.58 434.934 125.259 431.779 126.417 429.793C126.386 428.18 126.032 425.921 126.632 424.633C128.225 424.144 130.268 426.806 131.17 428.034C135.469 433.885 140.947 438.485 145.789 443.772C153.235 451.905 160.986 459.899 168.389 468.068C170.183 470.051 173.365 471.63 172.122 474.449C168.454 475.83 158.541 461.459 155.408 459.26C151.34 456.411 143.772 445.964 139.979 444.254L139.658 444.62C140.395 448.94 150.521 456.942 153.021 462.621C154.918 464.805 159.493 471.163 159.36 473.968L158.827 474.203C156.514 473.038 153.039 467.46 151.615 465.111C143.786 469.715 174.692 493.309 172.677 499.966C169.275 501.244 158.832 483.493 154.955 482.097L154.865 482.066L154.436 482.406C154.402 489.168 165.976 502.102 169.217 508.613C170.416 511.022 174.734 513.404 172.899 516.709C168.605 518.075 163.092 503.196 157.854 500.037L157.248 500.231C155.255 504.771 164.547 514.823 166.6 518.773C169.929 525.18 174.701 530.075 178.996 535.732C179.928 536.919 181.181 540.119 179.311 541.053C174.534 540.691 170.564 532.264 167.954 528.605C164.65 523.975 160.69 518.521 157.839 513.507L157.567 513.024C153.338 519.405 153.228 521.824 151.271 529.426C152.294 530.573 160.563 538.297 161.259 538.432C161.846 535.993 155.967 527.828 155.62 525.737C154.932 524.113 154.095 522.201 155.651 520.984L156.593 521.204C157.804 522.044 158.125 523.172 158.692 524.523C161.499 527.331 165.574 538.257 168.223 541.766C169.936 544.036 170.744 543.069 172.51 544.178C177.82 547.505 179.43 547.867 185.535 547.755C187.033 543.54 186.838 536.214 188.084 533.69C191.926 525.898 194.886 517.959 197.733 509.659C199.01 505.937 199.417 501.59 201.572 498.357C202.631 497.748 202.778 497.651 203.986 497.733C206.116 498.607 206.569 500.201 207.43 502.251C205.754 506.903 204.295 512.359 202.397 516.798C198.179 526.655 194.621 533.428 195.026 544.327C194.016 546.056 193.039 547.572 193.292 549.63C196.498 554.681 222.047 549.495 227.242 547.74C227.898 545.978 228.574 541.598 229.283 540.407C234.412 531.771 238.535 522.66 243.348 513.852C244.294 512.123 247.513 507.479 247.128 505.888C244.529 502.819 240.81 500.433 238.735 498.226C229.638 488.56 230.649 488.522 218.956 483.657C217.537 481.197 214.698 477.149 216.064 474.438C224.971 469.189 242.514 493.413 249.443 497.453C250.596 498.122 252.017 499.694 252.925 500.695C259.024 501.419 260.569 505.126 266.006 507.463C270.521 509.405 276.726 509.707 280.39 513.094C285.389 517.716 291.861 517.959 298.066 519.897C300.622 520.696 303.066 521.701 305.723 522.324C310.798 519.475 313.086 519.804 318.672 520.887C330.101 514.76 326.619 487.066 330.642 476.705C336.411 461.852 347.331 448.032 361.197 440.285C378.243 430.764 387.572 415.549 397.234 399.329C399.994 394.696 401.507 388.464 403.412 383.449C405.499 377.132 410.985 366.953 408.98 360.449C408.36 359.967 408.132 359.904 407.176 360.049C396.558 361.659 382.538 366.128 374.142 356.846C372.243 354.745 372.521 352.107 372.933 349.519L373.112 348.415C370.172 350.674 369.283 350.652 365.728 351.402C367.393 353.284 372.783 359.486 374.452 360.501C379.894 363.794 381.436 363.955 383.344 370.501C380.136 381.672 379.513 383.464 370.572 391.253C369.179 392.466 367.558 395.345 365.806 396.921C363.461 399.027 359.901 400.184 358.963 396.017C358.209 385.843 375.606 381.698 374.923 371.912C374.777 369.821 366.568 364.007 364.283 361.957C358.922 357.152 358.13 351.409 352.002 347.403C347.235 349.621 340.634 354.326 336.69 355.487C333.575 361.651 329.714 367.834 323.858 371.676C313.371 378.558 295.185 382.527 282.7 380.268C276.828 379.208 265.658 372.89 261.468 368.499C259.748 366.696 255.936 359.922 254.66 357.522C253.943 356.174 254.463 351.279 252.714 350.058C247.557 346.459 242.139 344.024 236.561 341.321C233.415 339.502 230.412 337.333 227.385 335.317C223.756 332.901 220.569 331.949 217.967 328.447L217.716 328.1ZM103.807 415.97C103.432 419.693 106.809 425.286 109.135 428.083C110.319 429.506 112.183 430.779 114.076 430.954C114.216 430.966 114.356 430.969 114.496 430.981C114.721 429.898 114.883 429.114 114.266 428.139C112.47 425.305 107.09 416.736 104.093 416.023C103.999 416 103.903 415.989 103.807 415.97ZM107.054 396.902C105.556 396.869 104.335 396.652 103.095 397.387C102.713 398.041 102.328 398.594 102.74 399.445C105.46 405.057 106.782 403.153 107.834 409.694C109.265 409.526 110.771 409.153 111.972 409.87C113.555 411.879 112.608 413.936 112.128 416.336C113.227 420.029 114.761 421.866 117.007 424.917L117.03 418.36C117.742 417.703 118.808 416.781 119.438 416.098C116.996 412.909 116.417 412.539 114.245 408.719C111.781 405.068 109.411 400.714 107.054 396.902ZM73.0747 357.877C74.4682 362.984 76.4561 369.795 78.8578 374.563C83.6536 384.084 90.4534 392.227 96.113 401.241C97.958 404.179 99.8943 410.175 102.355 411.635L102.812 411.285C103.027 405.632 92.0364 391.846 90.5745 383.902L90.5121 383.528C90.9239 386.298 75.1711 358.522 75.0456 358.283C73.7347 358.392 74.2563 358.496 73.0747 357.877ZM148.005 383.382C145.899 384.233 141.806 385.297 140.499 387.149C140.406 388.105 140.367 388.747 141.002 389.569C141.828 390.633 142.867 391.611 143.809 392.578C146.195 392.38 148.613 391.361 150.243 389.554C150.87 388.856 151.145 388.206 151.318 387.299C151.156 385.738 150.121 384.939 148.98 384.009C148.651 383.74 148.396 383.561 148.005 383.382ZM78.6046 346.025C79.3064 350.173 81.8277 353.956 83.5188 357.753C85.9278 363.167 89.3715 374.156 93.8484 377.804C94.1135 378.02 94.3744 378.233 94.6462 378.442C95.6602 381.582 96.5598 386.093 99.0157 388.382C100.137 388.587 100.653 388.277 101.678 387.9C101.768 387.422 101.999 386.739 101.987 386.272C101.981 386.079 98.0644 377.579 97.7019 377.053C97.1192 376.206 96.3036 375.574 95.5122 374.936C92.0371 372.124 90.5605 368.413 90.1639 364.075C90.1385 363.795 90.1159 363.514 90.0957 363.231L87.1701 361.098C86.9744 360.161 86.7877 359.097 86.3597 358.242C85.8093 357.14 79.998 346.773 79.6436 346.529C79.3217 346.313 78.9673 346.16 78.6046 346.025ZM98.1148 360.901C98.4048 365.725 106.61 382.818 110.2 386.037C110.773 386.548 111.53 386.634 112.279 386.574C113.054 386.511 113.829 386.392 114.597 386.276C113.682 381.683 108.885 376.859 106.679 372.625C105.503 370.37 103.041 363.418 101.315 362.178C100.428 361.54 99.1531 361.226 98.1148 360.901ZM112.653 366.647C111.228 364.224 108.284 361.338 105.254 362.618C104.414 365.113 106.651 367.976 108.05 370.008C111.495 375.003 115.085 380.347 119.205 384.797L119.59 384.726C119.32 381.833 118.126 379.85 116.821 377.296L112.653 366.647ZM123.318 363.421C121.629 363.119 120.325 362.51 119.194 363.906C120.746 367.046 122.311 370.318 123.932 373.409C125.445 374.891 127.412 381.593 129.638 381.605C130.073 380.716 130.456 379.615 130.062 378.666C127.961 373.607 125.459 368.488 123.318 363.421ZM132.632 361.886C130.906 362.237 129.152 362.544 127.454 363.014C128.671 368.002 131.996 375.28 135.029 379.477C136.245 379.984 137.513 379.491 138.707 379.084C140.236 378.33 142.337 377.576 143.47 376.31C143.985 374.596 143.332 373.017 142.524 371.508C141.153 368.955 137.144 362.995 134.471 362.204C133.882 362.028 133.241 361.957 132.632 361.886ZM115.171 364.048C114.801 364.982 114.894 364.638 115.082 365.736C116.163 368.943 117.666 372.961 119.822 375.567L120.674 375.123C119.316 371.811 118.012 368.443 116.695 365.109L115.806 364.082L115.171 364.048ZM300.595 338.901C297.757 338.532 294.931 338.614 292.08 338.7C289.278 339.663 286.577 339.671 283.683 340.07C279.772 340.608 275.301 341.511 271.585 342.81C270.221 344.24 269.437 345.809 268.231 347.313C266.484 349.494 264.207 351.492 262.681 353.81C262.259 354.452 261.917 355.151 261.936 355.939C261.995 358.418 266.629 363.481 268.523 365.072C276.098 371.43 285.426 374.163 295.225 373.222C296.536 373.096 297.845 372.942 299.151 372.771C308.16 371.852 319.08 368.305 324.977 361.08C327.176 358.384 329.06 354.322 328.651 350.764C328.44 348.93 327.625 347.239 326.143 346.092C324.599 344.898 322.529 344.091 320.683 343.516C317.665 342.576 314.498 342.299 311.428 341.586C307.817 340.75 304.279 339.379 300.595 338.901ZM141.923 360.804C142.725 363.817 145.747 370.639 148.352 372.382C147.97 369.533 145.389 363.171 143.181 361.315C142.799 360.994 142.402 360.897 141.923 360.804ZM167.842 355.356C166.22 356.036 162.449 357.048 161.55 358.395C160.954 361.229 162.292 364.37 163.669 366.797C164.364 367.099 164.636 367.054 165.348 366.912C166.825 366.009 170.875 364.534 171.31 362.872C171.821 360.916 170.16 358.003 169.12 356.387C168.756 355.819 168.463 355.595 167.842 355.356ZM57.4398 310.834C57.0354 311.777 56.7928 313.102 56.6792 314.696C56.6897 314.736 56.699 314.778 56.7107 314.821C56.6972 314.819 56.6836 314.818 56.67 314.817C56.0593 323.988 59.6653 341.824 61.8603 347.325C62.9606 350.08 64.9893 352.44 66.2464 355.128C66.8903 356.502 67.0907 358.238 67.8473 359.519C68.1755 360.072 68.7402 360.52 69.235 360.919C69.919 358.156 63.5732 341.201 62.5734 336.892C61.2647 331.251 60.8168 324.586 60.2641 318.81C60.0463 316.533 60.1025 314.215 59.6913 311.965C59.0191 311.186 58.4183 311.073 57.4398 310.834ZM66.3037 359.896L66.3564 360.513L66.877 360.031L66.5866 359.781L66.3037 359.896ZM185.288 349.587C180.483 350.439 176.214 353.501 171.388 354.71C172.424 356.043 173.548 357.361 174.493 358.757C175.072 359.078 175.311 359.381 175.976 359.179C177.845 358.616 184.465 352.474 185.294 350.685C185.408 350.439 185.468 350.136 185.514 349.871L185.288 349.587ZM113.672 335.082C111.495 334.607 109.315 334.324 107.081 334.436C107.118 339.196 111.218 350.85 114.662 354.18C115.678 355.166 116.994 355.92 118.449 355.849C120.561 355.748 122.422 352.205 123.665 352.425C125.461 352.739 125.8 355.393 128.705 354.859C129.253 354.157 129.356 354.098 129.227 353.213C128.857 350.666 127.082 348.086 126.201 345.644C124.866 343.004 123.184 338.671 120.742 336.804L120.503 336.631C119.994 337.393 120.238 338.405 120.403 339.29C120.929 342.105 123.218 347.16 121.811 349.744C121.028 349.931 120.904 349.916 120.206 349.486C118.214 348.254 114.481 337.568 113.672 335.082ZM397.955 328.133C389.978 333.961 378.739 338.565 373.933 347.747C373.78 348.042 373.619 348.329 373.47 348.624C376.196 348.464 377.417 348.695 379.49 350.54C380.954 351.843 382.049 352.836 383.815 353.754C386.739 355.987 392.024 354.938 395.509 354.478C399.677 353.93 403.953 353.258 408.091 352.552C406.75 347.093 401.996 331.534 397.955 328.133ZM89.838 330.052C89.6471 333.916 97.1315 350.327 99.7552 353.112C101.382 354.841 105.174 354.494 107.434 354.699C106.148 351.32 97.5776 333.925 95.5661 331.374C93.6595 330.825 91.8107 330.317 89.838 330.052ZM131.064 334.802C131.162 338.7 131.391 342.165 130.161 345.924C130.978 347.974 131.673 349.991 132.271 352.115C133.98 352.04 135.751 352.044 137.44 351.783L138.135 351.488C138.506 348.617 135.876 344.128 134.998 341.339C134.372 339.293 133.886 337.21 133.545 335.096C132.673 334.835 131.972 334.79 131.064 334.802ZM147.91 331.676C146.856 331.856 145.618 331.904 144.763 332.588C144.247 336.851 149.751 341.978 147.131 346.357C146.306 346.604 145.772 346.832 144.927 346.418C141.914 344.936 140.101 338.494 138.219 337.456L138.13 337.411C138.03 339.099 138.792 340.749 139.357 342.314C140.479 345.275 141.658 347.896 143.533 350.479C147.111 349.71 150.307 348.407 153.692 347.045C152.677 344.442 149.39 333.432 147.976 331.749L147.91 331.676ZM422.164 320.74C421.581 320.651 420.942 320.729 420.363 320.803C418.007 321.285 407.266 323.779 406.06 325.258C405.996 325.336 405.958 325.43 405.906 325.516C407.725 331.176 410.836 336.37 412.808 341.974C413.484 343.905 413.521 347.183 414.746 348.673C415.527 348.964 415.553 348.971 416.345 348.721C421.966 345.095 429.323 340.854 430.925 333.805C431.482 331.355 430.821 329.126 429.462 327.073C428.237 325.225 424.416 321.087 422.164 320.74ZM76.1401 324.922C77.3263 329.488 80.8793 346.017 85.2268 348.247C85.8587 348.571 86.7748 348.501 87.468 348.497C85.9972 345.517 84.5934 342.609 83.4129 339.488C81.9773 335.698 80.5657 326.468 76.403 324.996C76.3172 324.966 76.2278 324.948 76.1401 324.922ZM152.221 330.967C151.828 333.297 155.702 343.404 156.845 345.794C157.767 346.29 158.699 346.078 159.734 346.04C160.636 342.153 156.128 336.116 154.094 332.852C153.579 332.027 153.062 331.478 152.221 330.967ZM367.629 203.729C361.944 206.765 360.604 208.77 355.724 212.454L354.613 213.817C350.144 219.733 323.776 237.863 317.114 240.077L316.436 240.414C313.472 241.803 310.932 243.615 308.779 246.077C301.713 246.073 287.532 252.208 280.915 255.473C279.331 257.87 278.472 260.617 277.479 263.322C276.835 263.504 273.347 264.474 273.121 264.809C267.399 273.329 264.948 284.38 257.29 291.775C256.161 293.146 254.288 294.594 253.248 295.968C244.651 307.332 232.643 314.146 223.017 324.406C228.388 327.871 233.455 331.519 238.982 334.775C245.206 338.445 251.148 340.723 257.654 343.729C260.554 343.859 261.011 341.717 263.003 340.309C271.423 334.357 287.642 330.074 297.848 331.624C308.373 333.222 321.824 334.604 331.024 340.074C332.143 340.742 334.446 343.628 335.385 344.763C337.342 344.046 344.587 339.958 346.162 338.729C346.082 333.259 344.019 328.738 344.587 321.927C345.528 310.672 352.312 302.006 360.914 295.21C363.046 293.524 367.296 291.994 369.649 290.558C374.493 287.604 379.639 284.062 384.054 280.518C386.106 278.869 385.978 277.038 386.046 274.592L386.064 274.094C377.463 275.077 374.527 279.543 368.312 284.593C365.433 286.666 362.18 283.186 363.61 280.433C367.834 272.312 378.721 267.629 387.128 265.613C390.638 263.627 392.013 252.17 391.972 249.131C391.878 242.622 391.288 240.198 392.651 234.153C392.125 232.88 391.049 231.201 390.313 229.975C386.142 237.857 386.172 245.848 379.797 254.177C378.377 254.418 376.562 254.571 375.102 254.733C370.848 258.742 368.465 266.263 364.843 267.187C361.287 266.294 362.254 262.331 362.691 259.579C360.693 262.244 359.052 262.973 356.828 265.202C353.914 268.244 352.285 270.879 348.764 273.381C344.427 276.463 341.545 272.534 342.247 268.285C342.511 266.689 347.381 265.851 348.774 264.881C350.692 263.545 352.288 261.345 353.935 259.65C362.067 250.879 369.078 240.395 372.051 228.689C372.312 227.65 372.2 227.437 371.707 226.702C370.624 227.145 366.056 232.942 364.951 234.025C357.427 241.402 346.049 255.025 335.892 258.026C334.171 257.575 332.259 256.89 331.235 255.323C331.098 255.114 330.985 254.89 330.896 254.656C329.047 249.75 337.461 246.532 340.433 243.569C348.83 235.198 356.528 225.631 363.248 215.881C364.911 213.472 366.627 207.612 367.472 204.346L367.629 203.729ZM162.379 327.741C160.929 330.766 166.086 338.774 167.808 341.425C168.53 342.538 169.21 342.855 170.374 343.385L172.624 342.818C171.95 340.734 168.588 337.71 167.235 335.653C165.98 333.744 164.235 328.537 162.379 327.741ZM371.461 298.06C360.555 299.803 350.692 317.037 352.172 327.763C352.448 329.769 354.115 335.268 354.932 337.172C369.321 343.18 364.294 345.603 375.165 335.246C378.762 331.661 382.191 329.272 386.631 326.636C388.312 325.635 394.403 322.562 394.567 319.963C393.82 315.454 389.029 311.842 387.561 307.622C386.709 305.173 387.314 301.633 385.014 300.004C383.21 300.864 384.61 304.118 381.522 305.762C377.059 305.739 379.001 300.215 371.81 298.155L371.461 298.06ZM172.647 324.657C172.147 324.436 171.776 324.5 171.244 324.534C169.864 324.728 168.471 324.795 167.285 325.579C166.883 326.427 166.928 326.509 167.225 327.405C168.757 332.039 173.337 337.329 176.788 340.652C178.016 340.645 179.248 340.13 180.412 339.764C179.578 337.333 174.625 325.523 172.647 324.657ZM181.371 322.308C180.838 322.215 180.281 322.23 179.742 322.249C178.605 322.685 178.101 322.753 177.396 323.787C177.071 327.513 180.681 331.949 182.985 334.682C183.761 335.6 184.595 336.429 185.504 337.217L186.188 337.162C187.497 335.19 186.504 330.485 186.785 328.032C185.541 326.281 183.646 322.711 181.371 322.308ZM196.863 315.896C193.782 316.399 189.586 318.31 186.658 319.628C187.274 322.943 191.506 332.767 195.506 331.662L195.494 331.001L195.306 330.753C193.373 328.139 191.787 323.733 192.896 320.654L193.513 320.292C197.468 322.002 196.995 332.669 202.086 330.511C207.907 328.039 197.182 319.515 196.988 316.233C196.947 316.12 196.905 316.008 196.863 315.896ZM122.478 307.169C121.317 305.404 114.963 306.332 113.489 307.818C112.686 310.894 116.639 314.292 119.102 315.501L119.527 315.705C120.336 317.94 120.173 318.843 122.589 319.209C124.282 320.449 125.842 322.943 127.018 324.75C127.405 325.012 128.747 326.983 129.196 327.543C130.687 327.875 130.247 327.995 131.51 327.547L131.93 326.61C131.916 322.364 124.996 310.992 122.478 307.169ZM109.467 308.674C108.316 306.571 104.911 306.177 103.174 307.483C102.909 308.84 107.411 315.374 108.614 318.238C110.118 317.828 109.763 317.667 110.851 318.186L111.726 319.646C113.092 323.017 114.022 328.095 118.229 327.416L118.453 326.878C118.29 322.461 111.684 312.726 109.467 308.674ZM98.675 305.819C96.892 305.784 94.5675 305.552 93.0276 306.294C92.5683 306.79 91.8737 307.431 92.1359 308.231C93.2511 311.64 94.8702 314.245 95.8685 317.861C96.267 317.595 96.7732 317.467 97.2419 317.306L97.4138 316.434C97.5717 315.688 97.7325 315.234 98.3044 314.313L99.0278 314.088L99.1601 314.18C101.905 316.285 102.07 329.086 108.503 327.035C109.123 325.37 108.415 320.583 108.193 318.593L104.99 317.539C102.962 312.715 101.638 310.086 98.675 305.819ZM136.435 306.571C136.21 305.901 132.784 305.644 132.163 305.767C130.568 305.822 128.956 305.832 127.359 305.914C127.201 306.448 126.957 307.415 127.184 307.902C129.935 313.798 133.686 320.684 136.664 326.348C137.464 324.706 138.03 323.35 138.704 321.647C139.497 322.76 140.425 324.004 141.163 325.135C142.288 325.4 143.177 325.784 144.186 325.362C142.191 319.75 138.437 312.515 136.435 306.571ZM213.365 307.796C213.004 308.854 212.878 309.855 211.814 310.441C210.558 311.134 207.349 310.418 205.692 310.189L205.382 310.15C205.729 314.503 207.074 320.374 210.293 323.541C211.267 323.817 211.515 323.611 212.448 323.283C215.596 320.561 218.974 317.914 221.924 314.987C219.027 312.789 217.114 308.171 213.365 307.796ZM90.3111 321.666C91.7598 318.265 87.4634 304.295 82.3796 305.405L82.426 307.804C82.8354 311.091 84.7945 314.608 84.8528 316.647C85.3786 318.91 86.2187 321.282 88.523 322.226C89.8129 322.208 89.3689 322.39 90.3111 321.666ZM144.548 304.224C144.527 310.918 147.542 316.381 151.592 321.651C152.049 322.244 152.968 322.192 153.686 322.151C153.906 317.485 150.804 304.402 145.277 304.228C145.034 304.222 144.791 304.221 144.548 304.224ZM155.183 302.8C156.476 307.041 160.145 316.142 163.329 319.034C164.606 319.456 165.666 319.235 166.992 319.082C166.658 317.317 162.286 304.604 160.275 303.527C158.959 302.822 156.727 302.805 155.183 302.8ZM396.633 308.633C398.186 311.88 400.401 314.757 402.037 317.988C405.223 317.008 408.084 316.219 411.438 316.049C412.263 315.283 412.457 315.099 412.786 314.037C412.603 312.857 412.08 312.272 411.112 311.586C407.635 309.124 400.842 308.742 396.633 308.633ZM172.089 302.997C171.036 301.869 169.889 301.964 168.501 301.993C167.894 303.28 167.75 303.601 168.313 305.062C169.511 308.176 171.296 314.52 174.189 316.315C175.448 316.625 175.952 316.408 177.178 316.09C177.864 315.432 178.69 314.934 178.586 314.067C178.109 310.096 174.765 305.859 172.089 302.997ZM71.943 304.521C71.5766 307.382 71.0451 313.865 74.1882 315.381L74.8571 314.986C75.7784 312.23 73.6595 306.619 72.4464 304.042L71.943 304.521ZM185.191 299.127C183.357 299.616 179.359 300.071 178.437 300.901C177.85 303.462 179.804 305.738 180.434 308.047C180.62 308.728 180.881 311.071 180.99 311.901C182.333 313.722 183.559 313.425 185.727 313.15C187.187 312.254 190.308 310.391 192.067 309.692C192.13 309.446 192.194 309.199 192.258 308.953C191.609 306.644 187.792 300.339 185.854 299.144L185.191 299.127ZM251.35 284.391C249.55 283.618 247.636 281.203 246.133 282.772C245.025 283.93 243.914 285.171 242.844 286.369C242.861 289.411 243.099 292.681 241.73 295.429C239.145 297.044 235.23 289.771 232.256 292.09C229.83 293.982 228.065 296.889 224.82 297.996C224.266 298.207 222.472 298.969 222.556 299.49C223.097 302.858 225.183 308.095 225.99 311.441C230.903 308.896 233.58 305.689 237.656 302.285C243.531 297.379 246.991 291.536 252.234 286.201C252.104 285.577 252.064 285.006 251.671 284.526L251.35 284.391ZM71.7975 302.632C69.5044 301.683 63.9409 298.492 62.3809 298.964C61.6896 300.606 62.5994 302.094 63.3019 303.818C63.9798 305.441 64.6403 307.071 65.2842 308.707C66.7848 308.424 67.9466 305.232 69.0644 304.135L70.0019 303.909C70.7601 303.144 70.8227 303.12 71.7975 302.632ZM217.439 301.134C217.195 303.603 218.682 306.702 220.889 307.8C220.637 305.202 220.419 302.012 217.439 301.134ZM192.365 295.628C189.643 298.908 193.064 304.403 195.629 306.93C196.178 307.471 197.748 307.345 198.498 307.311C199.058 306.614 199.939 305.791 199.736 304.865C198.795 300.597 197.166 296.081 192.365 295.628ZM205.588 292.273C201.873 294.041 199.189 294.705 201.919 299.222C202.683 300.487 203.473 301.737 204.288 302.97C205.717 302.39 208.901 301.404 209.355 300.006C210.184 297.45 208.141 293.16 205.588 292.273ZM98.2431 268.107C98.2375 276.456 106.401 292.205 109.444 299.998C113.529 300.492 114.662 300.767 118.698 299.64C118.778 296.012 110.692 280.427 109.561 274.349C107.754 272.874 100.387 268.936 98.2431 268.107ZM85.3654 260.268C86.1549 263.495 86.1833 267.19 87.2257 270.597C89.6297 278.597 93.0375 286.306 96.2602 294.001C97.5331 297.04 101.711 302.405 104.994 298.51C105.882 295.79 98.7241 283.93 97.3313 280.03C95.3982 274.617 94.9412 269.173 93.2098 264.328C91.0642 262.708 89.7878 261.811 87.4588 260.416L85.3654 260.268ZM78.5153 236.622C78.0944 237.492 75.4492 242.49 75.3663 242.909C73.5094 252.269 71.7447 261.717 69.6222 271.03C68.8973 274.211 67.3327 276.942 66.5271 279.976L66.7734 282.555C71.9568 282.344 71.861 291.726 73.8594 295.885C77.9677 296.164 78.9696 296.697 82.6002 298.418C82.1498 295.397 81.7075 292.115 81.0102 289.04C80.4313 286.369 78.5455 282.952 78.033 280.405C77.1961 276.241 73.3687 262.062 77.5874 259.5C79.4451 260.604 78.3478 264.72 79.0892 266.705C82.586 275.817 85.5531 286.716 88.173 295.758C90.5656 304.014 101.495 295.99 88.8139 285.511C88.2675 279.556 84.8121 275.857 83.54 270.56C81.1724 260.702 78.6645 247.902 78.5216 237.61L78.5153 236.622ZM114.007 277.244C114.218 281.869 119.731 294.593 122.796 298.463C123.774 299.698 127.148 298.917 128.612 298.511C129.183 296.236 126.706 289.42 125.463 287.35C123.966 284.857 116.864 277.619 114.007 277.244ZM127.269 285.017C129.371 289.85 132.288 294.505 133.982 299.069C138.201 299.145 139.552 298.751 143.796 298.101C145.316 294.968 141.72 290.155 140.117 287.279C136.907 286.347 130.83 285.624 127.269 285.017ZM211.972 290.4C211.872 292.536 212.255 295.179 214.442 296.134L215.729 295.984C216.553 292.06 215.717 290.69 211.972 290.4ZM165.877 291.296C163.837 287.913 161.089 288.036 157.925 288.326C158.23 293.259 161.116 296.91 166.439 295.515C166.88 293.817 166.79 292.81 165.877 291.296ZM149.309 289.426C150.051 294.325 151.861 296.385 156.796 295.173C156.806 293.482 155.071 290.944 154.142 289.423L149.309 289.426ZM383.064 289.876C381.936 291.142 381.937 290.793 381.597 292.295C381.989 293.339 382.056 293.487 382.777 294.336C384.099 293.559 383.86 291.789 383.64 290.417L383.064 289.876ZM173.13 286.553C171.237 290.435 175.026 293.228 178.741 293.504C178.763 291.923 175.737 288.31 174.585 286.834C173.988 286.685 173.753 286.597 173.13 286.553ZM167.765 287.333C167.865 289.486 167.91 289.662 169.906 290.849C170.03 289.232 170.37 288.754 169.638 287.63C169.003 287.521 168.405 287.411 167.765 287.333ZM228.141 283.757C226.262 284.591 219.719 287.325 220.908 289.82C222.001 290.36 222.514 290.209 223.729 290.121C226.015 288.562 230.142 286.971 230.913 285.28C230.282 284.023 229.516 284.009 228.141 283.757ZM191.563 283.969C191.435 285.938 191.214 288.068 193.398 288.927C193.548 287.511 193.877 286.134 193.13 284.951C192.553 284.555 192.199 284.275 191.563 283.969ZM185.572 285.57C183.927 284.967 183.029 285.109 181.563 286.05C181.22 287.206 181.282 286.775 181.964 288.179L183.376 287.913C184.576 287.365 185.121 287.254 185.848 286.163L185.572 285.57ZM207.739 279.922C207.51 283.338 208.51 284.736 212.038 285.1C212.128 281.837 211.105 280.691 207.739 279.922ZM236.357 281.029C236.068 280.686 235.615 280.527 235.174 280.616C234.525 280.746 234.096 281.367 234.204 282.02C234.312 282.673 234.919 283.123 235.575 283.037C236.02 282.979 236.399 282.683 236.561 282.265C236.724 281.847 236.645 281.373 236.357 281.029ZM143.114 261.006C144.007 264.987 150.578 278.207 153.759 281.661C154.528 282.496 157.146 282.017 158.359 281.705C158.694 275.702 152.226 268.276 150.194 261.182C147.742 261.065 145.578 260.968 143.114 261.006ZM131.093 259.678C131.895 263.445 138.409 276.72 140.711 280.056C147.379 278.167 144.732 281.705 149.614 282.078C150.698 278.136 146.911 277.235 145.109 274.234C142.661 270.158 141.218 265.362 139.073 261.198C136.224 260.377 134.815 260.141 132.263 259.821L131.093 259.678ZM161.984 261.59C160.053 260.626 155.935 260.956 153.623 261.009C154.162 263.095 162.077 279.433 163.395 281.179C166.6 281.138 168.232 281.008 171.404 280.546C171.015 276.188 168.613 274.047 166.512 270.302C164.969 267.552 163.903 264.058 161.984 261.59ZM264.56 260.537C262.399 260.254 259.481 261.582 257.454 262.421C257.519 262.898 257.954 266.028 257.792 266.308C256.006 269.395 252.449 271.671 251.359 275.259C250.632 277.652 250.642 279.676 253.127 280.745L253.679 280.048C254.823 279.981 254.424 279.842 255.268 280.444L255.519 281.064C257.142 276.553 264.58 265.219 265.1 260.94L264.56 260.537ZM220.299 272.841C218.733 273.504 217.182 273.951 216.553 275.675C215.776 277.802 215.431 280 218.002 280.791L219.269 280.52C223.98 278.368 225.57 275.985 220.299 272.841ZM174.498 259.612C173.28 259.442 173.039 259.451 171.816 259.597C170.337 259.861 168.295 260.098 167.045 260.801C166.146 263.205 173.615 277.792 175.543 278.882C177.145 279.033 177.842 279.006 179.449 278.911C180.844 278.879 181.864 279.009 183.029 278.299C183.786 275.746 176.375 261.711 174.498 259.612ZM116.052 254.777C116.671 258.117 118.019 259.836 118.695 262.457C121.543 273.494 122.589 278.643 135.476 278.959C134.964 278.013 133.839 275.991 133.562 275.008C131.856 268.96 128.73 263.811 126.34 258.043C120.787 256.773 120.633 256.265 116.052 254.777ZM183.185 258.828C181.96 258.913 180.752 258.81 179.89 259.561C178.947 262.833 186.485 274.095 188.492 277.239C189.592 277.271 190.089 277.481 190.887 276.967C191.586 272.844 185.031 266.019 184.817 259.464C184.043 258.744 184.394 258.955 183.185 258.828ZM197.56 256.521C195.223 256.504 192.953 256.461 190.616 256.617C189.02 257.426 189.342 257 188.585 258.253C188.197 261.948 193.548 272.188 195.774 275.687C197.163 276.486 199.033 275.122 200.105 274.197C201.63 273.251 202.213 273.2 203.955 272.822C201.549 266.293 199.022 263.577 197.56 256.521ZM230.767 267.857C230.729 269.429 230.499 271.486 231.207 272.816C232.344 273.699 232.155 273.523 233.999 273.48C234.16 270.87 233.822 268.295 230.767 267.857ZM213.295 254.082C212.432 254.065 209.826 253.956 209.104 254.032C207.151 254.258 203.345 254.534 201.926 255.707C201.409 258.263 206.807 269.843 208.719 271.109L209.295 271.188C211.345 269.762 213.968 268.157 215.855 266.792C216.281 259.768 215.555 260.422 213.295 254.082ZM239.609 266.038C238.784 267.226 238.141 267.967 237.926 269.417L238.286 270.485C238.791 270.733 239.127 270.91 239.661 271.109C241.204 269.549 241.781 267.325 239.609 266.038ZM107.508 253.422C106.908 257.315 108.979 261.069 109.821 265.21C112.391 267.329 113.225 268.559 116.51 268.563C115.994 264.832 114.135 256.932 111.215 254.212C110.275 253.337 108.768 253.431 107.508 253.422ZM247.871 263.979C246.206 264.369 245.6 264.207 245.302 266.165C245.924 267.218 246.168 267.556 247.582 267.538C248.84 266.807 249.077 266.71 249.75 265.44L249.672 264.546C248.784 263.901 249.095 264.097 247.871 263.979ZM92.4635 247.272C92.8586 250.123 93.6684 253.043 94.3702 255.845C97.3579 258.385 101.943 261.28 105.599 262.649C104.984 258.883 104.989 253.942 101.728 251.994C100.265 251.119 93.7441 247.65 92.4635 247.272ZM223.957 252.381C222.784 251.397 221.933 251.481 220.417 251.625C220.158 251.649 219.899 251.676 219.641 251.707C217.932 252.34 218.336 251.918 217.64 253.158C217.487 255.524 219.076 260.275 222.081 259.212C222.837 258.803 224.291 258.074 224.949 257.629C224.813 256.006 224.808 253.661 223.957 252.381ZM238.39 248.21C236.397 248.276 234.179 248.298 232.209 248.419C230.915 248.634 229.907 248.647 229.016 249.618C228.163 251.202 227.999 253.067 228.564 254.775C231.023 262.002 234.918 254.094 237.074 252.565C238.535 253.133 239.005 253.62 240.131 254.67C241.533 254.906 241.511 255.113 242.775 254.673C242.909 252.221 239.732 250.319 238.39 248.21ZM176.293 121.456C166.502 123.954 170.5 127.591 164.279 133.536C158.618 139.57 150.175 144.238 144.139 149.08C140.326 152.139 130.091 164.712 127.404 168.605C128.086 169.65 130.831 173.954 131.684 174.604C138.255 179.592 145.22 184.288 152.118 188.829C158.824 193.244 164.266 190.309 171.331 192.296L172.995 192.239C177.178 192.231 181.81 191.985 185.952 191.109C189.885 190.277 197.429 183.518 201.205 185.155C204.784 189.714 199.015 191.846 197.141 193.829C193.22 197.98 182.969 213.504 179.992 199.764C171.881 198.143 156.051 199.627 148.014 195.047C146.896 194.41 145.331 192.192 143.786 191.319C138.93 188.584 134.317 186.51 129.885 183.031C127.438 181.11 124.1 176.795 121.585 175.293C120.096 174.404 115.621 179.495 114.2 180.737C106.268 187.665 100.788 196.825 95.3788 205.742C92.7842 209.997 89.3117 212.491 87.9829 217.6L88.1054 217.948C88.9734 220.353 89.9209 220.452 90.4411 221.833C91.4711 224.57 90.7834 229.416 90.842 232.843C91.6161 234.085 96.5366 239.452 97.746 239.96L98.3811 239.753C97.658 236.037 93.0179 214.271 97.6537 213.185L97.786 213.265C98.4516 213.636 99.1836 213.537 99.9459 213.545C104.11 216.455 100.089 225.611 102.064 229.795C103.637 233.125 103.562 245.245 108.61 244.937C108.847 244.427 108.997 244.138 109.16 243.597C107.452 240.253 103.039 222.443 105.003 219.863L105.915 219.82C106.646 220.414 106.963 220.508 107.191 221.526C108.876 229.057 109.971 240.493 113.77 247.178C117.613 248.849 118.681 249.137 122.69 249.812C122.662 242.199 119.826 234.619 118.296 227.186C117.403 222.844 113.744 213.073 117.443 209.517L118.045 209.605C120.028 212.355 119.318 218.083 119.955 221.45C120.522 224.438 126.046 247.839 126.845 249.23C127.615 250.57 128.787 251.645 130.331 251.975C131.46 252.216 132.099 252.027 132.994 251.417C133.661 249.356 130.716 243.383 129.728 240.618L129.371 238.476C128.208 235.787 126.502 232.575 126.931 229.654C127.682 228.546 127.245 228.856 128.587 228.518C131.878 229.448 133.106 238.954 134.404 242.015C134.504 242.25 135.489 245.502 135.495 245.599C136.756 248.628 137.652 250.611 139.212 253.489C141.355 253.631 145.573 254.255 147.17 253.078C148.26 249.155 138.976 225.058 143.337 222.335C143.835 222.345 144.272 222.23 144.655 222.583C145.69 223.538 148.744 248.452 152.777 253.011C153.588 253.927 155.106 254.352 156.292 254.362C157.244 254.37 157.923 254.072 158.719 253.588C159.575 252.299 159.113 251.79 158.478 250.359C156.92 246.113 153.39 238.249 155.166 233.641C156.181 232.604 155.662 232.907 157.282 232.629C157.502 232.727 157.722 232.825 157.942 232.924C159.807 238.903 159.664 243.918 162.277 249.624C162.829 251.551 162.875 252.187 164.348 253.215C166.153 253.562 169.222 252.558 171.253 252.144C169.663 247.208 167.295 242.318 165.031 237.661C164.472 236.51 164.073 232.907 165.844 232.533L166.06 232.632C170.532 234.875 172.209 247.397 174.986 251.357C175.845 252.58 180.185 251.906 181.913 251.73C181.996 246.768 181.21 244.643 179.58 240.129C178.359 236.949 176.21 230.359 177.559 227.149L178.205 226.947C180.931 228.993 182.418 236.478 183.012 239.883C184.075 243.797 184.956 247.227 186.972 250.777C188.914 250.217 192.398 249.102 194.278 248.811C193.782 245.959 192.02 238.584 193.129 236.296L193.826 236.014C196.543 237.662 197.582 245.172 199.551 248.439C204.097 248.089 207.015 248.001 211.04 245.754L209.381 240.082C209.416 239.17 209.494 238.708 209.65 237.806C210.539 236.958 210.112 237.117 211.206 237.097C212.425 237.705 212.621 238.225 213.301 239.367C213.397 242.202 215.479 247.815 219.568 245.271C221.706 243.939 221.582 239.888 221.82 237.426C223.932 238.039 224.138 238.023 224.953 240.237C228.103 247.578 233.015 239.064 235.748 238.622C237.17 238.784 238.189 239.813 239.316 240.723C241.512 239.568 244.106 237.667 246.068 236.686C249.133 235.152 253.556 232.849 256.697 231.63C262.931 229.209 270.456 226.742 276.402 223.659C283.363 219.88 288.966 214.029 295.14 209.198C300.881 204.75 306.984 200.497 311.693 194.879C315.41 190.445 318.32 185.949 322.877 182.196C324.123 180.727 324.951 178.097 326.115 176.666C328.462 173.779 336.457 168.247 336.607 164.488C335.696 163.47 330.194 160.229 328.454 159.393C320.769 155.698 311.971 153.16 304.169 149.362C303.172 148.876 297.387 148.168 296.14 147.959C292.239 147.282 288.383 146.36 284.597 145.199C281.339 144.186 277.579 141.356 274.408 140.596C272.216 140.071 268.769 140.765 266.149 139.959C263.287 139.079 259.17 136.322 256.532 135.72C253.401 135.005 249.246 134.227 246.071 133.728C241.083 132.944 236.13 134.429 231.887 130.976L231.57 130.714C224.692 129.995 220.218 130.713 213.427 130.946C209.955 130.459 206.427 129.041 202.983 128.274C198.805 127.343 179.808 127.253 177.21 125.505C176.675 124.649 176.524 123.581 176.409 122.514L176.293 121.456ZM246.616 244.465C245.415 245.308 244.218 246.17 242.977 246.951C244.577 248.741 245.594 250.077 247.795 251.155C249.235 250.774 249.336 251.018 250.046 250C250.024 247.973 248.638 244.954 246.616 244.465ZM257.325 239.765C255.283 239.968 253.207 241.198 251.394 242.211C252.171 243.58 253.635 246.373 254.938 247.128C257.476 246.231 261.129 244.621 260.236 241.329C259.194 240.191 258.864 240.079 257.325 239.765ZM282.254 235.067C279.025 237.367 272.373 241.716 270.417 244.89L270.32 245.824C271.479 246.569 272.222 246.207 273.793 245.903C277.793 244.582 283.276 242.987 286.043 240.215C285.331 238.721 284.353 236.395 283.312 235.208L282.254 235.067ZM274.855 231.545C271.47 232.921 265.075 234.227 263.086 237.314C262.544 238.155 263.086 239.346 263.366 240.294C265.067 240.232 265.683 240.107 267.011 238.912C269.545 236.633 272.743 234.502 275.078 232.058C274.94 231.566 275.086 231.683 274.855 231.545ZM294.148 225.369C291.015 227.493 289.305 228.998 286.618 231.781C287.285 233.977 287.879 237.352 289.771 238.4L290.84 238.326C293.607 236.656 295.686 235.162 298.304 233.252C297.788 231.14 296.83 225.421 294.148 225.369ZM304.365 216.957C302.158 218.479 299.903 219.876 298.095 221.849C299.08 224.308 300.224 229.368 301.871 230.555L302.733 230.361C311.612 226.905 308.964 223.321 304.365 216.957ZM312.562 210.67C311.107 211.599 309.697 212.463 308.336 213.529C309.263 218.949 310.013 218.39 311.986 222.858L312.629 223.906L313.049 223.94C313.334 222.351 312.591 213.209 312.562 210.67ZM316.013 212.207C315.508 215.411 315.94 219.514 317.788 222.277C318.444 222.662 318.603 222.816 319.376 222.875C320.087 220.711 319.835 219.812 318.908 217.715C318.169 216.042 317.495 213.185 316.013 212.207ZM62.6759 217.483C62.4291 219.715 62.7415 221.514 65.0144 222.512C64.9887 220.296 65.1233 218.367 62.6759 217.483ZM46.7397 216.214C48.3113 221.649 50.0279 221.915 55.2639 221.029C55.4628 217.279 49.6801 216.088 46.7397 216.214ZM31.095 188.467C28.6589 197.652 33.0381 209.172 37.2584 217.28C38.4319 219.534 40.6275 221.631 43.3507 220.519C45.3751 216.701 33.8836 199.471 32.4685 195.053C32.0215 193.657 32.0869 191.197 32.209 189.772C32.0895 189.563 31.304 188.705 31.095 188.467ZM322.927 200.39C321.093 202.101 320.007 203.437 318.699 205.607C321.4 209.98 320.918 216.094 324.849 219.052L326.56 219.291C328.308 218.061 328.92 217.597 330.404 216.081C329.749 214.294 323.351 200.659 322.927 200.39ZM24.4494 205.398C24.1604 206.266 23.5765 207.836 23.8669 208.703C25.1065 212.401 27.3223 216.83 31.1254 218.355C31.2778 217.277 31.4735 216.009 31.0418 214.995C30.0476 212.657 26.852 206.116 24.4494 205.398ZM69.5145 213.001C68.6283 214.365 68.0051 215.677 68.4876 217.347C69.0254 217.534 68.9098 217.609 69.3146 217.501C70.0691 216.128 70.9731 214.952 70.7946 213.491C70.1958 213.059 70.2471 213.071 69.5145 213.001ZM372.495 199.521C372.331 200.631 372.469 201.954 372.551 203.109C372.854 207.342 371.162 211.581 370.878 215.59L371.165 215.794C373.824 212.41 376.226 201.722 373.44 197.924L372.495 199.521ZM344.279 168.438C341.541 169.995 335.268 184.457 333.024 187.496C330.176 191.354 328.341 190.848 325.632 195.524C327.734 201.34 330.634 208.92 333.534 214.372C334.935 214.602 336.861 213.615 337.505 212.455C338.409 210.828 336.483 207.734 335.862 206.04C334.889 203.423 332.778 197.904 333.559 195.306L334.172 194.814C336.788 195.614 339.42 203.808 340.1 206.438C343.769 214.102 355.183 199.716 359.162 197.103C361.123 195.816 369.059 188.65 368.002 186.435C364.844 179.81 356.458 175.82 350.218 172.645L349 172.02C351.7 178.117 353.988 184.407 357.43 190.089C357.769 190.649 357.682 191.587 357.536 192.22C356.694 193.182 357.132 192.965 355.913 193.063C352.542 191.66 349.603 181.453 347.801 178.116C346.778 176.223 345.859 174.683 344.688 172.851C344.943 171.379 345.317 169.941 345.087 168.492L344.279 168.438ZM49.0004 185.141C48.3864 185.607 47.4127 186.399 46.7998 186.79C49.3951 195.086 51.878 200.979 55.7038 208.691L56.0961 208.779C55.3392 197.292 57.8552 195.503 49.0004 185.141ZM58.9003 194.43C60.0906 198.663 61.8663 209.686 67.8284 203.999C68.7945 203.233 68.8822 203.117 69.3513 201.978C69.4178 198.262 61.8337 195.863 58.9003 194.43ZM73.3726 199.092C74.2267 203.064 73.9202 204.926 78.5777 205.011C78.4649 203.41 78.3824 201.558 78.0989 199.995L73.3726 199.092ZM36.267 168.988C35.3566 171.646 35.8652 179.575 37.1129 182.09C39.8266 187.56 41.2977 190.19 42.172 196.401C43.8086 198.164 45.4235 200.043 47.3921 201.421C46.7523 194.936 44.2519 189.037 42.1634 182.869C41.0927 179.706 38.9242 170.622 36.267 168.988ZM172.202 98.3363C174.033 61.82 147.149 74.975 125.435 80.8023C116.855 82.4284 108.29 84.0873 99.8073 86.1819C97.3259 86.7947 93.8062 89.3128 91.5459 89.827C85.2948 91.2484 82.0123 91.7701 77.2942 96.506C71.3458 102.477 65.4054 108.902 60.9932 116.137C59.3958 118.772 58.7604 122.789 56.9633 125.504C53.3129 131.017 46.4329 141.243 46.1595 147.854C45.6004 161.365 50.7616 175.136 58.7256 185.819C59.4793 186.817 61.174 187.903 62.4199 187.882C62.9287 185.609 59.7975 182.227 59.0338 179.947C57.3184 174.827 47.1681 149.489 51.4809 145.785C55.7031 146.131 56.0102 157.79 56.9621 161.37C59.7882 171.996 63.8393 185.206 71.1537 193.563C72.5737 193.936 74.6477 194.643 76.0061 194.336C78.1226 192.087 73.1967 185.369 71.9911 182.998C69.7249 178.541 67.2498 167.002 63.9749 163.816C58.4097 158.404 61.7056 161.823 61.669 154.205C61.6541 151.164 59.1391 144.535 60.1071 141.399C60.8905 140.627 60.9227 140.616 62.0287 140.399L62.2274 140.496C66.2913 142.657 63.938 152.619 67.1159 154.671C68.457 154.463 67.9471 154.646 69.144 153.595C69.5428 152.312 69.3186 151.204 69.1692 149.878C68.7154 147.832 68.4087 144.253 70.5541 143.175L71.3857 143.531C72.3907 144.607 72.5834 145.357 73.0988 146.705L73.2151 147.019C74.8077 151.436 72.5184 155.7 78.1883 157.871C80.9871 158.943 82.6002 161.368 84.0011 161.53C84.2935 160.681 84.314 160.121 83.7565 159.23C77.478 149.201 78.4306 136.774 74.1372 125.918C72.8808 122.742 73.1304 113.285 73.8176 109.996C77.3765 106.775 82.3367 105.638 87.0888 105.49C93.7093 105.285 95.7315 113.69 98.7305 117.928C100.917 121.017 104.182 122.623 105.713 126.12C107.807 131.053 112.608 152.299 115.776 154.627C118.108 154.377 135.56 134.954 138.567 132.196C141.321 129.67 143.385 130.295 146.218 127.339C146.921 124.95 148.16 121.513 148.435 119.239L148.044 119.03C143.306 121.731 143.068 122.356 137.577 122.119C124.853 111.102 130.959 98.1754 128.281 94.2921L128.216 94.2022L127.728 94.2852C126.075 96.8266 126.451 104.875 127.048 107.861C127.844 111.841 135.764 126.099 128.886 127.523C125.389 126.364 123.939 118.505 122.871 115.396C120.423 108.264 118.243 100.96 120.688 93.4686C122.018 89.395 126.547 83.3789 131.487 85.0601C133.236 85.6743 134.662 86.97 135.44 88.6524C137.395 92.9055 136.086 98.119 136.263 102.705C136.424 106.869 136.916 109.17 138.176 113.037C139.412 113.024 140.933 113.327 141.869 112.384C148.735 105.469 143.971 83.2937 150.505 82.4401C151.504 82.3099 152.207 82.5035 153.043 83.0351C154.897 85.2104 154.122 88.1733 154.519 91.0073C155.964 101.341 156.286 109.017 155.442 119.547L155.229 122.077C159.171 120.386 166.522 117.084 169.963 114.81L169.973 114.598C170.162 111.12 171.358 108.715 172.022 105.433C172.426 103.431 172.104 100.295 172.202 98.3363ZM77.0262 163.754C75.573 169.225 81.6662 177.781 83.6345 183C84.3057 184.78 84.9271 186.573 85.5515 188.364C85.9195 187.989 87.9555 185.95 88.1444 185.661C89.1927 184.536 90.5701 183.288 91.0075 181.876L90.8867 181.574C89.2262 180.9 86.7773 181.343 86.2337 179.407C84.8656 174.535 84.1803 169.955 80.0778 166.506C79.1545 165.685 78.2683 164.389 77.0262 163.754ZM68.4068 160.817C68.4472 164.116 74.9786 184.562 78.2238 184.648C79.0883 178.744 77.1354 178.372 74.9368 173.029C73.3906 169.272 72.6182 164.834 70.7826 161.21C69.6868 160.803 69.5971 160.826 68.4068 160.817ZM41.2195 157.452C38.3387 160.064 43.3856 174.601 45.0558 177.974C45.1048 177.215 45.251 176.594 45.4 175.854L45.4831 175.41C46.2532 171.183 43.9259 162.762 42.857 158.14C42.128 157.498 42.2936 157.691 41.2195 157.452ZM82.8739 144.718C82.6996 148.781 87.5609 162.799 90.0946 166.182C93.832 171.173 94.4636 162.604 96.5569 174.944C98.6099 173.659 99.643 172.76 101.466 171.208C102.577 169.701 104.889 167.385 105.351 166.141C103.969 161.759 88.0819 146.893 83.103 144.807L82.8739 144.718ZM109.137 150.592C108.531 152.152 108.457 151.738 108.656 153.271C109.316 154.112 109.487 154.349 110.294 155.035C110.613 153.413 111.047 151.452 109.137 150.592ZM95.7912 128.651C96.3876 133.015 98.6368 152.721 103.833 151.852C105.412 149.603 100.931 139.332 100.323 136.341C100.067 135.077 98.8967 131.297 98.1755 130.201C96.6503 129.876 97.0496 129.91 95.7912 128.651ZM91.7584 119.975C89.5497 114.957 87.9428 111.659 81.9392 111.972C80.2755 113.838 80.1941 114.275 79.1253 116.519L79.0382 116.704C80.2408 129.706 83.357 137.313 94.0242 145.093L94.6056 145.593C95.0141 144.174 91.704 132.889 91.472 129.607C91.1699 125.34 91.2247 124.42 91.7584 119.975Z" fill="#251E1B"></path>
<path d="M267.849 88.8941C270.301 88.6313 272.432 89.2064 274.785 89.7743C277.724 94.2537 280.326 101.423 273.567 103.806C269.79 103.345 265.906 102.676 263.889 98.9811C261.832 95.2107 264.201 90.6183 267.849 88.8941Z" fill="#251E1B"></path>
<path d="M286.604 0.0193405C289.597 -0.0908035 292.306 0.300908 295.094 0.403601C304.902 0.264705 310.924 4.45976 318.286 9.72436C332.006 19.5371 336.698 36.2889 324.848 49.5913C319.432 55.6713 311.567 62.2336 302.708 62.9562C297.662 63.3681 293.181 62.5705 288.209 63.1933C280.411 63.4984 285.375 72.0886 282.985 75.5612C281.454 77.7843 271.792 75.7328 268.754 76.0434C268.622 66.1955 267.404 55.7844 278.195 51.3001C292.234 48.5192 301.392 51.857 313.513 40.9062C317.569 37.2422 317.503 34.393 317.776 29.2781C314.261 23.5196 306.543 18.9165 300.509 15.4843L299.326 14.8137L295.181 16.7842C295.892 20.9115 298.698 24.6317 297.306 29.6069C296.267 33.323 293.44 35.8952 290.17 37.7382C282.746 38.1541 278.866 36.6487 272.219 33.7278C269.437 32.5057 263.367 32.1504 262.661 28.4317C261.982 24.344 262.79 18.2411 265.091 14.769C270.719 6.27954 277.11 2.47208 286.604 0.0193405Z" fill="#251E1B"></path>
</svg>